<?xml version="1.0" standalone="no"?>
<!DOCTYPE svg PUBLIC "-//W3C//DTD SVG 20010904//EN"
 "http://www.w3.org/TR/2001/REC-SVG-20010904/DTD/svg10.dtd">
<svg version="1.0" xmlns="http://www.w3.org/2000/svg"
 width="3708.000000pt" height="1085.000000pt" viewBox="0 0 3708.000000 1085.000000"
 preserveAspectRatio="xMidYMid meet">

<g transform="translate(0.000000,1085.000000) scale(0.100000,-0.100000)"
fill="#000000" stroke="none">
<path d="M32435 9080 c-1197 -57 -2117 -595 -2720 -1590 -418 -690 -573 -1587
-425 -2457 131 -761 425 -1339 948 -1860 340 -338 722 -580 1190 -754 78 -29
142 -55 142 -59 0 -3 -51 -21 -112 -40 -210 -64 -425 -189 -551 -318 l-48 -49
136 -196 c75 -109 141 -197 147 -197 5 0 29 16 51 36 58 49 226 130 320 154
371 93 752 12 1425 -301 410 -191 631 -277 887 -345 236 -62 423 -78 614 -53
l86 11 176 407 c96 223 174 408 173 410 -2 1 -47 -5 -101 -15 -130 -25 -370
-25 -503 -1 -294 55 -728 197 -1060 349 l-75 34 130 18 c355 47 649 135 960
285 332 161 611 361 908 650 405 396 642 781 811 1319 233 745 230 1622 -11
2341 -240 720 -736 1344 -1383 1739 -577 352 -1312 520 -2115 482z m600 -904
c649 -106 1176 -454 1567 -1036 219 -327 354 -706 404 -1135 21 -179 15 -605
-11 -765 -80 -507 -263 -926 -572 -1310 -197 -245 -470 -469 -729 -598 -338
-169 -633 -234 -1054 -234 -724 1 -1298 272 -1733 817 -310 387 -481 806 -559
1365 -21 150 -17 673 5 824 92 613 323 1084 726 1484 353 350 768 542 1311
606 90 10 549 -2 645 -18z"/>
<path d="M27265 9073 c-111 -15 -211 -62 -293 -138 -214 -198 -240 -509 -63
-739 169 -219 473 -274 717 -131 71 42 165 141 202 215 109 219 70 466 -102
635 -125 123 -292 180 -461 158z"/>
<path d="M970 8565 l0 -415 410 0 410 0 0 -2500 0 -2500 -410 0 -410 0 0 -415
0 -415 1223 0 c1451 0 1782 10 2149 65 469 70 894 259 1165 519 160 152 263
295 363 501 275 569 232 1286 -109 1801 -184 278 -443 485 -778 620 -40 16
-73 31 -73 34 0 3 24 18 53 34 416 231 675 631 738 1139 15 130 7 453 -16 567
-63 321 -200 592 -421 830 -265 285 -491 408 -879 475 -379 65 -652 75 -2152
75 l-1263 0 0 -415z m2712 -425 c509 -48 826 -228 957 -544 56 -135 65 -192
66 -401 0 -206 -11 -281 -60 -410 -45 -120 -94 -195 -189 -291 -78 -79 -104
-98 -186 -137 -135 -66 -249 -96 -490 -132 -25 -4 -258 -9 -517 -12 l-473 -5
0 971 0 971 393 0 c215 0 440 -5 499 -10z m173 -2770 c461 -42 697 -132 901
-342 131 -134 205 -266 256 -456 26 -98 36 -361 19 -484 -34 -242 -121 -428
-275 -587 -267 -276 -557 -342 -1531 -345 l-430 -1 -3 1105 c-1 608 0 1111 3
1119 5 12 79 13 473 8 257 -3 521 -11 587 -17z"/>
<path d="M13443 8082 l-453 -415 0 -354 0 -353 -300 0 -300 0 0 -405 0 -405
299 0 299 0 5 -1382 c5 -1383 8 -1488 43 -1738 42 -304 166 -493 422 -644 154
-92 352 -136 612 -136 215 0 416 32 625 99 l60 19 3 411 c1 226 -2 411 -6 411
-5 0 -40 -11 -78 -23 -133 -46 -239 -62 -399 -62 -136 0 -155 2 -201 23 -94
43 -124 91 -151 245 -14 81 -16 257 -20 1435 l-4 1342 430 0 431 0 0 405 0
405 -430 0 -430 0 -2 769 -3 769 -452 -416z"/>
<path d="M8950 7065 c-451 -56 -867 -230 -1220 -511 -118 -94 -321 -301 -407
-414 -218 -289 -356 -598 -427 -955 -71 -357 -65 -826 15 -1165 103 -443 287
-782 599 -1104 408 -422 917 -662 1520 -717 165 -15 492 -7 640 16 539 83 985
310 1375 700 357 358 560 770 641 1300 23 153 33 402 24 580 -20 373 -93 672
-240 972 -136 278 -316 508 -565 722 -353 303 -735 482 -1199 562 -159 28
-581 35 -756 14z m588 -880 c284 -46 545 -183 767 -403 270 -267 412 -584 446
-999 39 -462 -95 -895 -375 -1215 -208 -238 -455 -386 -766 -459 -126 -30
-427 -37 -575 -14 -303 47 -559 179 -785 405 -120 120 -198 226 -269 361 -233
445 -237 1079 -11 1531 147 293 411 558 681 682 263 121 579 161 887 111z"/>
<path d="M17290 7074 c-505 -47 -910 -199 -1236 -465 -101 -82 -248 -240 -326
-350 -75 -106 -163 -247 -157 -253 5 -5 842 -226 856 -226 6 0 26 26 46 58
147 236 377 393 667 457 104 22 351 31 479 16 268 -32 452 -114 617 -276 183
-179 218 -330 212 -907 l-3 -306 -115 65 c-282 160 -546 253 -845 299 -149 22
-442 22 -590 0 -392 -60 -710 -219 -981 -490 -286 -287 -408 -583 -407 -991 0
-384 117 -690 362 -947 236 -249 516 -407 848 -479 126 -27 436 -37 580 -20
427 53 802 232 1171 559 l72 64 0 -281 0 -281 795 0 795 0 0 405 0 405 -390 0
-390 0 0 1188 c0 701 -4 1255 -10 1352 -19 292 -50 456 -119 611 -184 416
-576 671 -1187 770 -104 17 -183 21 -414 24 -157 1 -305 1 -330 -1z m100
-2575 c341 -31 677 -167 993 -401 l67 -50 0 -274 0 -274 -42 -39 c-263 -240
-563 -406 -868 -478 -130 -31 -397 -43 -516 -23 -165 26 -299 89 -409 192 -92
86 -157 180 -194 283 -119 327 -18 687 246 883 167 123 317 172 588 191 11 0
72 -4 135 -10z"/>
<path d="M23690 7019 c-389 -36 -808 -203 -1268 -505 -95 -63 -175 -114 -177
-114 -3 0 -5 126 -5 280 l0 280 -860 0 -860 0 0 -405 0 -405 408 -2 407 -3 3
-1508 2 -1507 -410 0 -410 0 0 -405 0 -405 1260 0 1260 0 0 405 0 405 -400 0
-400 0 0 1240 0 1239 78 59 c449 341 910 532 1281 532 153 0 270 -43 372 -138
90 -82 133 -184 170 -392 9 -47 13 -528 16 -1707 l4 -1643 844 0 845 0 0 405
0 405 -395 0 -394 0 -4 1353 c-4 1431 -3 1421 -51 1668 -22 115 -74 260 -121
341 -160 270 -450 461 -778 512 -125 20 -302 26 -417 15z"/>
<path d="M26200 6555 l0 -405 360 0 360 0 0 -1510 0 -1510 -360 0 -360 0 0
-405 0 -405 1175 0 1175 0 0 405 0 405 -360 0 -360 0 0 1915 0 1915 -815 0
-815 0 0 -405z"/>
</g>
</svg>
