 <svg  version="1.0" xmlns="http://www.w3.org/2000/svg"  width="672.000000pt" height="672.000000pt" viewBox="0 0 672.000000 672.000000"  preserveAspectRatio="xMidYMid meet">  <g transform="translate(0.000000,672.000000) scale(0.100000,-0.100000)" fill="#ffffff" stroke="none"> <path d="M3150 5614 c-47 -7 -110 -13 -141 -13 -31 -1 -78 -8 -105 -16 -27 -8 -65 -15 -85 -15 -20 0 -53 -7 -72 -15 -20 -8 -51 -15 -69 -15 -18 -1 -44 -7 -58 -15 -14 -8 -37 -14 -52 -15 -15 0 -42 -6 -60 -14 -47 -19 -98 -36 -137 -46 -18 -5 -38 -13 -44 -19 -6 -6 -19 -11 -28 -11 -10 0 -30 -6 -46 -14 -15 -7 -46 -21 -68 -31 -22 -9 -47 -21 -55 -26 -8 -5 -22 -12 -30 -15 -19 -7 -90 -42 -110 -54 -8 -5 -22 -11 -30 -14 -8 -4 -28 -15 -45 -26 -16 -11 -39 -24 -50 -30 -64 -34 -255 -163 -255 -172 0 -4 -7 -8 -15 -8 -8 0 -15 -4 -15 -8 0 -5 -28 -29 -63 -54 -90 -67 -341 -318 -417 -418 -35 -47 -70 -89 -77 -93 -7 -4 -13 -13 -13 -19 0 -5 -13 -27 -30 -48 -16 -21 -30 -40 -30 -43 0 -3 -19 -34 -43 -69 -23 -35 -52 -83 -65 -108 -12 -25 -27 -52 -32 -60 -19 -34 -90 -194 -115 -260 -9 -25 -23 -58 -31 -73 -8 -16 -14 -37 -14 -47 0 -11 -6 -34 -14 -52 -16 -39 -35 -106 -45 -168 -5 -25 -13 -65 -19 -90 -36 -148 -54 -504 -50 -970 l3 -265 2868 -3 c2290 -2 2867 0 2867 10 4 285 -3 1003 -11 1033 -5 22 -14 76 -19 120 -9 77 -15 108 -46 223 -33 126 -46 169 -60 195 -8 16 -14 35 -14 42 0 8 -7 31 -16 52 -9 21 -23 52 -30 68 -25 58 -116 240 -135 270 -10 17 -23 39 -28 50 -5 11 -21 37 -35 58 -14 21 -26 40 -26 43 0 9 -184 249 -224 293 -132 141 -290 291 -360 341 -25 19 -46 37 -46 42 0 4 -6 8 -14 8 -8 0 -16 3 -18 8 -6 13 -190 139 -253 172 -11 6 -33 19 -50 30 -16 11 -37 22 -45 26 -8 3 -22 10 -30 15 -8 5 -22 12 -30 15 -8 3 -22 10 -30 15 -8 5 -21 11 -27 14 -7 3 -19 7 -25 10 -7 3 -20 9 -28 13 -8 5 -33 17 -55 26 -22 10 -53 24 -68 32 -16 8 -36 14 -46 14 -9 0 -22 5 -28 11 -6 6 -26 14 -44 19 -39 10 -90 27 -137 46 -18 8 -42 14 -53 14 -12 0 -42 6 -68 14 -65 21 -138 38 -196 47 -27 4 -79 12 -115 18 -252 41 -531 51 -700 25z m480 -115 c47 -5 121 -14 165 -19 131 -14 337 -60 460 -102 17 -5 44 -13 60 -18 17 -4 41 -12 55 -18 14 -5 45 -18 70 -27 92 -36 350 -160 405 -195 17 -11 39 -24 50 -30 29 -15 56 -32 96 -62 20 -16 42 -28 48 -28 7 0 14 -7 17 -15 4 -8 11 -15 16 -15 10 0 83 -53 103 -74 6 -6 42 -37 80 -68 78 -63 249 -236 311 -313 21 -27 46 -56 54 -65 14 -14 100 -137 125 -178 6 -9 27 -44 48 -76 21 -32 43 -68 48 -80 5 -12 14 -30 21 -41 22 -38 53 -102 85 -175 9 -19 22 -47 30 -62 7 -14 13 -35 13 -45 0 -10 5 -24 11 -30 6 -6 14 -26 19 -44 4 -19 13 -47 18 -64 34 -102 58 -205 86 -370 19 -115 30 -390 16 -416 -10 -18 -31 -19 -675 -19 -575 0 -666 2 -679 15 -17 17 -20 59 -20 261 l0 142 40 53 c23 30 44 66 47 80 4 14 18 38 32 53 14 15 25 35 25 45 0 10 6 31 14 47 8 16 15 52 15 79 1 28 1 75 1 105 1 55 12 80 35 80 18 0 27 28 15 50 -17 32 -13 52 11 45 11 -4 47 -4 80 0 48 6 59 10 57 24 -2 9 -18 23 -37 32 -18 8 -38 23 -43 32 -5 10 -21 17 -38 17 -16 0 -40 10 -54 23 l-25 24 30 22 c24 18 33 20 45 11 8 -7 14 -19 14 -26 0 -20 24 -17 44 5 11 12 14 21 7 26 -6 3 -11 16 -11 29 0 30 -22 76 -38 76 -10 0 -10 4 0 19 11 19 13 18 42 -10 35 -34 46 -36 46 -9 0 12 7 20 16 20 12 0 15 -7 12 -25 -4 -17 -1 -25 9 -25 7 0 16 -7 19 -15 8 -19 34 -20 34 0 0 8 9 20 20 27 26 16 25 36 -1 64 -29 31 -18 64 22 64 26 0 29 3 29 33 0 30 -5 35 -62 62 -33 17 -62 35 -62 40 -1 6 16 11 37 13 26 2 39 -1 43 -12 9 -23 31 -20 69 10 27 20 38 23 54 15 32 -17 51 -13 61 14 10 25 15 28 60 29 15 1 25 7 25 16 0 11 -15 16 -64 18 -38 2 -69 9 -78 18 -19 18 -50 18 -88 -2 -35 -18 -70 -11 -85 16 -9 16 -8 20 5 20 8 0 15 -4 15 -10 0 -15 36 -12 50 5 8 9 29 15 56 15 34 0 44 4 49 20 3 11 3 24 0 30 -8 13 -127 13 -162 -1 -15 -6 -50 -15 -78 -19 -27 -5 -61 -12 -75 -16 -24 -7 -24 -6 -9 12 24 28 13 43 -27 38 -19 -2 -50 -6 -69 -8 -25 -3 -35 -1 -35 9 0 15 22 25 58 25 15 1 38 7 52 15 14 8 39 14 56 15 17 0 37 7 44 15 7 8 18 15 25 15 13 0 51 38 44 44 -15 13 -51 26 -72 26 -17 0 -27 -7 -31 -22 -6 -22 -7 -22 -20 -5 -17 22 -113 24 -142 2 -11 -8 -41 -14 -71 -15 -59 0 -66 11 -37 55 16 24 15 25 -11 35 -23 9 -32 7 -47 -7 -11 -10 -29 -17 -39 -15 -11 2 -19 -3 -19 -11 0 -22 -27 -28 -44 -12 -21 21 -46 19 -46 -4 0 -29 -40 -69 -80 -79 l-35 -9 50 -7 c54 -9 95 -39 95 -72 0 -19 -6 -21 -55 -22 -48 0 -55 2 -55 19 0 17 -3 18 -20 9 -11 -6 -20 -18 -20 -26 0 -9 -6 -14 -12 -12 -7 3 -14 25 -16 51 -2 37 -9 51 -33 71 -16 14 -29 32 -29 40 0 8 -9 20 -20 26 -12 6 -19 19 -17 32 1 11 -4 23 -10 25 -9 3 -13 -5 -13 -22 0 -24 -3 -27 -27 -22 -16 4 -48 10 -73 15 -25 4 -51 11 -57 15 -10 7 -63 -45 -63 -62 0 -4 16 -15 35 -24 22 -10 37 -26 41 -42 4 -15 12 -24 19 -21 7 2 17 0 23 -6 6 -6 28 -14 49 -19 98 -21 108 -25 108 -43 0 -14 -16 -23 -64 -38 l-63 -19 -22 20 c-12 12 -27 21 -33 21 -5 0 -18 9 -27 19 -10 11 -23 18 -30 15 -7 -3 -31 -1 -54 4 -31 7 -46 6 -62 -5 -18 -13 -21 -12 -26 1 -5 12 -15 15 -48 10 -22 -4 -45 -10 -51 -14 -5 -4 -26 -10 -46 -14 -25 -4 -38 -13 -42 -26 -6 -24 6 -34 32 -25 10 3 31 -1 47 -10 16 -8 34 -15 41 -15 6 0 13 -5 15 -12 3 -7 25 -12 58 -13 29 0 55 -5 57 -11 5 -14 -40 -34 -76 -34 -15 0 -41 -4 -57 -9 -16 -5 -48 -12 -71 -15 -42 -6 -43 -6 -33 20 6 14 10 31 10 38 0 22 -35 25 -59 5 -13 -11 -29 -19 -36 -19 -7 0 -16 -6 -19 -12 -3 -9 -8 -8 -16 5 -15 23 -32 22 -48 -3 -10 -17 -16 -18 -33 -10 -31 17 -23 74 11 78 28 4 59 38 60 66 0 14 -5 17 -25 12 -17 -4 -25 -2 -25 7 0 7 -24 24 -52 38 -69 31 -77 59 -18 59 30 0 46 -6 59 -21 l17 -21 37 22 c20 12 37 26 37 30 0 16 28 18 55 4 34 -17 65 -18 65 -1 0 20 43 52 68 48 12 -1 22 2 22 7 0 6 3 18 7 28 6 15 -1 16 -75 12 -45 -3 -82 -1 -82 4 0 4 5 8 10 8 6 0 10 4 10 9 0 12 -68 19 -79 8 -5 -5 -38 -11 -74 -14 -60 -5 -65 -4 -72 16 -9 29 0 38 20 21 13 -11 20 -11 40 0 13 7 45 14 69 15 27 0 53 8 64 18 10 9 28 17 40 17 33 0 26 17 -10 26 -55 12 -210 6 -263 -10 -27 -9 -64 -16 -81 -16 -17 0 -37 -6 -44 -14 -6 -8 -18 -12 -26 -9 -11 4 -9 10 11 29 47 44 24 64 -46 40 -59 -21 -129 -21 -129 -1 0 10 10 15 28 15 15 0 36 7 46 15 11 8 37 15 57 15 21 0 41 5 44 10 3 6 20 10 37 10 16 0 41 9 55 20 14 11 32 20 39 20 8 0 14 4 14 9 0 5 17 15 38 22 l37 12 -30 10 c-16 5 -45 15 -63 24 -46 20 -78 14 -75 -15 2 -12 -2 -22 -7 -22 -6 0 -10 9 -10 20 0 19 -4 20 -52 15 -93 -10 -123 -17 -137 -28 -20 -17 -141 -20 -141 -3 0 8 7 19 16 26 9 8 14 25 12 44 -4 40 -43 49 -69 15 l-17 -22 -11 22 c-14 24 -35 18 -26 -8 3 -9 -2 -26 -10 -37 -13 -16 -16 -17 -25 -4 -5 8 -10 23 -10 33 0 42 -73 -6 -85 -56 -4 -15 -21 -38 -39 -52 l-31 -24 32 -7 c31 -6 50 -26 80 -83 7 -12 10 -27 7 -32 -9 -15 -86 -10 -106 7 -16 16 -18 16 -24 0 -7 -19 -34 -22 -34 -3 0 7 5 18 12 25 15 15 3 16 -23 2 -20 -11 -27 -60 -9 -60 6 0 10 -7 10 -16 0 -22 -32 -13 -37 11 -14 64 -14 77 -3 90 11 13 8 22 -17 53 -17 20 -39 38 -50 40 -16 2 -19 8 -15 24 6 24 -12 37 -53 39 -27 2 -28 2 -5 6 30 6 43 23 29 39 -12 15 -49 6 -49 -12 0 -19 -62 -18 -115 1 -67 25 -98 16 -124 -33 -14 -27 0 -52 29 -52 21 0 47 -28 52 -55 2 -11 13 -21 25 -23 12 -2 27 -10 33 -18 8 -8 30 -14 56 -14 24 0 58 -6 76 -14 18 -8 42 -17 52 -21 32 -10 1 -31 -84 -59 l-75 -24 -27 31 c-23 28 -29 31 -47 20 -28 -17 -50 -18 -33 -1 20 20 14 38 -13 38 -14 0 -25 5 -25 10 0 14 -116 12 -140 -2 -16 -11 -22 -9 -33 6 -10 14 -16 16 -21 7 -5 -8 -24 -9 -59 -5 -43 5 -50 4 -39 -7 20 -22 14 -29 -27 -29 -38 0 -52 -9 -64 -43 -9 -24 18 -33 49 -17 26 14 48 5 24 -10 -8 -5 -11 -12 -7 -16 3 -4 13 -2 20 4 8 7 29 9 50 5 31 -5 36 -9 32 -24 -9 -28 22 -36 57 -16 34 19 64 22 73 6 4 -6 -1 -16 -11 -23 -12 -10 -14 -15 -5 -20 7 -5 20 -1 30 8 21 19 62 21 79 4 7 -7 16 -8 24 -2 7 6 46 11 86 12 56 2 72 0 72 -12 0 -7 -10 -16 -22 -19 -21 -6 -21 -7 -4 -26 17 -18 17 -19 -5 -26 -13 -4 -32 -18 -42 -31 -21 -28 -33 -30 -53 -9 -18 18 -10 35 16 35 10 0 26 10 34 22 18 25 13 37 -7 20 -7 -6 -23 -9 -34 -6 -12 3 -34 -1 -50 -9 -15 -8 -42 -21 -60 -27 -24 -9 -32 -18 -30 -34 1 -15 -4 -22 -20 -24 -16 -2 -23 2 -23 13 0 9 -6 15 -12 12 -7 -2 -13 -15 -13 -28 0 -19 -6 -25 -29 -27 -34 -4 -58 14 -37 27 7 5 10 14 7 20 -12 19 -51 12 -81 -13 -36 -31 -65 -39 -72 -20 -9 23 -21 16 -58 -33 -39 -54 -42 -63 -20 -63 8 0 29 -19 46 -42 l31 -43 -38 -6 c-32 -5 -44 -2 -71 18 l-33 25 0 -30 c0 -32 -23 -61 -35 -42 -4 6 -5 17 -2 24 3 7 1 19 -3 26 -5 8 -5 21 0 30 7 13 0 25 -25 50 -19 19 -35 39 -35 44 -1 6 -10 22 -21 35 -18 23 -20 23 -38 7 -18 -16 -22 -16 -53 -2 -48 23 -93 23 -117 2 -27 -25 -26 -40 3 -60 14 -8 36 -27 49 -40 14 -14 44 -30 68 -36 98 -25 131 -46 98 -61 -8 -3 -24 -11 -36 -17 -32 -17 -78 -15 -93 3 -7 8 -18 15 -25 15 -6 0 -26 7 -44 16 -44 22 -107 29 -125 15 -11 -10 -16 -8 -24 6 -9 15 -13 16 -35 4 -14 -7 -30 -11 -35 -7 -6 3 -17 0 -25 -8 -7 -8 -25 -16 -38 -18 -37 -5 -36 -34 2 -47 18 -6 42 -11 54 -11 13 0 29 -10 38 -22 15 -23 15 -23 47 -5 29 17 33 18 49 3 10 -9 26 -16 37 -16 11 0 25 -5 32 -12 8 -8 15 -8 26 1 20 17 97 10 109 -10 8 -13 2 -24 -28 -52 -39 -37 -55 -39 -55 -7 0 11 10 20 27 25 26 6 26 7 9 17 -14 8 -25 7 -40 -2 -12 -8 -37 -16 -56 -19 -26 -5 -36 -12 -38 -28 -2 -15 -13 -23 -37 -27 -18 -4 -35 -10 -37 -14 -2 -4 -21 -15 -43 -23 -22 -8 -44 -25 -50 -37 -5 -12 -13 -22 -17 -22 -5 0 -8 -7 -8 -15 0 -8 8 -15 19 -15 10 0 24 -7 31 -15 10 -12 18 -12 59 4 44 16 91 14 91 -5 0 -15 -46 -59 -60 -57 -8 2 -26 -6 -40 -17 -23 -19 -24 -21 -7 -34 9 -7 17 -20 17 -29 0 -22 19 -31 26 -13 7 17 44 22 44 6 0 -5 7 -10 16 -10 11 0 14 6 9 20 -8 25 20 38 46 22 15 -10 27 -7 65 18 26 16 51 27 55 24 17 -10 9 -69 -12 -87 -13 -12 -18 -24 -14 -37 5 -14 1 -22 -14 -28 -27 -10 -76 -83 -61 -92 8 -5 5 -18 -10 -43 -24 -40 -20 -77 9 -77 10 0 23 11 29 25 6 14 18 25 25 25 7 0 24 11 37 25 36 38 64 30 68 -20 3 -39 16 -65 33 -65 4 0 17 10 28 21 13 14 27 20 40 16 16 -4 21 0 21 13 0 10 7 23 15 30 13 11 18 10 29 -5 12 -17 13 -17 18 3 4 12 17 26 31 31 13 5 27 17 30 25 7 16 33 22 40 9 2 -5 7 -20 11 -34 5 -22 2 -28 -18 -33 -13 -3 -26 -15 -29 -26 -4 -15 -14 -20 -39 -20 -30 -1 -31 -2 -13 -12 11 -6 21 -11 22 -12 1 -1 4 -13 8 -28 5 -21 3 -27 -15 -33 -15 -5 -19 -12 -14 -27 3 -12 1 -24 -7 -28 -19 -13 -39 0 -39 25 0 23 -24 40 -41 29 -5 -3 -9 -14 -9 -24 0 -10 -5 -22 -11 -26 -17 -10 -30 18 -24 54 5 25 2 32 -10 32 -8 0 -15 -7 -15 -15 0 -9 -7 -26 -15 -39 -14 -21 -14 -24 0 -36 8 -7 15 -19 15 -26 0 -7 13 -23 30 -36 32 -23 40 -48 16 -48 -29 0 -28 -22 3 -54 17 -17 34 -47 37 -66 8 -42 21 -60 38 -54 10 4 17 -14 26 -61 9 -47 18 -69 32 -76 15 -8 17 -14 9 -22 -16 -16 -14 -37 4 -37 8 0 15 7 15 15 0 8 7 15 15 15 28 0 17 -44 -15 -62 -40 -23 -58 -61 -39 -84 7 -9 13 -25 14 -35 0 -41 20 -21 28 29 9 54 21 62 41 28 8 -14 8 -20 -1 -23 -15 -6 -17 -39 -3 -48 15 -9 12 -62 -5 -79 -22 -21 -1337 -22 -1356 0 -15 18 -4 303 17 429 32 189 63 311 122 470 47 128 50 137 61 155 5 8 26 50 47 93 64 128 114 218 134 237 9 8 30 44 40 68 5 12 14 22 20 22 5 0 10 5 10 11 0 11 53 84 75 104 6 6 32 37 57 70 51 66 238 252 333 331 114 95 251 192 330 234 11 6 34 19 50 30 17 11 53 31 80 45 28 14 57 30 65 35 8 5 22 11 30 14 8 3 22 10 30 14 8 5 33 17 55 27 22 9 49 22 59 27 11 6 31 14 45 18 14 5 51 18 81 30 30 12 69 25 85 30 17 5 44 13 60 18 126 43 326 88 460 102 50 6 115 14 145 19 79 12 390 13 490 0z m-482 -421 c-3 -7 -14 -14 -25 -16 -16 -2 -20 -10 -19 -40 l1 -37 -52 -3 c-29 -2 -53 0 -53 4 0 13 33 44 47 44 7 0 13 5 13 10 0 6 7 10 15 10 8 0 19 9 25 20 12 22 54 28 48 8z m-280 -163 c16 -34 -5 -45 -29 -14 -24 30 -24 39 -1 39 11 0 24 -11 30 -25z m215 1 c24 -19 21 -38 -5 -34 -15 2 -24 11 -26 26 -4 25 5 27 31 8z m383 -48 c4 -4 -2 -11 -12 -14 -10 -4 -35 -19 -54 -34 -39 -30 -61 -37 -173 -53 -85 -12 -104 -5 -92 32 7 23 34 27 65 11 15 -8 19 -5 24 25 7 35 23 44 42 25 8 -8 14 -7 22 2 11 14 164 19 178 6z m-541 -36 c0 -18 -20 -15 -23 4 -3 10 1 15 10 12 7 -3 13 -10 13 -16z m-311 -37 c22 -17 14 -50 -10 -41 -9 3 -20 6 -25 6 -10 0 -12 33 -2 43 9 10 15 8 37 -8z m1066 -14 c0 -14 -18 -23 -30 -16 -6 4 -8 11 -5 16 8 12 35 12 35 0z m1133 -56 c-3 -8 -9 -15 -14 -15 -5 0 -9 -9 -9 -19 0 -40 -11 -51 -52 -51 -53 0 -49 27 10 55 23 11 45 28 48 38 3 9 9 15 14 12 5 -3 7 -12 3 -20z m-2428 -5 c8 -13 -20 -24 -41 -16 -20 8 -9 26 16 26 10 0 22 -5 25 -10z m663 -28 c2 -15 -2 -22 -12 -22 -9 0 -16 4 -16 9 0 5 -3 17 -6 26 -5 13 -2 16 12 13 11 -2 20 -13 22 -26z m-110 1 c5 -16 -22 -27 -44 -19 -13 5 -14 9 -4 22 15 17 41 15 48 -3z m402 -15 c0 -16 -3 -19 -11 -11 -6 6 -8 16 -5 22 11 17 16 13 16 -11z m-175 -11 c0 -26 -20 -25 -23 2 -3 16 1 22 10 19 7 -3 13 -12 13 -21z m-541 -46 c3 -5 23 -12 43 -16 36 -7 37 -8 16 -18 -25 -11 -29 -27 -11 -45 16 -16 4 -25 -19 -14 -10 6 -32 16 -49 22 -28 10 -31 16 -28 43 1 18 3 33 3 35 2 6 41 1 45 -7z m-164 -26 c-13 -16 -40 -20 -40 -7 0 14 12 22 33 22 16 0 17 -3 7 -15z m2117 0 c3 -9 3 -19 -1 -22 -8 -9 -37 18 -30 28 8 14 24 11 31 -6z m-1248 -14 c28 -22 20 -45 -12 -35 -24 7 -37 22 -37 42 0 17 21 15 49 -7z m1439 -2 c12 -19 11 -20 -10 -17 -12 2 -24 11 -26 21 -5 24 20 21 36 -4z m-2218 -9 c12 -7 10 -11 -10 -19 -14 -6 -33 -16 -42 -23 -28 -20 -33 0 -8 27 25 27 37 30 60 15z m410 -51 c0 -49 -1 -50 -27 -47 -16 2 -29 10 -31 20 -4 19 39 89 50 82 5 -3 8 -28 8 -55z m1261 12 c8 5 32 9 54 9 35 -1 38 -2 23 -14 -10 -7 -18 -23 -18 -35 0 -12 -7 -24 -15 -27 -8 -4 -15 -12 -15 -19 0 -19 -43 -27 -59 -10 -12 12 -9 15 18 22 43 11 43 27 1 31 -19 2 -42 10 -50 17 -9 8 -25 12 -38 8 -23 -6 -29 6 -11 24 7 7 23 7 53 -2 26 -8 48 -10 57 -4z m857 7 c-3 -7 -15 -14 -27 -16 -12 -2 -25 -10 -28 -18 -3 -8 -13 -14 -23 -14 -10 0 -31 -7 -46 -15 -17 -9 -56 -15 -91 -15 -57 0 -63 2 -63 20 0 24 27 37 43 21 20 -20 37 -12 37 19 l0 30 101 0 c76 0 100 -3 97 -12z m-2994 -23 c-4 -8 -15 -15 -25 -15 -21 0 -26 16 -6 23 24 10 36 7 31 -8z m2296 -40 c0 -7 -6 -15 -12 -18 -19 -6 -38 3 -38 18 0 7 6 15 13 18 18 6 37 -3 37 -18z m-2447 -19 c6 -15 -1 -26 -15 -26 -4 0 -8 9 -8 20 0 23 15 27 23 6z m175 -13 c2 -8 -5 -13 -17 -13 -21 0 -35 13 -24 24 10 10 36 3 41 -11z m1147 -34 c-7 -20 -8 -21 -17 -5 -5 9 -7 24 -4 33 10 26 29 -1 21 -28z m452 -53 c-2 -6 -9 -11 -15 -10 -7 1 -26 2 -42 3 -41 1 -48 26 -19 57 l23 25 28 -32 c16 -18 27 -37 25 -43z m1026 68 c9 -10 -4 -34 -19 -34 -8 0 -14 6 -14 13 0 22 19 35 33 21z m-889 -12 c-6 -4 -14 -19 -17 -33 -7 -29 -30 -43 -58 -34 -26 9 -13 32 30 55 35 18 68 27 45 12z m796 -12 c0 -16 -7 -20 -31 -20 l-31 0 23 20 c31 25 39 25 39 0z m-2305 -10 c3 -6 -1 -13 -10 -16 -19 -8 -30 0 -20 15 8 14 22 14 30 1z m1674 1 c11 -7 5 -11 -22 -16 -45 -9 -80 1 -57 15 19 12 61 12 79 1z m-429 -10 c0 -5 -7 -12 -16 -15 -22 -9 -24 -8 -24 9 0 8 9 15 20 15 11 0 20 -4 20 -9z m-1840 -25 c0 -17 -24 -38 -33 -29 -15 15 -6 43 13 43 11 0 20 -6 20 -14z m451 -1 c0 -5 -7 -12 -16 -13 -23 -5 -47 6 -40 19 8 13 56 8 56 -6z m1309 0 c0 -16 -45 -21 -54 -6 -8 12 4 21 31 21 14 0 23 -6 23 -15z m-990 -29 c0 -18 -16 -29 -30 -21 -13 8 -1 35 16 35 8 0 14 -6 14 -14z m1080 4 c0 -5 -7 -10 -15 -10 -8 0 -15 5 -15 10 0 6 7 10 15 10 8 0 15 -4 15 -10z m817 4 c22 -6 22 -7 5 -30 -21 -29 -72 -34 -72 -6 0 35 24 47 67 36z m564 -30 c10 -13 10 -17 -1 -24 -17 -10 -40 5 -40 26 0 19 25 18 41 -2z m-2191 -9 c0 -8 -7 -15 -15 -15 -8 0 -15 7 -15 15 0 8 7 15 15 15 8 0 15 -7 15 -15z m1025 6 c7 -12 -12 -24 -25 -16 -11 7 -4 25 10 25 5 0 11 -4 15 -9z m-1735 -11 c0 -5 -7 -10 -15 -10 -8 0 -15 5 -15 10 0 6 7 10 15 10 8 0 15 -4 15 -10z m2599 -36 c2 -21 -24 -45 -42 -38 -24 9 -21 49 6 67 20 13 23 13 29 -2 4 -9 7 -21 7 -27z m-2689 27 c0 -15 -28 -33 -40 -26 -8 5 -8 11 1 21 13 15 39 19 39 5z m855 -10 c3 -5 1 -12 -4 -15 -13 -8 -42 4 -35 15 7 12 31 12 39 0z m-109 -46 c-18 -27 -30 -25 -34 7 -2 19 2 27 15 30 25 5 35 -13 19 -37z m1305 21 c-23 -25 -67 -41 -142 -51 -49 -7 -64 1 -53 29 7 18 39 22 49 6 9 -15 45 -12 51 5 4 8 19 15 34 15 16 0 32 5 35 10 3 6 16 10 27 10 l21 0 -22 -24z m-641 10 c0 -2 -7 -9 -15 -16 -12 -10 -15 -10 -15 4 0 9 7 16 15 16 8 0 15 -2 15 -4z m-1747 -12 c10 -10 -15 -54 -32 -54 -9 0 -27 -3 -39 -7 -21 -5 -23 -3 -20 18 2 18 9 23 25 22 11 -1 27 4 33 12 13 16 23 19 33 9z m141 -35 c5 -5 4 -14 -4 -23 -7 -9 -9 -23 -6 -32 3 -8 3 -14 -1 -12 -5 3 -23 11 -40 18 -32 14 -44 45 -26 64 8 8 64 -2 77 -15z m1686 -5 c0 -16 -16 -19 -25 -4 -8 13 4 32 16 25 5 -4 9 -13 9 -21z m-1187 -8 c19 -15 23 -36 5 -36 -14 0 -48 30 -48 42 0 12 23 9 43 -6z m2627 -26 c0 -10 -5 -22 -10 -25 -13 -8 -24 20 -16 41 8 20 26 9 26 -16z m-3242 2 c2 -7 -3 -12 -12 -12 -9 0 -16 7 -16 16 0 17 22 14 28 -4z m332 -28 c0 -30 -3 -34 -25 -34 -29 0 -31 11 -8 50 21 36 33 30 33 -16z m2290 24 c0 -7 3 -22 6 -33 3 -14 -4 -30 -23 -50 -15 -17 -28 -39 -28 -50 0 -16 -6 -20 -29 -18 -16 1 -30 4 -33 7 -10 10 19 46 38 46 18 0 20 5 18 39 -3 40 13 71 37 71 8 0 14 -6 14 -12z m-589 -31 c-5 -5 -18 -7 -28 -3 -14 6 -15 9 -4 16 19 11 46 1 32 -13z m-741 -9 c6 -13 15 -30 22 -39 16 -23 3 -52 -21 -44 -15 5 -22 -1 -31 -30 -9 -26 -17 -35 -34 -35 -34 0 -39 -11 -16 -35 17 -18 20 -30 14 -65 -5 -32 -9 -38 -16 -26 -10 18 -38 22 -38 5 0 -6 5 -19 10 -29 11 -21 8 -24 -32 -34 -23 -5 -28 -3 -28 13 0 11 5 23 10 26 6 3 10 12 10 20 0 9 -12 12 -42 11 -40 -2 -43 -4 -46 -34 -7 -68 -42 -19 -46 63 -1 11 -8 20 -16 20 -9 0 -14 -8 -13 -19 1 -11 -7 -31 -18 -44 -10 -14 -19 -32 -19 -40 0 -13 3 -12 15 4 13 16 16 17 25 4 5 -8 10 -28 10 -44 0 -34 25 -66 52 -66 13 0 18 7 18 27 0 14 3 24 6 20 4 -3 3 -26 0 -51 -6 -39 -11 -45 -37 -51 -16 -4 -29 -10 -29 -14 0 -4 18 -27 40 -52 33 -37 40 -52 42 -93 3 -54 19 -69 35 -34 10 22 10 22 26 -12 8 -19 21 -53 27 -75 7 -22 16 -48 21 -57 5 -10 5 -20 -1 -23 -19 -12 -10 -23 50 -60 34 -21 59 -43 57 -49 -2 -6 -18 -17 -35 -25 -18 -8 -32 -20 -32 -26 0 -7 -9 -20 -21 -31 -16 -14 -19 -26 -14 -49 3 -16 7 -45 9 -62 3 -40 8 -45 30 -37 12 5 16 14 12 30 -3 12 -2 26 4 29 5 3 10 21 10 40 0 39 14 52 35 35 17 -14 20 -56 5 -65 -15 -9 -12 -51 5 -65 17 -14 20 -56 5 -65 -6 -4 -8 -15 -5 -26 10 -30 -60 -27 -76 3 l-11 21 -17 -22 c-16 -22 -17 -22 -378 -21 -265 1 -364 4 -371 13 -20 25 -40 293 -23 310 6 6 11 24 11 40 0 17 15 52 35 83 19 29 35 55 35 59 0 4 13 24 28 44 32 42 53 126 59 245 3 60 8 82 21 92 10 7 17 26 17 46 0 29 3 33 25 31 31 -3 107 19 110 32 2 5 -6 14 -16 20 -10 5 -32 19 -49 30 -40 27 -94 45 -112 38 -8 -3 -3 7 11 22 14 15 26 32 26 36 0 19 30 8 46 -16 24 -36 52 -32 70 10 12 29 18 34 31 26 13 -7 23 -4 39 12 41 41 55 48 82 45 25 -3 27 -6 30 -59 3 -49 6 -58 25 -63 23 -6 53 15 62 45 9 27 24 24 35 -7 14 -35 30 -21 30 25 0 49 7 55 38 30 21 -16 27 -17 32 -7 8 20 64 88 73 88 4 0 7 -9 7 -20 0 -11 7 -20 15 -20 10 0 15 10 15 28 0 26 7 42 17 42 2 0 8 -10 13 -22z m-575 -37 c7 -12 -12 -24 -25 -16 -11 7 -4 25 10 25 5 0 11 -4 15 -9z m280 -7 c25 -16 34 -57 16 -68 -7 -5 -43 41 -59 77 -6 12 18 8 43 -9z m846 -4 c-3 -8 -5 -25 -5 -37 -1 -13 -1 -23 -2 -23 -7 0 -64 33 -64 37 0 4 8 15 17 25 20 22 60 20 54 -2z m-1275 -26 c-5 -13 -10 -14 -18 -6 -6 6 -8 18 -4 28 5 13 10 14 18 6 6 -6 8 -18 4 -28z m1743 13 c12 -15 5 -27 -16 -27 -7 0 -13 9 -13 20 0 23 13 26 29 7z m-264 -48 c0 -15 -7 -25 -17 -27 -13 -3 -18 3 -18 21 0 13 3 27 7 31 13 12 28 -1 28 -25z m743 -1 c-2 -13 -7 -23 -13 -23 -5 0 -11 10 -13 23 -2 15 2 22 13 22 11 0 15 -7 13 -22z m-357 -42 c11 10 19 12 19 5 0 -6 15 -26 34 -44 l33 -33 -18 -34 c-20 -36 -23 -58 -13 -84 9 -24 32 -19 36 6 2 13 11 24 22 26 11 2 35 19 54 38 19 19 41 34 48 34 18 0 38 -39 39 -74 0 -17 8 -33 18 -40 15 -9 23 -6 44 18 21 25 28 28 44 18 17 -11 20 -9 25 18 9 41 22 47 34 15 11 -30 30 -25 30 8 0 26 51 79 57 60 7 -21 33 -15 33 7 0 22 22 27 37 8 16 -21 24 -90 10 -85 -7 2 -12 12 -12 22 0 10 -6 20 -13 23 -12 4 -16 -3 -26 -48 -3 -17 -16 -29 -37 -37 -31 -12 -32 -13 -15 -32 24 -26 17 -65 -11 -69 -16 -2 -22 3 -25 19 -4 32 -28 37 -28 6 0 -18 7 -27 25 -31 16 -4 25 -13 25 -26 0 -15 -7 -20 -25 -20 -18 0 -25 5 -25 19 0 19 -43 55 -54 44 -3 -4 -6 -19 -6 -35 0 -15 -4 -28 -10 -28 -16 0 -31 38 -24 65 5 19 2 25 -10 25 -25 0 -42 -45 -28 -75 7 -14 12 -34 12 -44 0 -10 12 -27 27 -36 24 -16 27 -16 38 -2 7 10 16 13 21 7 5 -4 19 -10 31 -12 l22 -3 -21 -25 c-18 -22 -21 -23 -29 -7 -9 15 -12 16 -25 2 -9 -8 -22 -15 -30 -15 -23 0 -17 -19 21 -64 26 -32 35 -53 35 -79 0 -41 12 -54 31 -31 11 14 15 9 31 -38 9 -29 18 -62 18 -74 0 -11 6 -29 14 -39 10 -14 11 -25 2 -46 -7 -21 -7 -32 1 -40 10 -10 15 -6 22 14 12 30 45 37 55 11 8 -22 -1 -34 -27 -34 -48 0 -75 -118 -36 -154 9 -8 10 -8 5 1 -3 6 2 18 13 25 11 8 21 27 23 43 1 17 8 29 13 28 11 -3 24 -124 17 -165 -5 -32 -33 -44 -61 -26 -16 10 -23 10 -33 0 -9 -9 -102 -12 -374 -12 -307 0 -365 2 -377 15 -19 19 -32 162 -23 261 6 65 12 82 46 131 22 31 40 62 40 69 0 7 6 19 13 26 32 34 47 90 48 182 2 100 4 109 30 118 12 5 15 14 12 32 -8 41 3 59 27 46 15 -8 31 -7 60 1 44 13 52 34 18 44 -13 4 -37 18 -55 31 -17 13 -41 24 -52 24 -29 0 -32 12 -11 40 17 23 19 23 44 7 14 -9 30 -17 36 -17 16 0 12 66 -5 80 -16 13 -20 51 -8 64 4 4 13 -5 21 -19 13 -26 14 -26 33 -9z m-1026 -5 c3 -6 -3 -15 -14 -20 -26 -14 -31 -14 -31 3 0 21 34 34 45 17z m335 -40 c0 -22 -6 -44 -15 -51 -8 -7 -15 -16 -15 -21 0 -4 -13 -28 -30 -52 -16 -25 -34 -62 -38 -83 l-8 -39 -8 53 c-4 34 -3 59 4 67 7 9 6 16 -4 24 -11 9 -10 18 6 51 11 22 24 40 29 40 6 0 22 11 37 25 36 34 42 32 42 -14z m-1592 -3 c-2 -13 -7 -23 -13 -23 -5 0 -11 10 -13 23 -2 15 2 22 13 22 11 0 15 -7 13 -22z m2610 -70 c4 -35 -10 -36 -32 -3 -21 32 -20 37 7 33 16 -2 23 -11 25 -30z m-873 -31 c0 -26 -20 -25 -23 2 -3 16 1 22 10 19 7 -3 13 -12 13 -21z m-1769 -53 c-5 -13 -10 -14 -18 -6 -6 6 -8 18 -4 28 5 13 10 14 18 6 6 -6 8 -18 4 -28z m2964 17 c0 -12 -28 -22 -34 -12 -3 5 -3 11 1 15 9 9 33 7 33 -3z m-1852 -76 c1 -54 7 -65 32 -65 11 0 24 -9 31 -21 9 -17 7 -25 -10 -43 -12 -12 -21 -29 -21 -37 0 -21 -9 -29 -26 -22 -8 3 -14 18 -14 34 0 19 -5 29 -15 29 -8 0 -19 9 -25 21 -12 22 -6 69 9 69 5 0 12 18 16 40 9 54 22 51 23 -5z m60 20 c-2 -14 -7 -26 -13 -26 -5 0 -11 12 -13 26 -2 18 1 25 13 25 12 0 15 -7 13 -25z m768 -10 c7 -27 -18 -56 -63 -75 -26 -11 -30 -25 -8 -34 19 -7 19 -21 -2 -67 -21 -45 -53 -53 -53 -15 0 13 6 26 13 29 9 3 9 7 0 17 -9 10 -17 7 -37 -15 -14 -15 -26 -32 -26 -38 0 -5 -7 -4 -15 3 -8 7 -15 21 -15 31 0 23 -8 24 -31 3 -16 -15 -16 -18 1 -56 12 -28 29 -45 50 -54 31 -13 33 -34 4 -34 -26 0 -27 -29 0 -61 16 -18 26 -43 26 -61 0 -25 3 -29 19 -25 14 3 22 -5 34 -32 19 -45 28 -86 30 -130 2 -37 27 -57 27 -22 0 21 24 29 34 12 9 -14 -4 -41 -19 -41 -33 0 -59 -93 -36 -129 7 -11 13 -7 25 17 9 17 13 38 10 46 -4 11 0 16 15 16 24 0 27 -20 9 -51 -11 -17 -10 -22 5 -30 9 -6 17 -19 17 -29 0 -26 -38 -52 -60 -40 -9 5 -22 5 -31 -1 -23 -14 -524 -12 -537 4 -22 27 -42 368 -24 410 6 16 12 44 12 63 0 18 5 36 10 39 13 8 45 59 90 140 18 33 38 65 46 71 8 6 14 23 14 38 0 28 24 36 34 11 8 -21 24 -19 31 5 3 11 11 20 18 20 6 0 25 14 43 31 44 43 74 34 74 -22 0 -46 24 -64 46 -34 7 9 20 15 28 12 9 -4 18 5 27 25 11 28 14 29 25 13 12 -16 16 -14 53 24 46 47 78 53 87 16z m-918 -51 c-14 -29 -28 -22 -28 15 0 36 11 47 27 26 8 -13 9 -23 1 -41z m714 21 c0 -5 -5 -11 -11 -13 -6 -2 -11 4 -11 13 0 9 5 15 11 13 6 -2 11 -8 11 -13z m1085 -101 c-9 -9 -28 6 -21 18 4 6 10 6 17 -1 6 -6 8 -13 4 -17z m58 6 c0 -7 -6 -15 -12 -17 -8 -3 -13 4 -13 17 0 13 5 20 13 18 6 -3 12 -11 12 -18z m-55 -55 c0 -7 11 -16 25 -19 35 -9 42 -33 16 -57 -11 -11 -21 -26 -21 -34 0 -8 -8 -18 -17 -24 -17 -9 -17 -10 0 -29 16 -18 16 -20 -2 -36 -18 -16 -19 -16 -25 9 -4 16 -13 25 -26 25 -11 0 -20 7 -20 15 0 10 10 15 30 15 25 0 30 4 30 23 0 13 -9 32 -20 42 -24 22 -26 58 -4 79 17 17 34 13 34 -9z m-2610 -4 c0 -9 -23 -21 -40 -21 -4 0 -10 7 -14 15 -4 11 2 15 24 15 17 0 30 -4 30 -9z m-122 -47 c-11 -24 -13 -25 -25 -8 -19 26 -16 34 12 34 23 0 24 -2 13 -26z m82 1 c0 -9 11 -20 25 -25 30 -11 31 -23 7 -47 -11 -10 -22 -26 -25 -36 -9 -24 -27 -12 -27 17 0 13 -7 29 -15 36 -20 17 -19 47 3 59 24 14 32 13 32 -4z m963 -4 c4 -4 -4 -22 -18 -41 -23 -31 -25 -32 -25 -11 0 14 -7 25 -20 28 -11 3 -20 14 -20 25 0 16 5 18 38 12 20 -3 40 -9 45 -13z m687 -46 c0 -8 -7 -15 -15 -15 -8 0 -15 7 -15 15 0 8 7 15 15 15 8 0 15 -7 15 -15z m70 -15 c0 -11 7 -20 15 -20 27 0 27 -28 0 -64 -19 -25 -24 -41 -20 -59 4 -14 2 -28 -4 -31 -6 -4 -11 -3 -11 3 0 6 -9 19 -21 30 l-21 19 21 7 c25 8 27 32 5 63 -14 21 -14 25 0 47 20 30 36 32 36 5z m-1712 -93 c3 -13 -3 -17 -27 -17 -20 0 -31 5 -31 14 0 29 53 32 58 3z m-1050 -771 l3 -149 -28 -29 c-23 -24 -34 -28 -83 -28 -51 0 -58 3 -79 30 -30 41 -25 84 9 88 19 2 29 -5 42 -28 20 -34 43 -39 58 -11 5 11 10 73 10 138 0 125 7 146 45 141 19 -3 20 -11 23 -152z m717 -26 l0 -175 -23 -3 c-13 -2 -30 2 -39 10 -13 10 -17 10 -20 1 -3 -8 -23 -13 -49 -13 -38 0 -50 5 -75 32 -26 29 -29 39 -29 99 0 63 2 67 38 103 38 38 60 42 115 21 15 -6 17 -1 17 42 0 57 5 65 40 61 l25 -3 0 -175z m149 171 c4 -5 -7 -21 -24 -34 -34 -29 -37 -39 -15 -57 13 -11 15 -35 13 -134 l-3 -121 -30 0 -30 0 2 163 c1 111 5 167 13 177 14 16 66 20 74 6z m657 -14 c29 -19 34 -30 37 -66 2 -29 -2 -49 -13 -61 -15 -16 -14 -20 15 -51 35 -38 36 -48 14 -91 -32 -62 -47 -68 -169 -65 l-110 2 -3 164 c-2 112 1 168 9 177 8 10 37 14 99 14 74 0 92 -3 121 -23z m693 14 c4 -5 -7 -21 -24 -34 -37 -32 -38 -42 -2 -55 57 -21 61 -28 63 -147 l3 -110 -87 -2 c-103 -3 -127 10 -127 66 0 43 33 81 71 81 15 0 37 8 49 18 41 33 -2 58 -44 27 -23 -18 -62 -20 -71 -4 -4 6 14 30 39 54 30 28 46 51 46 67 0 13 5 29 12 36 14 14 64 16 72 3z m432 -16 c4 -15 1 -32 -6 -40 -10 -12 -10 -21 -1 -43 7 -17 11 -71 9 -137 l-3 -110 -30 0 -30 0 -3 118 c-2 73 2 125 9 138 8 15 8 24 0 32 -12 12 -15 50 -4 60 3 4 17 7 29 7 17 0 25 -7 30 -25z m779 19 c9 -4 21 -16 26 -28 5 -11 18 -34 29 -51 11 -16 30 -51 42 -77 36 -75 47 -63 50 55 3 101 3 102 28 102 l25 0 3 -178 2 -178 -37 3 c-36 3 -46 13 -83 83 -14 26 -31 53 -55 90 l-20 29 -5 -99 -5 -100 -30 0 -30 0 -3 164 c-3 188 4 207 63 185z m833 -27 c2 -16 -1 -34 -7 -40 -6 -8 -6 -18 -1 -27 6 -8 10 -70 10 -137 l0 -123 -31 0 -30 0 2 148 c1 82 -1 153 -5 160 -12 20 13 54 37 50 16 -2 23 -11 25 -31z m930 -149 l2 -178 -30 0 -30 0 0 173 c0 96 3 177 7 181 4 4 16 6 28 4 19 -3 20 -10 23 -180z m-3208 121 c0 -17 6 -32 15 -35 8 -4 15 -16 15 -29 0 -12 -7 -28 -15 -35 -10 -9 -15 -31 -15 -72 0 -49 4 -63 22 -77 32 -27 18 -51 -31 -51 -54 0 -71 28 -71 117 0 45 -5 76 -15 90 -14 19 -13 25 7 64 22 41 63 73 80 63 4 -3 8 -19 8 -35z m-1759 -44 c40 -21 49 -50 49 -161 l0 -94 -30 0 c-16 0 -30 5 -30 10 0 6 -7 10 -15 10 -8 0 -15 -4 -15 -10 0 -5 -22 -10 -49 -10 -56 0 -81 22 -81 73 0 35 40 77 73 77 31 0 73 33 63 48 -10 17 -41 15 -56 -4 -19 -22 -64 -14 -68 12 -2 15 7 28 30 43 39 25 88 27 129 6z m233 9 c9 -3 16 -16 16 -28 0 -21 -18 -36 -62 -50 -14 -4 -18 -20 -20 -93 l-3 -88 -35 0 -35 0 -3 105 c-4 140 0 154 41 146 18 -3 39 -1 47 4 17 11 32 12 54 4z m631 -18 c29 -23 29 -24 30 -132 l0 -109 -32 -3 -33 -3 0 86 c0 120 -25 157 -71 103 -15 -18 -18 -40 -19 -105 l0 -83 -30 0 -30 0 0 130 c0 124 1 130 20 130 11 0 29 -6 40 -12 16 -10 23 -10 37 5 24 23 52 21 88 -7z m707 6 c50 -33 68 -66 68 -125 0 -48 -4 -58 -35 -90 -32 -33 -41 -37 -88 -37 -72 1 -107 30 -118 98 -8 55 -3 86 21 117 40 53 104 69 152 37z m616 1 c26 23 52 21 87 -7 l30 -24 0 -109 0 -108 -32 -3 -33 -3 0 86 c0 120 -25 157 -71 103 -15 -18 -18 -40 -19 -105 l0 -83 -30 0 -30 0 0 129 c0 141 4 150 52 123 25 -14 29 -14 46 1z m462 -2 c28 -14 35 -25 35 -47 0 -36 -33 -44 -60 -14 -24 27 -39 25 -64 -6 -25 -32 -27 -66 -5 -99 20 -31 57 -32 76 -3 14 20 18 21 42 10 22 -10 26 -17 20 -34 -12 -39 -45 -57 -102 -58 -46 0 -58 4 -83 29 -26 27 -29 35 -29 98 1 72 10 91 60 126 32 22 67 22 110 -2z m258 -1 c85 -52 96 -163 22 -227 -33 -30 -124 -32 -157 -4 -13 11 -23 24 -23 29 0 5 -7 15 -15 22 -22 18 -19 86 5 126 25 39 76 74 110 74 14 0 40 -9 58 -20z m733 -9 c31 -31 29 -22 33 -208 1 -22 -4 -29 -22 -31 -13 -2 -30 2 -39 10 -13 10 -17 10 -20 1 -3 -8 -23 -13 -53 -13 -41 0 -52 4 -69 26 -25 32 -26 46 -6 84 10 18 26 32 43 35 62 13 77 21 80 43 3 18 -1 22 -21 22 -14 0 -30 -7 -37 -15 -7 -8 -23 -15 -36 -15 -38 0 -32 43 9 69 48 31 102 28 138 -8z m244 9 c38 -24 50 -47 34 -66 -16 -20 -43 -17 -64 6 -24 26 -39 25 -59 -5 -31 -47 -12 -125 31 -125 13 0 26 6 29 14 8 20 31 27 60 20 32 -8 30 -26 -7 -63 -26 -27 -38 -31 -84 -31 -48 0 -56 3 -84 35 -27 31 -31 43 -31 91 0 57 23 114 46 114 6 0 17 7 24 15 17 21 67 19 105 -5z m384 0 c86 -43 94 -164 16 -232 -31 -27 -122 -24 -156 5 -64 55 -57 167 14 218 47 34 74 36 126 9z m294 0 c36 -29 49 -75 42 -161 -6 -82 -12 -92 -46 -87 -23 3 -24 8 -30 94 -6 93 -12 114 -32 114 -34 -1 -42 -20 -47 -112 l-5 -93 -35 0 -35 0 -3 105 c-3 129 1 150 31 150 13 0 28 -5 34 -11 8 -8 17 -7 34 5 31 21 61 20 92 -4z m259 -3 c25 -21 26 -27 30 -133 l3 -111 -90 -1 c-105 -1 -125 10 -125 66 0 42 32 82 66 82 36 0 75 22 72 39 -4 22 -42 26 -58 6 -7 -8 -25 -15 -41 -15 -39 0 -39 30 2 64 40 34 102 35 141 3z"/> <path d="M2335 5080 c-17 -7 -15 -9 13 -9 17 -1 32 4 32 9 0 12 -17 12 -45 0z"/> <path d="M5450 4474 c0 -17 22 -14 28 4 2 7 -3 12 -12 12 -9 0 -16 -7 -16 -16z"/> <path d="M2816 3974 c-3 -8 -3 -27 0 -41 8 -31 24 -12 24 30 0 29 -14 36 -24 11z"/> <path d="M2877 3223 c-11 -10 -8 -51 4 -58 13 -9 15 -7 22 33 6 31 -8 44 -26 25z"/> <path d="M1486 2545 c-33 -51 -12 -125 36 -125 20 0 27 8 38 40 12 35 11 45 -3 75 -20 42 -48 46 -71 10z"/> <path d="M2298 2620 c-3 -16 0 -34 6 -40 16 -16 72 -11 97 9 23 19 24 19 5 40 -14 15 -31 21 -61 21 -40 0 -43 -2 -47 -30z"/> <path d="M2298 2498 c-2 -7 -2 -26 1 -43 5 -25 12 -31 37 -33 16 -2 43 2 58 8 23 8 27 15 24 42 -3 33 -4 33 -59 36 -40 2 -58 -1 -61 -10z"/> <path d="M3044 2457 l-28 -24 23 -12 c18 -10 27 -9 47 4 27 18 29 48 3 53 -9 2 -29 -8 -45 -21z"/> <path d="M1052 2458 c-29 -29 -1 -59 37 -38 29 15 28 50 -2 50 -13 0 -28 -5 -35 -12z"/> <path d="M2623 2546 c-43 -45 -20 -126 36 -126 51 0 70 89 28 128 -29 28 -37 27 -64 -2z"/> <path d="M3961 2544 c-38 -48 -21 -124 27 -124 40 0 52 17 52 71 0 38 -5 51 -22 63 -30 21 -33 20 -57 -10z"/> <path d="M4689 2461 c-14 -11 -20 -24 -16 -34 8 -21 31 -22 51 -1 35 35 3 66 -35 35z"/> <path d="M5322 2547 c-26 -28 -30 -88 -6 -111 26 -26 61 -20 79 14 18 34 12 69 -16 99 -25 26 -31 26 -57 -2z"/> <path d="M5864 2457 l-28 -24 23 -12 c18 -10 27 -9 47 4 27 18 29 48 3 53 -9 2 -29 -8 -45 -21z"/> <path d="M530 1958 l0 -133 31 -32 c28 -31 34 -33 97 -33 111 1 135 42 130 225 -3 99 -3 100 -28 100 l-25 0 -5 -123 c-5 -116 -7 -125 -29 -144 -27 -21 -63 -18 -93 9 -15 14 -18 35 -18 140 l0 123 -30 0 -30 0 0 -132z"/> <path d="M1144 2075 c-4 -9 0 -23 9 -32 21 -21 49 -9 45 19 -4 28 -45 38 -54 13z"/> <path d="M2227 2084 c-14 -15 -6 -43 14 -49 25 -8 42 6 37 31 -3 19 -38 31 -51 18z"/> <path d="M2510 2036 c0 -42 -4 -56 -14 -56 -8 0 -18 5 -21 10 -8 13 -61 13 -86 0 -10 -6 -28 -29 -40 -52 -26 -51 -21 -96 16 -144 22 -29 32 -34 67 -34 27 0 45 6 54 18 12 16 13 16 19 0 5 -12 18 -18 36 -18 l29 0 -2 163 -3 162 -27 3 c-28 3 -28 2 -28 -52z m-25 -92 c21 -13 25 -24 25 -63 0 -74 -49 -104 -97 -59 -30 28 -31 83 -1 115 25 27 40 29 73 7z"/> <path d="M3050 2036 c0 -42 -4 -56 -14 -56 -8 0 -18 5 -21 10 -9 15 -68 12 -91 -5 -27 -18 -54 -75 -54 -113 0 -16 13 -47 30 -70 28 -39 34 -42 75 -42 25 0 45 5 45 10 0 6 7 10 15 10 8 0 15 -5 15 -11 0 -6 12 -9 28 -7 l27 3 0 160 0 160 -27 3 c-28 3 -28 2 -28 -52z m-23 -98 c33 -31 33 -99 -2 -122 -33 -22 -53 -20 -76 7 -25 31 -24 85 3 114 27 29 45 29 75 1z"/> <path d="M3467 2083 c-4 -3 -7 -29 -7 -56 0 -43 -2 -48 -17 -41 -47 20 -89 16 -121 -11 -30 -25 -32 -31 -32 -94 0 -61 3 -70 28 -94 21 -20 38 -27 68 -27 22 0 45 5 52 12 9 9 15 9 24 0 15 -15 48 -16 48 -2 3 97 0 302 -5 310 -7 11 -28 13 -38 3z m-28 -149 c25 -32 27 -64 6 -104 -16 -32 -41 -38 -76 -20 -26 15 -28 116 -1 136 26 20 49 17 71 -12z"/> <path d="M3975 2078 c-3 -8 -4 -81 -3 -163 l3 -150 108 -3 c108 -3 108 -3 105 20 -3 21 -9 23 -78 28 l-75 5 -5 135 c-5 131 -6 135 -28 138 -12 2 -24 -3 -27 -10z"/> <path d="M4640 1925 l0 -166 28 3 c26 3 27 5 30 76 l3 72 58 0 c74 0 84 -11 79 -87 -3 -57 -2 -58 25 -61 15 -2 27 1 27 7 0 6 1 77 1 159 0 153 -5 174 -44 159 -13 -5 -15 -16 -11 -54 8 -65 -13 -85 -82 -81 l-49 3 -5 65 c-5 62 -6 65 -32 68 l-28 3 0 -166z"/> <path d="M5225 2078 c-3 -8 -4 -81 -3 -163 3 -137 5 -150 22 -153 10 -2 22 2 27 10 7 10 12 11 29 1 11 -7 37 -13 59 -13 32 0 43 6 65 34 21 28 26 46 26 88 0 48 -4 58 -33 86 -35 34 -91 44 -114 21 -21 -21 -35 2 -31 50 3 41 1 46 -20 49 -12 2 -24 -3 -27 -10z m140 -134 c21 -13 25 -24 25 -62 0 -74 -53 -108 -96 -61 -36 40 -13 139 33 139 7 0 25 -7 38 -16z"/> <path d="M867 1993 c-4 -3 -7 -57 -7 -120 l0 -113 30 0 30 0 0 84 c0 80 1 85 27 101 45 30 57 12 63 -91 5 -88 5 -89 33 -92 l27 -3 0 105 c0 97 -2 106 -22 120 -29 20 -82 20 -98 1 -12 -14 -15 -14 -36 0 -25 16 -37 19 -47 8z"/> <path d="M1155 1989 c-4 -6 -7 -58 -8 -117 0 -107 0 -107 24 -107 24 0 24 1 27 109 2 81 -1 112 -10 118 -18 11 -26 10 -33 -3z"/> <path d="M1254 1986 c-3 -9 1 -27 10 -41 9 -13 16 -31 16 -39 0 -8 6 -27 14 -43 8 -15 21 -45 30 -65 12 -30 21 -38 41 -38 16 0 28 7 31 18 7 20 31 75 50 115 8 16 14 36 14 46 0 9 5 22 12 29 9 9 9 15 1 23 -18 18 -42 3 -59 -38 -47 -111 -62 -124 -75 -67 -17 70 -37 109 -58 112 -12 2 -24 -3 -27 -12z"/> <path d="M1551 1974 c-29 -24 -31 -30 -31 -96 0 -94 20 -118 100 -117 55 0 100 22 100 48 0 16 -42 13 -68 -5 -25 -18 -58 -11 -71 15 -16 29 2 40 74 43 70 3 70 3 73 33 2 23 -5 39 -31 68 -29 31 -41 37 -75 37 -29 0 -49 -7 -71 -26z m102 -29 c10 -7 17 -22 15 -32 -5 -27 -81 -26 -86 1 -4 19 21 46 42 46 6 0 19 -7 29 -15z"/> <path d="M1788 1890 c-2 -61 -1 -115 0 -120 2 -6 15 -10 28 -10 22 0 24 4 24 44 0 24 3 64 6 90 6 39 10 46 29 46 25 0 60 34 50 49 -8 14 -41 14 -67 0 -14 -8 -23 -8 -31 0 -29 29 -36 11 -39 -99z"/> <path d="M1986 1984 c-31 -30 -39 -55 -27 -78 13 -23 71 -53 111 -58 30 -4 34 -35 7 -52 -13 -8 -24 -7 -48 7 -61 34 -107 13 -54 -26 19 -14 40 -17 86 -15 53 3 65 7 82 29 40 55 3 103 -93 118 -27 5 -36 11 -38 29 -3 19 1 22 32 22 19 0 38 -4 41 -10 8 -14 65 -13 65 1 0 6 -10 19 -22 30 -30 24 -119 26 -142 3z"/> <path d="M2232 1992 c-9 -6 -12 -37 -10 -118 3 -108 3 -109 27 -109 24 0 24 0 24 107 -1 125 -7 141 -41 120z"/> <path d="M2653 1981 c-41 -35 -17 -61 32 -35 36 19 49 18 70 -6 17 -19 17 -20 -1 -26 -11 -3 -33 -12 -51 -20 -17 -8 -38 -14 -47 -14 -25 0 -41 -44 -30 -82 9 -31 12 -33 63 -36 29 -2 58 2 65 7 9 7 16 7 23 0 6 -6 19 -9 29 -7 16 3 18 13 16 93 -4 118 -17 139 -93 142 -41 2 -59 -2 -76 -16z m113 -125 c8 -20 -25 -66 -46 -66 -19 0 -50 25 -50 40 0 12 50 39 73 40 10 0 20 -6 23 -14z"/> <path d="M3615 1982 c-69 -58 -74 -132 -12 -199 37 -41 167 -23 167 23 0 19 -47 18 -66 -1 -9 -8 -21 -15 -28 -15 -19 0 -59 47 -51 59 3 6 35 11 69 11 73 0 91 13 80 57 -12 49 -52 83 -98 83 -24 -1 -50 -8 -61 -18z m89 -38 c9 -8 16 -19 16 -23 0 -31 -83 -44 -94 -15 -8 20 20 54 45 54 10 0 25 -7 33 -16z"/> <path d="M4272 1984 c-23 -16 -29 -39 -12 -49 5 -3 26 2 46 11 26 13 41 15 53 7 29 -18 17 -36 -42 -58 -31 -11 -65 -31 -74 -44 -14 -21 -14 -26 1 -57 14 -31 19 -34 61 -34 26 0 55 5 65 10 13 7 21 7 25 0 3 -5 14 -10 24 -10 16 0 18 9 14 103 -4 87 -8 105 -25 120 -26 22 -105 23 -136 1z m108 -133 c0 -9 -7 -27 -16 -39 -19 -28 -51 -26 -71 4 -13 20 -11 23 24 41 42 22 63 20 63 -6z"/> <path d="M4992 1984 c-42 -29 -23 -62 22 -38 39 19 63 18 76 -6 12 -22 10 -23 -80 -54 -19 -7 -42 -25 -50 -39 -13 -24 -13 -29 2 -54 14 -23 25 -29 62 -31 25 -2 54 2 65 7 14 8 22 8 26 0 4 -5 14 -9 23 -7 15 3 17 17 14 103 -3 86 -6 102 -24 118 -26 22 -105 23 -136 1z m108 -132 c0 -25 -28 -62 -47 -62 -18 0 -53 28 -53 41 0 12 52 38 78 39 15 0 22 -6 22 -18z"/> <path d="M5532 1984 c-42 -29 -23 -62 22 -38 39 19 63 18 76 -6 9 -17 6 -21 -23 -34 -19 -7 -45 -17 -58 -21 -57 -17 -73 -55 -43 -100 14 -21 24 -25 63 -25 25 0 53 4 61 10 9 5 19 5 27 -2 30 -24 37 -3 35 98 -3 86 -6 101 -24 117 -26 22 -105 23 -136 1z m101 -128 c8 -19 -16 -60 -36 -64 -18 -4 -57 23 -57 39 0 11 51 38 71 39 9 0 19 -6 22 -14z"/> <path d="M5772 1992 c-9 -6 -12 -37 -10 -118 3 -108 3 -109 27 -109 23 0 24 3 26 78 3 81 19 117 55 117 34 0 49 -32 52 -115 3 -78 4 -80 28 -80 24 0 25 1 23 80 -1 44 -2 88 -3 98 -1 48 -83 76 -122 40 -17 -15 -19 -15 -36 0 -21 19 -22 20 -40 9z"/> <path d="M6064 1977 c-22 -19 -24 -25 -12 -34 11 -10 21 -9 43 3 38 19 69 15 73 -11 2 -17 -8 -24 -55 -40 -65 -22 -82 -38 -83 -76 0 -47 27 -60 121 -56 l83 3 -3 99 c-2 86 -5 100 -24 116 -33 27 -109 25 -143 -4z m104 -131 c6 -49 -38 -74 -72 -40 -23 22 -20 30 17 52 40 25 51 23 55 -12z"/> </g> </svg> 