<?xml version="1.0" standalone="no"?>
<!DOCTYPE svg PUBLIC "-//W3C//DTD SVG 20010904//EN"
 "http://www.w3.org/TR/2001/REC-SVG-20010904/DTD/svg10.dtd">
<svg version="1.0" xmlns="http://www.w3.org/2000/svg"
 width="750.000000pt" height="750.000000pt" viewBox="0 0 750.000000 750.000000"
 preserveAspectRatio="xMidYMid meet">

<g transform="translate(0.000000,750.000000) scale(0.100000,-0.100000)"
fill="#000000" stroke="none">
<path d="M3510 6279 c-25 -5 -96 -13 -159 -19 -63 -5 -119 -14 -125 -20 -5 -5
-29 -10 -52 -10 -53 0 -105 -10 -99 -20 2 -4 -25 -10 -61 -13 -37 -4 -71 -11
-78 -16 -6 -5 -29 -12 -51 -16 -69 -12 -325 -102 -445 -156 -25 -12 -61 -28
-80 -36 -19 -9 -42 -20 -50 -25 -8 -4 -27 -13 -42 -19 -16 -6 -28 -15 -28 -20
0 -5 -4 -9 -9 -9 -14 0 -52 -18 -86 -40 -16 -11 -42 -25 -57 -31 -16 -6 -28
-15 -28 -19 0 -4 -13 -13 -30 -19 -16 -5 -30 -15 -30 -20 0 -6 -6 -11 -14 -11
-8 0 -21 -6 -28 -13 -7 -7 -29 -22 -48 -34 -171 -105 -508 -414 -660 -604 -14
-17 -31 -37 -37 -45 -7 -7 -13 -15 -13 -18 0 -2 -13 -20 -30 -38 -16 -18 -30
-38 -30 -45 0 -7 -9 -21 -20 -30 -11 -10 -20 -23 -20 -29 0 -7 -7 -14 -15 -18
-8 -3 -15 -17 -15 -31 0 -16 -6 -25 -15 -25 -8 0 -15 -7 -15 -15 0 -9 -6 -18
-14 -21 -8 -3 -18 -18 -21 -34 -3 -16 -13 -31 -21 -34 -8 -3 -14 -14 -14 -25
0 -11 -4 -21 -8 -23 -12 -5 -62 -95 -62 -112 0 -8 -6 -21 -14 -28 -7 -8 -17
-29 -21 -46 -3 -18 -10 -30 -15 -27 -4 3 -11 -13 -15 -35 -4 -22 -10 -38 -15
-35 -11 7 -20 -20 -21 -68 0 -30 -3 -36 -8 -23 -7 18 -8 18 -14 2 -4 -10 -7
-33 -7 -52 0 -21 -5 -33 -12 -31 -7 1 -17 -18 -23 -43 -6 -25 -14 -52 -18 -60
-12 -30 -39 -136 -50 -200 -6 -36 -14 -68 -19 -71 -4 -3 -11 -48 -14 -100 -4
-52 -12 -97 -18 -101 -15 -10 -26 -1199 -11 -1204 6 -2 1446 -3 3200 -2 l3190
3 3 535 c1 326 -2 560 -8 600 -6 36 -16 111 -24 168 -8 56 -19 108 -24 115 -5
7 -12 38 -14 70 -3 33 -9 62 -15 65 -6 4 -13 33 -17 65 -4 31 -11 57 -16 57
-5 0 -12 17 -15 38 -3 20 -13 49 -21 64 -8 14 -14 33 -14 42 0 9 -9 33 -20 53
-11 21 -20 45 -20 54 0 9 -7 22 -15 29 -8 7 -15 23 -15 36 0 12 -6 29 -14 36
-7 8 -17 29 -21 47 -4 21 -10 29 -15 22 -4 -8 -10 4 -14 29 -4 23 -11 38 -16
35 -6 -4 -13 7 -16 24 -4 16 -12 32 -20 35 -8 3 -14 14 -14 25 0 11 -5 23 -11
27 -6 3 -18 21 -26 38 -21 46 -38 74 -56 94 -10 10 -17 22 -17 26 0 7 -14 25
-41 54 -9 9 -20 27 -23 40 -4 12 -12 20 -17 17 -5 -4 -9 3 -9 14 0 12 -3 21
-8 21 -4 0 -34 35 -67 77 -55 71 -365 393 -378 393 -3 0 -19 12 -34 26 -15 15
-66 55 -113 90 -47 35 -92 70 -101 79 -9 8 -21 15 -27 15 -7 0 -12 4 -12 10 0
5 -11 12 -24 16 -14 3 -27 12 -30 20 -3 8 -15 14 -26 14 -11 0 -20 6 -20 14 0
8 -13 17 -30 21 -16 4 -30 10 -30 15 0 5 -25 21 -55 36 -30 16 -55 32 -55 36
0 4 -6 8 -13 8 -7 0 -29 9 -50 20 -20 11 -44 20 -52 20 -8 0 -15 6 -15 14 0 8
-15 17 -35 20 -19 4 -35 11 -35 16 0 4 -15 12 -32 15 -18 4 -36 12 -39 17 -3
5 -25 12 -47 15 -23 3 -40 10 -39 16 1 6 -11 14 -28 18 -16 4 -66 21 -110 37
-44 17 -107 38 -140 47 -33 9 -81 23 -107 31 -27 8 -69 17 -95 21 -26 3 -58
12 -73 20 -14 7 -53 13 -87 13 -36 0 -63 5 -65 11 -2 7 -49 15 -113 20 -61 5
-135 13 -165 18 -69 12 -509 12 -570 0z m635 -134 c151 -20 335 -52 400 -70
28 -7 69 -16 92 -20 24 -4 45 -10 48 -15 3 -4 25 -11 50 -14 24 -4 47 -11 50
-16 3 -4 24 -11 47 -15 23 -4 48 -14 56 -21 7 -8 26 -14 41 -14 16 0 34 -7 41
-15 7 -8 21 -15 32 -15 11 0 32 -7 46 -15 23 -12 134 -64 207 -96 11 -5 27
-13 35 -18 8 -5 22 -12 30 -15 8 -4 29 -15 45 -26 17 -11 40 -24 53 -30 13 -5
30 -17 38 -25 9 -8 22 -15 30 -15 8 0 14 -4 14 -9 0 -5 10 -13 22 -17 12 -3
26 -11 32 -16 6 -5 49 -36 96 -68 47 -32 92 -66 101 -74 9 -9 19 -16 23 -16 4
0 20 -13 36 -30 16 -16 32 -30 35 -30 3 0 13 -8 23 -17 49 -47 105 -93 113
-93 5 0 9 -7 9 -15 0 -8 7 -15 15 -15 8 0 15 -3 15 -8 0 -4 30 -39 68 -79 96
-102 142 -155 142 -165 0 -4 4 -8 8 -8 5 0 30 -30 57 -67 27 -38 53 -69 57
-71 5 -2 8 -10 8 -18 0 -8 6 -17 14 -20 8 -3 19 -19 25 -35 5 -16 15 -29 20
-29 6 0 11 -9 11 -20 0 -11 7 -20 15 -20 8 0 15 -9 15 -20 0 -11 7 -23 15 -26
8 -4 15 -14 15 -24 0 -9 9 -27 20 -40 11 -13 20 -29 20 -37 0 -7 7 -16 15 -19
8 -4 15 -15 15 -26 0 -11 9 -31 20 -45 11 -14 20 -34 20 -43 0 -10 6 -23 14
-29 7 -6 16 -25 20 -42 3 -17 10 -28 16 -24 6 3 10 -4 10 -17 0 -34 11 -68 20
-63 4 3 11 -15 15 -40 3 -25 10 -43 15 -40 4 3 11 -13 15 -36 4 -22 13 -53 21
-67 8 -15 14 -37 14 -49 0 -12 6 -37 14 -55 20 -47 56 -202 56 -243 0 -19 7
-54 15 -79 11 -33 16 -99 18 -261 l2 -216 -750 0 c-412 -1 -755 0 -761 0 -16
1 -26 108 -27 261 0 175 4 194 52 256 23 29 44 67 48 84 3 18 12 34 19 37 8 3
14 14 14 24 0 10 7 19 15 19 9 0 15 9 15 23 0 13 7 38 16 55 11 23 16 67 17
159 2 125 2 127 26 133 30 7 44 39 25 60 -24 28 -6 72 20 51 8 -7 20 -10 27
-6 6 4 28 9 48 12 95 10 102 21 37 51 -24 12 -46 27 -49 35 -3 8 -25 18 -49
22 -59 10 -117 65 -68 65 13 0 20 7 20 20 0 15 5 19 23 16 12 -3 25 -5 28 -5
4 -1 10 -12 13 -26 7 -27 36 -35 36 -10 0 8 7 15 15 15 20 0 19 16 -1 24 -11
4 -14 14 -9 34 4 20 1 33 -10 42 -8 7 -15 19 -15 26 0 8 -10 14 -22 14 -21 1
-21 2 -5 11 9 5 17 17 17 24 0 23 12 18 46 -21 32 -38 54 -39 54 -3 0 26 17
24 25 -2 5 -14 2 -25 -6 -30 -10 -6 -8 -9 8 -9 12 0 27 -9 33 -20 15 -27 28
-25 36 5 3 14 14 30 24 35 23 12 15 57 -11 65 -21 7 -22 10 -13 42 4 16 15 23
38 25 23 2 32 8 34 25 4 24 -26 72 -44 73 -5 0 -29 9 -52 20 -57 28 -56 50 3
50 31 0 47 5 54 18 8 14 12 15 22 5 11 -11 10 -13 -4 -13 -10 0 -17 -8 -17
-20 0 -30 39 -25 77 10 35 33 48 37 56 17 2 -7 17 -13 31 -15 22 -1 29 4 38
28 8 25 16 30 41 30 18 0 39 5 47 10 26 17 -8 30 -81 30 -50 0 -68 4 -73 15
-4 10 -20 15 -50 15 -30 0 -46 -5 -50 -15 -9 -24 -72 -19 -90 7 -20 28 -20 38
-1 38 8 0 15 -7 15 -15 0 -8 9 -15 20 -15 11 0 23 7 26 15 4 10 21 15 53 15
56 0 67 7 76 43 l7 27 -83 0 c-48 0 -101 -7 -124 -15 -22 -8 -57 -14 -77 -15
-20 0 -44 -7 -53 -16 -9 -9 -23 -13 -33 -9 -16 6 -16 7 2 20 30 22 13 49 -25
41 -18 -3 -47 -6 -66 -6 -20 0 -32 -4 -28 -10 3 -5 2 -10 -3 -10 -10 0 -24 41
-17 48 2 2 26 7 52 10 26 2 57 11 68 18 11 8 39 14 62 14 30 0 43 4 43 14 0 7
13 16 29 19 31 7 51 41 33 59 -5 5 -28 12 -51 15 -37 5 -41 4 -41 -16 0 -12
-6 -21 -15 -21 -8 0 -15 7 -15 15 0 12 -14 15 -69 15 -49 0 -74 -5 -85 -15
-16 -17 -146 -22 -146 -6 0 5 7 22 15 37 23 44 19 54 -20 54 -24 0 -35 -5 -35
-15 0 -10 -10 -15 -29 -15 -20 0 -30 -6 -34 -19 -4 -15 -10 -18 -28 -14 -13 4
-29 13 -35 22 -10 13 -14 13 -28 2 -9 -7 -16 -23 -16 -35 -1 -35 -35 -66 -82
-75 l-43 -7 63 -8 c44 -5 62 -11 62 -21 0 -8 7 -15 15 -15 17 0 39 -46 29 -61
-3 -5 -34 -9 -69 -9 -55 0 -66 3 -76 21 -16 30 -32 10 -31 -41 1 -26 -3 -40
-10 -38 -13 5 -19 41 -18 111 1 36 -3 47 -14 47 -9 0 -16 7 -16 15 0 9 -11 20
-24 25 -18 6 -23 14 -19 29 4 15 -1 23 -19 30 -21 8 -24 14 -20 41 4 25 1 31
-9 28 -8 -3 -13 -17 -12 -33 2 -31 -2 -31 -127 -1 l-65 15 -27 -31 c-16 -17
-28 -34 -28 -38 0 -3 16 -14 35 -23 18 -9 42 -28 51 -42 9 -14 25 -25 36 -25
10 0 17 -4 14 -9 -8 -12 18 -21 60 -21 19 0 34 -4 34 -8 0 -5 19 -12 43 -18
34 -7 41 -13 39 -29 -5 -26 2 -22 -82 -44 l-73 -20 -20 26 c-18 22 -25 24 -66
19 -34 -4 -40 -3 -23 4 22 9 29 25 15 33 -5 2 -41 8 -81 11 -69 7 -73 6 -82
-16 l-9 -23 -7 23 c-6 21 -10 22 -58 16 -28 -4 -53 -10 -56 -14 -3 -4 -23 -10
-44 -13 -45 -7 -59 -23 -45 -49 8 -15 13 -16 30 -5 14 9 21 9 27 1 4 -7 26
-17 50 -23 23 -7 42 -16 42 -21 0 -6 20 -10 45 -10 29 0 45 4 45 12 0 7 7 2
16 -10 16 -24 12 -42 -12 -42 -8 0 -14 -4 -14 -9 0 -4 -29 -11 -64 -13 -35 -3
-70 -9 -77 -14 -8 -5 -24 -7 -36 -6 -11 2 -24 -1 -27 -7 -4 -6 -13 -8 -20 -5
-14 6 -11 39 6 61 5 7 7 17 3 23 -9 15 -52 12 -59 -5 -3 -8 -14 -15 -25 -15
-11 0 -27 -8 -37 -17 -15 -16 -17 -16 -30 1 -14 20 -44 15 -44 -7 0 -9 -9 -12
-30 -9 -21 3 -30 10 -30 23 0 11 -6 19 -12 20 -10 0 -10 2 0 6 6 2 12 13 12
24 0 15 7 19 35 19 28 0 35 4 35 20 0 11 5 20 10 20 6 0 10 11 10 24 0 14 -4
28 -10 31 -5 3 -10 1 -10 -4 0 -6 -7 -11 -16 -11 -12 0 -15 7 -12 25 4 21 3
23 -9 13 -11 -9 -16 -9 -23 2 -5 7 -23 18 -41 24 -33 11 -59 40 -47 52 4 3 29
9 55 12 26 3 53 12 59 20 6 8 16 12 22 8 18 -11 14 -23 -8 -29 -21 -5 -27 -31
-11 -42 11 -6 61 15 61 27 0 4 7 8 15 8 8 0 15 7 15 15 0 20 48 20 88 -1 32
-16 52 -12 52 9 0 7 9 20 20 30 11 9 20 25 20 34 1 17 1 17 11 1 5 -10 16 -18
23 -18 19 0 26 33 10 48 -17 16 -106 16 -122 0 -9 -9 -15 -9 -24 1 -10 11 -10
14 0 18 23 9 12 25 -13 19 -14 -4 -25 -2 -25 4 0 5 -7 10 -16 10 -8 0 -13 -4
-10 -9 9 -15 -21 -21 -101 -21 -70 0 -75 1 -70 20 3 13 0 20 -8 20 -8 0 -17 5
-20 10 -4 6 7 10 24 10 21 0 31 -5 31 -15 0 -8 7 -15 15 -15 9 0 18 7 21 15 5
11 22 15 68 15 49 0 65 4 79 20 9 11 28 20 41 20 14 0 27 4 30 9 15 24 -214
32 -309 10 -27 -6 -71 -13 -97 -16 -32 -3 -48 -10 -48 -19 0 -9 -11 -14 -30
-14 -16 0 -30 5 -30 10 0 6 7 10 15 10 8 0 15 9 15 19 0 10 7 21 15 25 29 11
15 26 -24 26 -22 0 -44 -6 -51 -15 -17 -21 -140 -21 -140 0 0 8 14 17 37 21
20 4 48 13 62 20 14 8 38 14 53 14 33 0 59 10 53 20 -2 4 14 7 37 7 27 0 45 6
53 17 7 9 19 16 28 16 9 0 23 8 33 18 9 9 36 22 58 28 l41 11 -48 8 c-27 4
-51 14 -54 21 -3 9 -21 14 -49 14 -40 0 -44 -2 -44 -24 0 -37 -19 -42 -26 -7
-6 29 -34 45 -34 20 0 -8 -12 -10 -35 -6 -44 7 -135 -13 -135 -30 0 -9 -22
-13 -80 -13 -44 0 -80 4 -80 9 0 6 9 25 19 43 26 44 14 78 -28 78 -20 0 -30
-6 -34 -20 -7 -26 -27 -26 -34 0 -9 33 -28 17 -30 -25 -1 -21 -5 -40 -8 -43
-2 -3 -20 11 -39 32 -34 35 -36 36 -46 16 -6 -11 -17 -20 -25 -20 -8 0 -17
-12 -21 -27 -13 -58 -28 -83 -51 -83 -13 0 -23 -4 -23 -10 0 -5 16 -10 35 -10
23 0 35 -5 35 -13 0 -8 9 -22 20 -32 11 -10 20 -26 20 -35 0 -10 7 -23 15 -30
25 -20 7 -30 -56 -30 -46 0 -59 3 -59 15 0 22 -27 18 -33 -5 -7 -28 -26 -25
-37 6 -6 14 -14 22 -20 19 -16 -10 -12 -45 5 -45 9 0 15 -9 15 -25 0 -21 -5
-25 -30 -25 -20 0 -30 5 -30 15 0 8 4 15 9 15 6 0 3 12 -5 28 -19 37 -18 60 5
74 20 12 20 12 0 26 -10 7 -19 18 -19 23 0 20 -36 47 -65 51 -16 1 -28 8 -25
13 3 6 8 9 13 7 4 -1 7 6 7 17 0 19 -25 31 -67 31 -13 0 -23 4 -23 9 0 5 -19
12 -42 16 -24 4 -67 14 -97 22 -51 14 -57 14 -87 -2 -19 -10 -37 -30 -43 -47
-9 -26 -8 -30 17 -38 57 -21 77 -38 77 -67 1 -24 5 -29 30 -31 17 -2 33 -10
37 -17 4 -7 37 -16 73 -20 61 -6 145 -37 145 -53 0 -12 -61 -40 -102 -47 -21
-3 -38 -10 -38 -15 0 -6 -18 -10 -40 -10 -22 0 -39 3 -38 8 4 11 -35 52 -49
52 -7 0 -13 -7 -13 -15 0 -11 -10 -14 -40 -13 -24 1 -40 6 -40 13 0 8 10 10
25 7 20 -3 25 0 25 17 0 23 -35 31 -42 9 -2 -6 -10 -8 -17 -4 -9 6 -9 11 -1
21 8 10 -4 14 -62 17 -54 3 -75 1 -81 -9 -11 -18 -37 -17 -37 2 0 17 -16 20
-25 5 -4 -7 -26 -8 -58 -4 -48 7 -51 6 -38 -10 20 -24 5 -34 -53 -38 -44 -3
-50 -6 -57 -30 -9 -33 13 -45 44 -23 12 8 27 15 34 15 17 0 17 -27 1 -33 -7
-2 -9 -8 -5 -13 4 -5 12 -3 16 4 5 8 23 11 52 8 38 -3 44 -7 44 -27 0 -30 36
-37 71 -14 27 18 75 17 81 -2 2 -6 -5 -14 -16 -18 -24 -7 -28 -25 -6 -25 9 0
18 7 21 15 9 22 90 20 103 -2 9 -17 10 -17 29 0 17 16 20 16 32 2 11 -14 14
-14 24 1 9 12 24 14 64 11 30 -3 56 -7 59 -10 9 -10 -8 -27 -28 -27 -25 0 -25
-30 1 -37 32 -8 23 -20 -20 -27 -25 -4 -38 -11 -34 -17 3 -6 -3 -13 -15 -16
-12 -3 -21 -12 -21 -19 0 -8 -7 -14 -15 -14 -8 0 -15 7 -15 15 0 9 -7 18 -15
21 -25 10 -17 24 14 24 33 0 49 16 33 32 -15 15 -84 12 -96 -4 -6 -8 -24 -18
-41 -22 -16 -4 -46 -11 -65 -15 -19 -5 -30 -10 -25 -11 35 -9 66 -11 113 -10
40 1 52 -3 52 -14 0 -20 -167 -19 -174 1 -10 24 -25 13 -28 -19 -3 -38 -26
-46 -74 -27 -29 11 -29 11 -6 22 12 6 21 15 19 21 -5 17 -60 20 -72 4 -17 -23
-58 -48 -79 -48 -10 0 -24 7 -31 16 -10 14 -16 10 -43 -32 -37 -55 -40 -80
-12 -89 11 -4 28 -23 37 -43 9 -20 19 -40 21 -44 2 -5 -11 -8 -30 -8 -18 0
-42 -7 -52 -15 -22 -17 -46 -20 -46 -6 0 5 10 11 22 15 35 9 7 30 -29 22 -22
-5 -29 -12 -29 -29 1 -13 -5 -22 -14 -22 -15 0 -22 29 -21 93 1 20 -5 35 -14
38 -8 4 -15 12 -15 19 0 7 -9 15 -20 18 -15 4 -20 14 -20 37 0 17 -4 29 -9 25
-6 -3 -15 4 -22 17 -11 20 -13 20 -24 5 -13 -18 -71 -24 -77 -8 -1 4 -24 11
-50 15 -40 6 -49 4 -67 -15 -29 -31 -26 -44 14 -69 19 -12 35 -27 35 -33 1
-17 66 -44 123 -52 26 -4 47 -11 47 -15 0 -4 14 -10 32 -14 27 -5 30 -8 17
-20 -21 -19 -95 -46 -128 -46 -16 0 -36 6 -43 14 -8 7 -29 17 -46 21 -18 3
-32 10 -32 15 0 4 -26 13 -57 18 -47 8 -62 8 -81 -5 -22 -13 -24 -13 -29 6 -5
21 -33 30 -33 11 0 -5 -9 -10 -21 -10 -11 0 -33 -6 -47 -14 -15 -8 -40 -17
-55 -21 -32 -7 -31 -28 1 -33 12 -2 22 -8 22 -13 0 -5 16 -9 35 -9 22 0 41 -7
54 -21 19 -21 21 -21 60 -6 37 15 41 15 50 0 6 -11 20 -17 39 -15 23 2 31 -3
36 -20 6 -22 7 -22 20 -5 10 13 29 18 68 19 30 1 59 -1 65 -5 15 -9 4 -57 -13
-57 -8 0 -14 -7 -14 -16 0 -9 -9 -18 -20 -21 -11 -3 -20 -12 -20 -19 0 -22
-17 -16 -24 9 -10 38 -7 47 18 47 32 0 42 16 15 23 -24 6 -49 -1 -49 -14 0 -5
-13 -9 -29 -9 -39 0 -61 -9 -61 -26 0 -9 12 -14 35 -14 21 0 35 -5 35 -12 0
-9 -20 -13 -65 -14 -46 0 -70 -5 -83 -17 -10 -9 -24 -17 -31 -17 -30 0 -80
-33 -85 -56 -4 -13 -11 -24 -16 -24 -6 0 -10 -4 -10 -10 0 -5 10 -10 21 -10
12 0 27 -7 33 -16 11 -14 18 -14 57 -3 24 7 49 16 56 21 6 5 14 5 18 -2 3 -5
15 -10 26 -10 23 0 23 -1 -11 -52 -25 -37 -40 -48 -40 -28 0 6 -7 10 -15 10
-8 0 -15 -7 -15 -15 0 -9 -9 -15 -21 -15 -12 0 -19 -5 -16 -12 2 -7 9 -12 15
-11 6 2 14 -13 18 -32 6 -35 24 -49 24 -20 0 18 46 21 53 3 3 -8 9 -1 16 15 8
21 17 27 40 27 16 0 33 -4 36 -10 6 -9 52 13 65 31 3 4 17 10 31 14 23 6 27 3
31 -19 7 -37 -2 -76 -18 -76 -9 0 -14 -12 -14 -35 0 -20 -5 -35 -12 -35 -14 0
-58 -40 -58 -53 0 -5 -8 -16 -17 -23 -17 -13 -17 -15 0 -25 21 -12 22 -29 2
-29 -8 0 -15 -7 -15 -16 0 -9 -7 -22 -15 -28 -12 -9 -13 -15 -2 -36 17 -35 45
-38 53 -6 3 14 16 28 27 32 12 3 37 20 54 37 29 27 35 29 58 19 22 -10 25 -18
25 -62 0 -48 1 -50 29 -50 21 0 30 6 34 21 5 17 11 20 32 17 20 -4 26 -1 31
18 13 50 44 50 57 -1 4 -18 5 -17 6 3 1 32 19 62 36 62 7 0 16 8 19 18 7 19
46 25 58 8 5 -7 8 -7 8 2 0 6 5 12 10 12 7 0 7 -8 -1 -22 -9 -16 -9 -23 0 -26
6 -2 11 -12 11 -23 0 -14 -7 -19 -29 -19 -23 0 -30 -5 -33 -22 -2 -19 -8 -22
-35 -20 -36 4 -45 -12 -13 -21 28 -7 29 -77 1 -77 -15 0 -19 -7 -17 -32 1 -41
-29 -52 -43 -15 -12 31 -40 59 -52 52 -5 -4 -9 -19 -9 -35 0 -28 -15 -48 -27
-36 -3 3 -6 26 -8 53 -2 55 -25 73 -25 19 0 -27 -3 -34 -15 -30 -10 4 -15 0
-15 -15 0 -12 6 -20 13 -19 7 2 13 -10 15 -27 4 -33 29 -57 55 -51 19 4 20 2
11 -31 -3 -11 -14 -23 -25 -26 -25 -7 -24 -27 1 -34 11 -3 20 -11 20 -18 0 -7
6 -18 14 -24 8 -6 17 -32 21 -56 5 -39 10 -45 30 -45 31 0 35 -7 42 -84 5 -60
8 -67 34 -78 16 -7 29 -16 29 -20 0 -5 7 -8 15 -8 10 0 15 -11 15 -35 0 -31
-3 -35 -25 -35 -14 0 -25 -5 -25 -10 0 -6 -10 -24 -22 -41 -22 -30 -22 -31 -4
-45 10 -7 19 -25 20 -39 1 -14 6 -25 11 -25 11 0 12 9 14 78 1 30 5 42 16 42
8 0 15 -7 15 -15 0 -8 5 -14 12 -13 6 2 14 -5 16 -14 2 -11 -2 -18 -12 -18
-20 0 -21 -36 -1 -44 20 -7 20 -65 -1 -94 -15 -22 -44 -30 -44 -12 0 6 -254 9
-735 8 -469 -1 -738 1 -745 8 -13 13 6 384 24 484 8 41 17 98 21 125 4 28 10
55 15 60 4 6 10 32 14 59 3 27 10 54 15 60 5 6 12 32 16 59 4 26 11 47 14 47
4 0 12 19 18 43 6 23 21 67 33 97 12 30 28 70 34 88 7 18 18 38 24 44 7 7 12
18 12 25 0 7 9 30 20 50 11 21 20 43 20 50 0 7 4 13 9 13 5 0 12 13 16 29 3
16 13 32 21 35 8 3 14 14 14 24 0 11 7 25 15 32 8 7 15 16 15 21 0 5 16 32 35
59 19 27 35 54 35 58 0 5 9 17 20 27 11 10 20 24 20 32 0 7 5 13 10 13 6 0 14
8 17 18 8 20 58 89 107 147 179 211 243 276 384 394 40 34 78 66 85 71 122
103 374 261 559 351 62 30 74 36 173 79 28 13 62 29 77 36 14 8 34 14 43 14 9
0 29 6 43 14 15 7 61 23 102 35 41 12 95 28 120 36 101 31 313 72 510 98 151
21 553 21 705 2z m-1235 -405 c0 -5 -4 -10 -9 -10 -6 0 -13 5 -16 10 -3 6 1
10 9 10 9 0 16 -4 16 -10z m630 -60 c0 -11 -26 -20 -56 -20 -30 0 -31 18 -2
29 24 9 58 3 58 -9z m-60 -49 c7 -13 7 -28 0 -45 -9 -24 -14 -26 -70 -26 -33
0 -60 4 -60 10 0 11 41 55 52 55 4 0 13 6 20 13 18 18 46 15 58 -7z m100 -55
c0 -11 -19 -15 -25 -6 -3 5 1 10 9 10 9 0 16 -2 16 -4z m-240 -36 c0 -5 -4
-10 -10 -10 -5 0 -10 5 -10 10 0 6 5 10 10 10 6 0 10 -4 10 -10z m175 0 c3 -5
-3 -10 -14 -10 -12 0 -21 5 -21 10 0 6 6 10 14 10 8 0 18 -4 21 -10z m-305
-35 c0 -7 5 -15 12 -17 17 -6 0 -28 -23 -28 -12 0 -19 7 -19 19 0 11 -10 22
-22 26 -22 7 -21 8 7 14 35 9 45 5 45 -14z m230 0 c0 -8 9 -15 20 -15 11 0 20
-7 20 -16 0 -11 -8 -14 -32 -12 -28 3 -33 7 -35 31 -1 18 3 27 13 27 8 0 14
-7 14 -15z m225 -75 c8 0 15 7 15 15 0 12 18 15 99 15 99 0 134 -12 89 -29
-13 -5 -30 -16 -37 -25 -7 -9 -20 -16 -28 -16 -7 0 -16 -7 -19 -15 -4 -8 -18
-15 -34 -15 -16 0 -35 -6 -42 -13 -15 -16 -176 -31 -196 -18 -9 5 -11 17 -6
34 5 23 11 27 45 27 21 0 39 -4 39 -10 0 -5 5 -10 10 -10 6 0 10 7 10 15 0 8
-5 15 -10 15 -6 0 -1 14 12 30 18 25 24 28 31 15 4 -8 15 -15 22 -15z m-388
-16 c8 -22 -15 -44 -26 -25 -10 16 -4 41 10 41 5 0 12 -7 16 -16z m133 -10 c0
-8 -4 -14 -10 -14 -5 0 -10 9 -10 21 0 11 5 17 10 14 6 -3 10 -13 10 -21z
m-500 -23 c0 -5 9 -13 20 -16 11 -3 20 -15 20 -26 0 -15 -7 -19 -35 -19 -32 0
-35 3 -35 28 0 16 3 32 7 35 9 10 23 8 23 -2z m1140 -6 c0 -8 -4 -15 -10 -15
-5 0 -10 7 -10 15 0 8 5 15 10 15 6 0 10 -7 10 -15z m-1051 -82 c0 -25 -1 -26
-9 -8 -12 27 -12 35 0 35 6 0 10 -12 9 -27z m2387 2 c0 -14 -9 -28 -19 -31 -9
-3 -15 -9 -12 -14 3 -5 3 -21 -1 -35 -5 -22 -11 -25 -49 -25 -75 0 -69 34 11
70 31 13 44 25 44 39 0 12 6 21 14 21 9 0 13 -10 12 -25z m-1569 9 c-3 -3 -12
-4 -19 -1 -8 3 -5 6 6 6 11 1 17 -2 13 -5z m-972 -23 c7 -12 -12 -24 -25 -16
-11 7 -4 25 10 25 5 0 11 -4 15 -9z m568 -3 c-2 -5 -3 -19 -3 -33 0 -29 -17
-34 -27 -7 -4 9 -13 21 -20 25 -7 5 -11 12 -9 16 6 9 62 8 59 -1z m-123 -33
c0 -23 -28 -30 -56 -14 -23 12 -24 14 -7 20 32 13 63 10 63 -6z m258 -26 c-4
-32 -33 -31 -33 1 -1 27 15 44 28 31 5 -5 7 -19 5 -32z m196 32 c4 -5 2 -20
-3 -33 l-9 -23 -10 25 c-5 14 -8 28 -5 33 6 10 21 9 27 -2z m-264 -5 c0 -11
-19 -15 -25 -6 -3 5 1 10 9 10 9 0 16 -2 16 -4z m-270 -40 c0 -23 -11 -46 -20
-41 -5 3 -6 14 -3 24 4 16 1 19 -16 14 -12 -3 -21 -1 -21 4 0 5 14 10 30 11
20 2 30 -2 30 -12z m170 4 c0 -5 -4 -10 -9 -10 -6 0 -13 5 -16 10 -3 6 1 10 9
10 9 0 16 -4 16 -10z m2110 0 c0 -5 -4 -10 -9 -10 -6 0 -13 5 -16 10 -3 6 1
10 9 10 9 0 16 -4 16 -10z m-2050 -46 c0 -19 -4 -34 -10 -34 -5 0 -10 18 -10
41 0 24 4 38 10 34 6 -3 10 -22 10 -41z m-500 10 c0 -8 18 -16 50 -20 50 -7
70 -24 27 -24 -22 0 -47 -16 -47 -31 0 -4 9 -9 20 -12 20 -5 28 -27 10 -27 -6
0 -37 9 -70 20 -64 22 -125 18 -116 -6 4 -10 -4 -14 -29 -14 -19 0 -35 5 -35
10 0 6 6 10 13 10 8 0 22 9 32 20 13 14 29 20 49 18 27 -3 31 1 34 22 2 14 5
30 7 36 5 16 55 14 55 -2z m170 -4 c0 -5 -7 -7 -15 -4 -8 4 -15 8 -15 10 0 2
7 4 15 4 8 0 15 -4 15 -10z m200 0 c0 -5 -4 -10 -10 -10 -5 0 -10 5 -10 10 0
6 5 10 10 10 6 0 10 -4 10 -10z m1805 -40 c-4 -12 0 -20 12 -23 14 -4 15 -5 2
-6 -9 0 -24 8 -35 20 -15 17 -16 22 -4 29 19 12 32 2 25 -20z m-2355 11 c0 -9
-24 -21 -41 -21 -5 0 -9 7 -9 15 0 9 9 15 25 15 14 0 25 -4 25 -9z m954 -6 c3
-8 13 -15 21 -15 20 0 17 -51 -4 -58 -8 -3 -11 0 -7 6 4 7 -4 14 -19 18 -16 4
-25 13 -25 25 0 10 -4 19 -10 19 -5 0 -10 4 -10 8 0 14 48 12 54 -3z m261 5
c3 -5 -1 -10 -9 -10 -9 0 -16 5 -16 10 0 6 4 10 9 10 6 0 13 -4 16 -10z m1345
-5 c0 -8 7 -15 15 -15 23 0 18 -17 -7 -23 -29 -8 -38 -1 -38 29 0 15 6 24 15
24 8 0 15 -7 15 -15z m-2002 -75 l4 -60 -35 0 c-29 0 -36 4 -42 27 -5 21 -1
31 19 50 14 13 26 34 26 45 0 17 3 19 12 10 6 -6 14 -39 16 -72z m-614 51 c7
-11 -41 -24 -55 -16 -5 4 -7 11 -4 16 8 12 52 12 59 0z m-704 -11 c0 -5 -2
-10 -4 -10 -3 0 -8 5 -11 10 -3 6 -1 10 4 10 6 0 11 -4 11 -10z m2639 -16 c17
-4 28 -10 25 -15 -3 -5 9 -9 25 -9 17 0 31 5 31 10 0 6 23 10 50 10 49 0 68
-13 32 -22 -15 -4 -18 -12 -14 -38 3 -25 1 -31 -9 -28 -8 3 -18 -5 -24 -16
-13 -25 -57 -33 -74 -12 -11 13 -6 17 28 26 23 6 41 15 41 19 0 9 -48 21 -86
21 -17 0 -22 4 -18 15 4 11 0 15 -16 15 -16 0 -20 -4 -16 -15 4 -11 -2 -15
-24 -15 -17 0 -30 5 -30 10 0 6 7 10 16 10 8 0 12 5 9 10 -7 11 2 30 14 30 5
0 22 -3 40 -6z m1049 -11 c2 -8 -6 -13 -22 -13 -15 0 -34 -9 -43 -20 -10 -11
-30 -20 -44 -20 -15 0 -29 -6 -31 -12 -3 -9 -35 -14 -96 -16 -97 -4 -108 1
-78 41 17 21 35 22 51 0 18 -25 37 -7 30 28 l-7 30 118 -3 c83 -2 119 -7 122
-15z m-3323 -3 c-3 -5 -15 -10 -27 -10 -17 0 -18 -2 -8 -15 11 -13 7 -15 -24
-15 -20 0 -36 5 -36 10 0 6 9 10 21 10 15 0 19 5 15 15 -4 12 3 15 30 15 21 0
33 -4 29 -10z m175 0 c0 -12 -17 -12 -45 0 -17 7 -15 9 13 9 17 1 32 -3 32 -9z
m2642 -15 c4 -19 1 -25 -12 -25 -16 0 -17 3 -7 25 7 14 13 25 13 25 1 0 4 -11
6 -25z m643 -15 c3 -5 -1 -10 -9 -10 -8 0 -18 5 -21 10 -3 6 1 10 9 10 8 0 18
-4 21 -10z m-917 -25 c2 -2 -6 -13 -19 -26 -19 -19 -23 -20 -31 -5 -5 9 -18
16 -28 16 -27 0 -25 18 3 23 21 4 68 -1 75 -8z m-963 -5 c3 -5 -1 -10 -9 -10
-9 0 -16 5 -16 10 0 6 4 10 9 10 6 0 13 -4 16 -10z m-1775 -35 c0 -18 -4 -23
-15 -19 -16 6 -20 26 -8 37 13 14 23 6 23 -18z m200 0 c0 -10 -10 -15 -30 -15
-20 0 -30 5 -30 15 0 10 10 15 30 15 20 0 30 -5 30 -15z m1270 -36 c0 -31 -4
-48 -10 -44 -5 3 -10 26 -10 51 0 24 5 44 10 44 6 0 10 -23 10 -51z m340 30
c0 -5 -4 -9 -10 -9 -5 0 -10 7 -10 16 0 8 5 12 10 9 6 -3 10 -10 10 -16z m970
0 c0 -5 -4 -9 -10 -9 -5 0 -10 7 -10 16 0 8 5 12 10 9 6 -3 10 -10 10 -16z
m-840 -22 c0 -7 9 -20 20 -30 11 -9 20 -25 20 -36 0 -15 -9 -20 -45 -23 -24
-2 -49 -2 -55 0 -20 7 -10 53 16 77 30 28 44 32 44 12z m210 -6 c0 -5 -9 -11
-20 -14 -14 -4 -20 -14 -20 -35 0 -21 -6 -31 -19 -35 -23 -6 -71 3 -71 13 0
11 37 42 78 66 36 20 52 22 52 5z m493 -7 c-4 -10 -9 -12 -15 -6 -12 12 -1 35
12 27 5 -3 6 -13 3 -21z m472 16 c8 -13 -4 -50 -16 -50 -5 0 -9 14 -9 30 0 30
13 40 25 20z m-735 -10 c0 -5 -9 -10 -21 -10 -11 0 -17 5 -14 10 3 6 13 10 21
10 8 0 14 -4 14 -10z m100 0 c0 -5 -9 -10 -20 -10 -11 0 -20 5 -20 10 0 6 9
10 20 10 11 0 20 -4 20 -10z m540 -20 c0 -28 -2 -30 -40 -30 -30 0 -40 -4 -40
-16 0 -8 -4 -13 -9 -10 -18 12 1 45 30 51 16 4 29 13 29 21 0 8 7 14 15 14 10
0 15 -10 15 -30z m-2980 -16 c0 -8 -7 -14 -15 -14 -15 0 -21 21 -9 33 10 9 24
-2 24 -19z m430 8 c0 -12 -40 -33 -50 -27 -22 14 -9 35 20 35 17 0 30 -3 30
-8z m165 -2 c3 -5 -1 -10 -10 -10 -9 0 -13 5 -10 10 3 6 8 10 10 10 2 0 7 -4
10 -10z m1213 -7 c2 -8 -5 -13 -17 -13 -11 0 -23 -5 -27 -12 -8 -13 -25 21
-17 35 7 12 56 4 61 -10z m486 8 c8 -13 -19 -21 -69 -21 -42 0 -62 10 -48 24
10 9 111 7 117 -3z m907 -6 c0 -5 -7 -12 -16 -13 -23 -5 -47 6 -40 19 8 13 56
8 56 -6z m-3441 -37 c0 -5 -5 -6 -11 -3 -6 4 -13 -2 -16 -14 -7 -28 -21 -27
-29 3 -9 36 2 47 31 34 14 -6 25 -15 25 -20z m500 8 c0 -17 -29 -25 -64 -19
-48 10 -27 31 32 32 21 1 32 -4 32 -13z m78 -4 c2 -7 -6 -12 -17 -12 -21 0
-27 11 -14 24 9 9 26 2 31 -12z m1368 7 c10 -17 -8 -28 -38 -22 -38 7 -36 33
1 33 17 0 33 -5 37 -11z m-806 -9 c0 -5 -4 -10 -10 -10 -5 0 -10 5 -10 10 0 6
5 10 10 10 6 0 10 -4 10 -10z m1940 0 c0 -5 -4 -10 -10 -10 -5 0 -10 5 -10 10
0 6 5 10 10 10 6 0 10 -4 10 -10z m257 -27 c-3 -10 -5 -4 -5 12 0 17 2 24 5
18 2 -7 2 -21 0 -30z m-324 -3 c5 -4 -6 -10 -22 -13 -18 -4 -31 -13 -31 -22 0
-11 -11 -15 -40 -15 -33 0 -40 3 -40 19 0 44 9 50 68 44 31 -3 61 -9 65 -13z
m-2983 -6 c0 -8 -4 -12 -10 -9 -5 3 -10 10 -10 16 0 5 5 9 10 9 6 0 10 -7 10
-16z m815 1 c0 -5 -10 -11 -22 -13 -16 -2 -23 2 -23 13 0 11 7 15 23 13 12 -2
22 -7 22 -13z m151 0 c-3 -8 -1 -15 4 -15 6 0 10 -7 10 -15 0 -8 -7 -15 -15
-15 -8 0 -15 6 -15 14 0 18 10 46 17 46 3 0 3 -7 -1 -15z m1059 5 c4 -6 -5
-10 -19 -10 -14 0 -26 5 -26 10 0 6 9 10 19 10 11 0 23 -4 26 -10z m1495 0 c0
-5 -7 -10 -16 -10 -8 0 -12 5 -9 10 3 6 10 10 16 10 5 0 9 -4 9 -10z m231 -5
c-1 -15 -24 -12 -29 3 -3 9 2 13 12 10 10 -1 17 -7 17 -13z m-3517 -36 c-3 -5
-10 -7 -15 -3 -5 3 -7 10 -3 15 3 5 10 7 15 3 5 -3 7 -10 3 -15z m96 11 c0 -6
-7 -13 -15 -16 -20 -8 -48 3 -40 16 8 13 55 13 55 0z m450 -6 c0 -2 -7 -4 -15
-4 -8 0 -15 4 -15 10 0 5 7 7 15 4 8 -4 15 -8 15 -10z m340 1 c0 -10 10 -15
30 -15 20 0 30 -5 30 -15 0 -10 -10 -15 -30 -15 -19 0 -30 5 -30 14 0 8 -10
16 -22 18 -32 5 -35 28 -4 28 16 0 26 -6 26 -15z m961 0 c-1 -15 -24 -12 -29
3 -3 9 2 13 12 10 10 -1 17 -7 17 -13z m199 6 c0 -10 -24 -21 -46 -21 -8 0
-14 7 -14 15 0 10 10 15 30 15 17 0 30 -4 30 -9z m410 -7 c0 -2 -7 -4 -15 -4
-8 0 -15 4 -15 10 0 5 7 7 15 4 8 -4 15 -8 15 -10z m528 -36 c-3 -45 -6 -53
-24 -56 -11 -2 -26 4 -33 12 -15 18 -4 66 15 66 8 0 17 7 20 15 13 33 25 12
22 -37z m362 42 c0 -18 -40 -32 -56 -20 -7 7 -11 16 -8 21 7 12 64 11 64 -1z
m-3697 -7 c-7 -2 -19 -2 -25 0 -7 3 -2 5 12 5 14 0 19 -2 13 -5z m327 -30 c0
-15 -46 -18 -55 -4 -3 5 4 12 15 16 11 3 20 12 20 18 0 16 20 -14 20 -30z
m2339 1 c2 -2 -3 -4 -12 -4 -9 0 -24 -11 -33 -25 -9 -14 -26 -25 -39 -25 -12
0 -28 -7 -35 -15 -9 -10 -32 -15 -75 -15 -34 0 -64 2 -67 5 -3 3 -3 17 0 30 5
29 45 35 60 9 7 -12 17 -15 37 -10 22 6 25 9 15 21 -7 8 -19 15 -26 15 -8 0
-14 5 -14 10 0 6 12 10 26 10 14 0 23 -4 19 -10 -4 -6 12 -10 39 -10 35 0 46
4 46 15 0 12 7 14 28 9 15 -4 29 -8 31 -10z m-2127 -5 c-15 -6 -30 -5 -40 1
-13 7 -8 9 23 9 35 0 37 -1 17 -10z m148 1 c0 -5 -4 -10 -10 -10 -5 0 -10 5
-10 10 0 6 5 10 10 10 6 0 10 -4 10 -10z m497 -9 c-4 -26 -35 -64 -46 -56 -6
3 -11 19 -11 35 0 15 -6 30 -12 33 -7 2 6 4 29 4 34 0 42 -3 40 -16z m613 15
c0 -3 -4 -8 -10 -11 -5 -3 -10 -1 -10 4 0 6 5 11 10 11 6 0 10 -2 10 -4z m135
-6 c-3 -5 -13 -10 -21 -10 -8 0 -12 -5 -9 -10 7 -12 -20 -24 -34 -16 -16 10
20 44 47 45 13 1 20 -3 17 -9z m-1973 -49 c-9 -17 -27 -31 -42 -34 -14 -2 -32
-6 -40 -8 -10 -3 -16 5 -18 25 -3 27 -2 29 28 23 22 -5 32 -3 36 8 4 8 17 15
30 15 23 0 23 0 6 -29z m2042 -23 c-3 -5 -12 -8 -20 -8 -15 0 -18 18 -7 45 5
15 8 14 19 -6 7 -13 10 -27 8 -31z m-1890 21 l39 -11 -28 -18 c-16 -11 -23
-20 -16 -24 14 -9 15 -46 1 -46 -5 0 -10 5 -10 11 0 6 -7 9 -15 5 -8 -3 -15
-1 -15 5 0 5 -11 13 -23 18 -20 8 -23 15 -19 40 5 35 20 38 86 20z m249 -107
c-4 -18 -11 -22 -32 -20 -30 4 -43 44 -17 54 9 4 19 24 23 48 l7 41 12 -50 c7
-27 11 -60 7 -73z m301 93 c3 -8 12 -15 21 -15 17 0 21 -25 5 -35 -17 -10 -60
23 -60 45 0 23 25 27 34 5z m2269 -52 c4 -48 2 -63 -8 -63 -7 0 -15 -9 -18
-20 -3 -11 -11 -19 -19 -18 -9 2 -12 -7 -10 -29 2 -31 0 -33 -30 -32 -32 0
-85 17 -60 18 6 1 12 10 12 21 0 15 8 22 29 26 20 4 28 11 24 20 -3 8 0 14 6
14 6 0 11 7 11 15 0 8 -4 15 -10 15 -16 0 -11 19 10 40 12 12 25 18 30 15 5
-3 12 6 16 20 9 35 10 30 17 -42z m675 6 c-2 -19 -7 -33 -13 -32 -12 3 -19 49
-10 71 10 26 27 -2 23 -39z m-3624 25 c20 -8 21 -34 2 -34 -17 0 -38 24 -29
33 8 8 8 8 27 1z m-134 -14 c0 -5 -5 -10 -11 -10 -5 0 -7 5 -4 10 3 6 8 10 11
10 2 0 4 -4 4 -10z m1444 -41 c-3 -5 -9 -9 -15 -9 -11 0 -12 43 -2 54 9 9 25
-33 17 -45z m-1349 11 c3 -5 1 -10 -4 -10 -6 0 -11 5 -11 10 0 6 2 10 4 10 3
0 8 -4 11 -10z m75 0 c0 -5 -5 -10 -11 -10 -5 0 -7 5 -4 10 3 6 8 10 11 10 2
0 4 -4 4 -10z m770 0 c0 -5 -5 -10 -11 -10 -5 0 -7 5 -4 10 3 6 8 10 11 10 2
0 4 -4 4 -10z m645 -20 c7 -30 35 -43 35 -15 0 17 16 20 25 6 3 -6 -1 -13 -9
-18 -8 -4 -16 -21 -18 -38 -2 -24 -9 -31 -33 -35 -24 -4 -31 -11 -33 -32 -3
-22 -9 -27 -35 -30 -32 -3 -54 -38 -24 -38 18 0 25 -31 19 -87 -4 -40 -22 -62
-22 -28 0 8 -5 15 -12 15 -6 0 -20 7 -30 17 -11 9 -18 11 -18 5 0 -7 5 -12 10
-12 6 0 10 -7 10 -16 0 -9 7 -22 17 -29 22 -16 8 -35 -28 -35 -16 0 -29 -5
-29 -11 0 -5 -4 -7 -10 -4 -16 10 -12 55 5 55 8 0 15 5 15 10 0 17 -29 23 -45
10 -10 -9 -15 -9 -15 -1 0 6 -9 11 -19 11 -15 0 -21 -8 -23 -32 -4 -46 -30
-43 -41 5 -7 28 -13 37 -24 33 -8 -3 -19 -6 -24 -6 -13 0 -11 -28 2 -32 6 -2
13 -26 16 -52 6 -50 30 -86 58 -86 9 0 15 9 15 24 0 14 4 27 9 30 15 10 20
-35 8 -72 -9 -28 -19 -38 -45 -44 l-32 -9 22 -29 c12 -17 25 -30 30 -30 4 0 8
-7 8 -15 0 -9 7 -18 15 -21 11 -5 15 -22 15 -64 0 -58 12 -82 32 -62 6 6 10
29 10 51 0 23 3 41 9 41 5 0 9 -18 9 -41 0 -26 7 -50 20 -66 11 -14 20 -32 20
-41 0 -32 24 -92 37 -92 19 0 16 -13 -7 -28 -27 -16 -19 -28 25 -36 20 -4 33
-10 31 -15 -3 -4 8 -15 25 -25 38 -22 38 -50 -2 -66 -17 -7 -35 -24 -40 -37
-4 -12 -15 -23 -24 -23 -17 0 -19 -23 -9 -107 5 -42 11 -53 25 -53 27 0 34 19
13 35 -18 13 -18 14 8 24 24 9 26 14 21 49 -7 50 10 62 42 30 23 -24 26 -68 4
-68 -16 0 -10 -67 6 -74 18 -7 20 -49 3 -77 -10 -17 -10 -23 0 -26 29 -11 8
-23 -38 -23 -45 0 -50 3 -56 25 -8 32 -20 32 -28 -1 -5 -20 -11 -24 -24 -18
-9 5 -197 8 -417 9 l-400 0 -3 45 c-1 25 -7 54 -11 65 -14 29 -22 230 -10 242
5 5 11 27 13 48 2 22 13 50 25 63 11 13 21 30 21 37 0 7 6 15 14 18 8 3 17 19
21 36 4 17 11 31 16 31 5 0 9 7 9 15 0 9 7 18 15 21 8 3 17 22 20 42 3 21 13
60 21 89 9 29 15 67 13 85 -1 18 -1 56 0 84 1 43 5 53 21 57 16 4 20 14 20 44
0 47 15 75 29 54 6 -9 19 -12 37 -8 16 4 44 9 62 13 41 8 42 30 1 38 -17 3
-28 10 -24 16 3 5 -2 10 -12 10 -10 0 -26 9 -36 20 -13 15 -29 20 -66 20 -28
0 -53 5 -57 11 -4 8 3 9 25 4 30 -6 32 -6 20 13 -10 16 -9 22 10 41 11 11 23
21 26 21 9 0 45 -40 45 -50 0 -5 9 -10 20 -10 11 0 20 5 20 10 0 6 7 10 15 10
9 0 15 9 15 24 0 32 20 44 36 21 12 -17 14 -16 25 9 7 14 17 26 22 26 6 0 21
9 33 21 17 16 29 19 53 14 31 -7 31 -7 31 -70 0 -60 1 -63 28 -68 27 -6 29 -5
75 57 14 19 15 19 32 -14 20 -39 35 -27 35 30 0 48 12 66 30 45 16 -20 40 -19
40 1 0 8 4 13 9 10 11 -7 61 43 61 61 0 26 25 7 28 -21 2 -16 8 -25 15 -23 7
3 11 10 9 17 -6 24 10 70 23 70 7 0 16 -13 20 -30z m190 20 c3 -5 1 -10 -4
-10 -6 0 -11 5 -11 10 0 6 2 10 4 10 3 0 8 -4 11 -10z m645 -5 c0 -16 -55 -22
-64 -6 -8 13 5 21 36 21 18 0 28 -5 28 -15z m84 6 c14 -5 16 -10 7 -15 -16
-10 -63 2 -56 14 7 12 22 12 49 1z m78 -26 c-5 -27 -14 -26 -18 2 -3 21 5 35
15 28 5 -2 6 -16 3 -30z m-1172 -16 c0 -5 -4 -9 -10 -9 -5 0 -10 7 -10 16 0 8
5 12 10 9 6 -3 10 -10 10 -16z m937 -5 c-9 -9 -28 6 -21 18 4 6 10 6 17 -1 6
-6 8 -13 4 -17z m973 12 c0 -3 -4 -8 -10 -11 -5 -3 -10 -1 -10 4 0 6 5 11 10
11 6 0 10 -2 10 -4z m-2543 -54 c3 -24 0 -32 -11 -32 -12 0 -16 10 -16 36 0
45 22 41 27 -4z m169 27 c12 -20 -12 -32 -37 -18 -23 12 -23 12 -4 20 28 11
33 10 41 -2z m300 -4 c4 -8 12 -15 20 -15 9 0 14 -12 14 -35 0 -45 -25 -47
-34 -2 -5 25 -9 29 -16 17 -8 -13 -10 -12 -10 3 0 10 -8 21 -17 24 -15 6 -15
7 3 14 28 11 34 10 40 -6z m952 9 c25 -7 30 -24 7 -24 -8 0 -15 -9 -15 -20 0
-11 5 -20 10 -20 6 0 10 -7 10 -16 0 -19 -40 -9 -53 12 -4 8 -17 14 -27 14
-26 0 -26 20 0 27 11 3 20 12 20 19 0 15 12 17 48 8z m-2028 -14 c0 -5 -2 -10
-4 -10 -3 0 -8 5 -11 10 -3 6 -1 10 4 10 6 0 11 -4 11 -10z m1870 0 c0 -13
-20 -13 -40 0 -12 8 -9 10 13 10 15 0 27 -4 27 -10z m645 0 c-3 -5 -10 -10
-16 -10 -5 0 -9 5 -9 10 0 6 7 10 16 10 8 0 12 -4 9 -10z m195 0 c0 -5 -4 -10
-10 -10 -5 0 -10 5 -10 10 0 6 5 10 10 10 6 0 10 -4 10 -10z m-152 -27 c5 -17
-26 -29 -40 -15 -6 6 -7 15 -3 22 9 14 37 9 43 -7z m-638 -9 c0 -17 -22 -14
-28 4 -2 7 3 12 12 12 9 0 16 -7 16 -16z m1125 6 c3 -5 1 -10 -4 -10 -6 0 -11
5 -11 10 0 6 2 10 4 10 3 0 8 -4 11 -10z m160 0 c-3 -5 -13 -10 -22 -10 -9 0
-13 -6 -9 -15 3 -8 2 -15 -3 -15 -5 0 -11 11 -13 25 -5 22 -2 25 24 25 17 0
27 -4 23 -10z m-948 -48 c1 -25 -3 -32 -17 -32 -19 0 -32 32 -23 56 10 27 38
11 40 -24z m831 -3 c-1 -12 -8 -24 -14 -26 -16 -5 -25 50 -11 59 17 10 29 -6
25 -33z m-3018 16 c0 -8 -4 -15 -10 -15 -5 0 -10 7 -10 15 0 8 5 15 10 15 6 0
10 -7 10 -15z m1401 2 c-1 -12 -15 -9 -19 4 -3 6 1 10 8 8 6 -3 11 -8 11 -12z
m469 -3 c0 -8 -5 -12 -10 -9 -6 4 -8 11 -5 16 9 14 15 11 15 -7z m1680 0 c0
-17 -22 -14 -28 4 -2 7 3 12 12 12 9 0 16 -7 16 -16z m-970 -24 c0 -24 10 -50
19 -50 4 0 14 12 21 28 l13 27 9 -32 c5 -18 15 -33 23 -33 8 0 15 -6 15 -14 0
-8 7 -17 16 -20 18 -7 15 -46 -4 -62 -17 -13 -20 -80 -5 -95 16 -16 33 -2 33
26 0 26 15 41 25 26 9 -15 32 -2 38 20 3 10 12 19 20 19 9 0 18 13 22 32 6 26
9 28 17 15 5 -9 13 -17 18 -17 18 0 52 -41 46 -56 -3 -8 -3 -28 1 -44 7 -39
32 -39 63 0 25 29 50 39 50 19 0 -23 25 -1 30 26 7 37 28 43 36 11 8 -32 20
-26 29 14 4 17 13 30 21 30 8 0 14 6 14 14 0 23 22 31 35 13 19 -26 38 -21 32
9 -6 34 18 43 44 16 22 -25 28 -117 7 -109 -8 2 -12 15 -10 30 2 19 -1 27 -12
27 -10 0 -20 -16 -27 -45 -8 -31 -17 -45 -28 -45 -10 0 -26 -6 -36 -14 -18
-13 -18 -14 3 -25 13 -7 22 -21 22 -36 0 -41 -9 -52 -38 -48 -23 4 -24 3 -9
-7 25 -16 21 -39 -7 -46 -29 -7 -46 1 -46 22 0 20 -40 58 -50 48 -5 -5 -10
-22 -12 -38 -3 -34 -28 -49 -28 -17 0 11 -7 24 -16 29 -11 6 -13 11 -5 16 16
10 14 36 -4 36 -8 0 -15 -6 -15 -14 0 -8 -7 -16 -15 -19 -12 -5 -12 -10 0 -34
8 -15 18 -43 21 -60 3 -18 12 -33 19 -33 7 0 15 -6 18 -12 5 -18 37 8 38 31 0
10 4 8 10 -8 8 -20 14 -22 39 -17 22 4 30 2 30 -9 0 -8 -7 -15 -15 -15 -8 0
-15 -8 -15 -18 0 -29 -12 -34 -27 -12 -13 18 -16 19 -29 5 -9 -8 -22 -15 -30
-15 -8 0 -14 -5 -14 -12 0 -16 50 -88 61 -88 5 0 9 -19 9 -42 0 -24 4 -49 9
-57 11 -18 31 -5 31 20 0 10 5 19 10 19 6 0 10 6 10 14 0 9 12 16 32 18 41 4
43 31 5 72 -32 35 -33 40 -6 77 25 35 37 37 45 5 4 -17 14 -26 32 -28 31 -3
43 -42 19 -61 -8 -7 -17 -24 -21 -39 -4 -16 -13 -28 -21 -28 -20 0 -19 -20 1
-35 15 -10 14 -14 -9 -38 l-24 -27 -6 30 c-5 22 -12 30 -28 30 -19 0 -20 -4
-14 -42 4 -24 12 -49 17 -56 6 -7 12 -28 13 -47 1 -19 10 -44 19 -54 11 -12
14 -21 7 -26 -6 -3 -11 -20 -11 -36 0 -37 16 -30 25 11 6 29 7 30 36 14 41
-21 37 -58 -6 -62 -23 -2 -34 -12 -47 -38 -32 -63 -21 -106 25 -97 24 5 28 10
25 37 -2 24 1 31 15 31 16 0 19 -11 22 -95 2 -52 1 -100 -3 -107 -9 -15 -62
-28 -62 -16 0 6 -173 9 -444 9 -244 -1 -447 2 -451 6 -8 8 -12 294 -5 355 3
24 9 43 14 43 13 0 33 28 63 90 15 30 33 61 40 68 7 7 13 22 13 32 0 10 6 20
13 22 8 3 13 42 16 131 3 122 4 127 26 133 20 5 22 10 17 50 l-5 44 55 -1 c92
-2 125 17 68 41 -16 7 -30 16 -30 21 0 5 -6 9 -14 9 -7 0 -19 6 -25 14 -6 8
-33 19 -59 26 -42 11 -45 13 -24 21 12 5 25 15 28 24 8 19 21 19 58 0 15 -8
30 -15 32 -15 2 0 4 20 4 44 0 30 -5 46 -15 50 -16 6 -19 35 -9 73 7 26 24 21
24 -7z m230 -12 c0 -16 -3 -19 -11 -11 -6 6 -8 16 -5 22 11 17 16 13 16 -11z
m-1336 -14 c7 -18 0 -34 -16 -34 -6 0 -17 -8 -24 -17 -12 -16 -13 -15 -14 15
0 20 4 31 10 27 6 -3 13 1 16 9 8 20 20 20 28 0z m-1444 -20 c0 -8 -4 -12 -10
-9 -5 3 -10 10 -10 16 0 5 5 9 10 9 6 0 10 -7 10 -16z m70 7 c0 -6 -4 -13 -10
-16 -5 -3 -10 1 -10 9 0 9 5 16 10 16 6 0 10 -4 10 -9z m1748 -40 c3 -34 -1
-48 -17 -63 -12 -10 -21 -23 -21 -28 0 -4 -16 -32 -35 -61 -22 -34 -35 -66
-35 -86 0 -20 -5 -33 -12 -33 -21 0 -21 110 -1 132 14 16 14 18 1 18 -22 0
-30 26 -13 40 8 6 15 23 17 38 2 18 10 28 23 31 11 2 24 9 28 17 4 8 15 14 22
14 8 0 15 7 15 16 0 36 25 4 28 -35z m592 35 c0 -3 -4 -8 -10 -11 -5 -3 -10
-1 -10 4 0 6 5 11 10 11 6 0 10 -2 10 -4z m-1100 -26 c0 -11 -4 -20 -10 -20
-5 0 -10 9 -10 20 0 11 5 20 10 20 6 0 10 -9 10 -20z m-1272 -20 c-1 -17 -8
-30 -15 -30 -8 0 -13 12 -13 30 0 20 5 30 15 30 11 0 15 -9 13 -30z m3042 10
c0 -5 -4 -10 -10 -10 -5 0 -10 5 -10 10 0 6 5 10 10 10 6 0 10 -4 10 -10z
m-1070 -45 c0 -14 -4 -25 -9 -25 -5 0 -8 11 -8 25 0 14 3 25 8 25 5 0 9 -11 9
-25z m870 15 c0 -5 -4 -10 -10 -10 -5 0 -10 5 -10 10 0 6 5 10 10 10 6 0 10
-4 10 -10z m-970 -31 c0 -5 -4 -9 -10 -9 -5 0 -10 7 -10 16 0 8 5 12 10 9 6
-3 10 -10 10 -16z m1040 -19 c0 -20 -5 -30 -15 -30 -8 0 -15 9 -15 20 0 11 -7
20 -15 20 -8 0 -15 5 -15 10 0 6 14 10 30 10 27 0 30 -3 30 -30z m557 -22 c-3
-7 -5 -2 -5 12 0 14 2 19 5 13 2 -7 2 -19 0 -25z m-1529 -10 c-2 -18 -7 -33
-13 -33 -5 0 -11 15 -13 33 -3 24 1 32 13 32 12 0 16 -8 13 -32z m86 23 c19
-7 18 -8 -4 -14 -25 -6 -40 -2 -40 14 0 11 17 11 44 0z m-2064 -76 c0 -14 -4
-25 -10 -25 -5 0 -10 11 -10 25 0 14 5 25 10 25 6 0 10 -11 10 -25z m3320 5
c0 -16 -7 -20 -30 -20 -33 0 -43 25 -12 33 34 9 42 7 42 -13z m-2000 -60 c0
-15 -6 -30 -14 -33 -19 -8 -26 1 -26 33 0 32 7 41 26 33 8 -3 14 -18 14 -33z
m-74 8 c1 -92 2 -95 39 -102 31 -6 35 -11 35 -36 0 -19 -7 -33 -20 -40 -11 -6
-20 -21 -20 -35 0 -29 -16 -41 -35 -25 -9 8 -13 21 -9 36 5 20 1 26 -25 35
-28 10 -31 15 -31 50 0 25 5 42 14 45 8 3 17 25 21 50 6 45 31 62 31 22z m893
-79 c-18 -16 -39 -29 -46 -29 -17 0 -17 -15 2 -30 8 -7 15 -21 15 -32 0 -11
-7 -26 -15 -34 -8 -9 -15 -24 -15 -35 0 -16 -6 -20 -27 -17 -22 2 -29 9 -31
31 -2 19 1 27 12 27 18 0 21 16 6 25 -6 3 -13 -1 -16 -9 -3 -8 -14 -18 -25
-21 -10 -4 -19 -15 -19 -25 0 -24 -16 -34 -24 -15 -3 8 -12 15 -21 15 -8 0
-15 5 -15 10 0 6 5 10 10 10 6 0 10 7 10 15 0 20 -16 19 -24 -1 -3 -8 -10 -12
-16 -9 -5 3 -10 -3 -10 -14 0 -12 4 -21 9 -21 5 0 12 -16 15 -35 6 -32 10 -35
44 -35 27 0 33 -3 22 -10 -18 -11 -13 -16 25 -26 28 -7 29 -7 12 10 -23 23
-22 26 8 26 20 0 24 -4 23 -25 -2 -18 -8 -25 -24 -25 -39 0 -84 -12 -84 -23 0
-5 11 -25 25 -43 14 -18 25 -43 25 -56 0 -30 15 -54 24 -39 13 21 25 11 36
-29 6 -21 15 -42 20 -45 6 -3 10 -21 10 -40 0 -18 7 -41 16 -49 8 -9 11 -16 5
-16 -6 0 -11 -11 -11 -25 0 -14 5 -25 10 -25 6 0 10 6 10 13 0 6 4 18 9 26 8
12 13 12 24 3 20 -17 10 -62 -14 -62 -11 0 -19 -5 -19 -11 0 -7 -6 -17 -14
-23 -10 -8 -13 -25 -9 -63 6 -59 20 -69 30 -23 3 17 12 30 19 30 8 0 14 5 14
10 0 6 -7 10 -16 10 -26 0 -10 23 19 27 24 3 27 1 27 -27 0 -20 -5 -30 -15
-30 -8 0 -15 -6 -15 -14 0 -8 7 -16 15 -20 9 -3 15 -18 15 -38 0 -26 -6 -36
-28 -46 -17 -8 -28 -9 -30 -2 -5 13 -42 13 -42 1 0 -6 -13 -6 -32 1 -21 8
-110 9 -288 4 -141 -4 -264 -4 -273 0 -14 5 -17 20 -17 73 0 37 -4 71 -9 76
-5 6 -11 74 -13 152 -4 110 -2 147 8 160 7 10 14 39 14 65 0 37 4 50 20 58 11
6 23 22 26 35 3 14 10 25 16 25 5 0 14 14 19 30 6 17 15 30 20 30 5 0 9 7 9
15 0 25 41 95 56 95 9 0 14 12 14 35 0 24 5 35 15 35 8 0 15 -7 15 -15 0 -19
19 -19 39 0 32 30 116 95 123 95 5 0 8 -4 8 -10 0 -5 7 -10 15 -10 11 0 15
-12 15 -50 0 -39 3 -50 16 -50 9 0 18 9 21 21 4 15 12 19 31 17 21 -2 27 3 37
32 10 28 14 32 20 18 9 -22 45 -24 45 -3 0 8 4 15 9 15 6 0 22 11 36 24 15 14
36 26 48 28 18 2 23 -3 25 -31 3 -27 -3 -38 -29 -62z m-995 55 c8 -20 -3 -84
-14 -84 -12 0 -21 47 -14 75 7 29 19 32 28 9z m766 12 c0 -3 -4 -8 -10 -11 -5
-3 -10 -1 -10 4 0 6 5 11 10 11 6 0 10 -2 10 -4z m34 -32 c3 -9 3 -20 0 -25
-9 -15 -34 10 -27 27 7 19 19 18 27 -2z m-1713 -7 c-1 -12 -15 -9 -19 4 -3 6
1 10 8 8 6 -3 11 -8 11 -12z m2024 -67 c-3 -5 -13 -10 -21 -10 -8 0 -14 5 -14
10 0 6 9 10 21 10 11 0 17 -4 14 -10z m898 -26 c3 -3 3 -12 0 -20 -4 -11 -9
-12 -19 -3 -8 6 -11 15 -8 20 6 10 18 12 27 3z m67 -24 c0 -32 -14 -40 -24
-14 -10 27 -7 44 9 44 10 0 15 -10 15 -30z m-2970 -50 c0 -6 -11 -15 -25 -20
-29 -11 -28 -10 -15 -44 5 -14 16 -26 25 -26 17 0 18 -4 9 -37 -4 -13 -13 -23
-20 -23 -8 0 -14 -9 -14 -20 0 -11 -7 -20 -15 -20 -9 0 -15 9 -15 25 0 14 -9
33 -20 42 -28 24 -26 61 4 73 18 7 22 14 19 34 -5 24 -3 26 31 26 20 0 36 -5
36 -10z m-125 -30 c16 -7 17 -9 3 -9 -9 -1 -20 -10 -23 -21 -7 -23 -35 -27
-35 -6 0 8 -3 21 -6 30 -5 12 0 16 17 15 13 0 33 -4 44 -9z m1154 -26 c9 -8
-11 -54 -24 -54 -8 0 -15 -9 -15 -20 0 -11 -4 -20 -10 -20 -5 0 -10 13 -10 30
0 23 -5 31 -24 36 -17 4 -22 11 -19 24 4 17 12 18 52 13 25 -3 48 -7 50 -9z
m827 -31 c-10 -10 -19 5 -10 18 6 11 8 11 12 0 2 -7 1 -15 -2 -18z m19 -26
c-21 -16 -13 -37 14 -37 10 0 20 -3 23 -6 9 -8 -22 -78 -38 -87 -20 -11 -17
-44 4 -56 16 -10 16 -10 0 -11 -12 0 -18 -8 -18 -22 0 -29 -17 -11 -22 22 -1
14 -9 25 -17 25 -8 0 -16 6 -18 13 -3 7 4 12 16 12 17 0 21 6 21 29 0 16 -7
36 -15 45 -17 17 -20 36 -5 36 6 0 10 7 10 15 0 9 10 20 23 25 33 13 43 12 22
-3z m-1915 -116 c0 -25 -9 -30 -43 -24 -47 9 -32 40 21 42 15 1 22 -5 22 -18z
m-1170 -859 c0 -161 -5 -206 -22 -196 -5 3 -12 -3 -15 -14 -10 -40 -156 -40
-166 0 -3 11 -10 17 -16 14 -12 -8 -26 57 -17 79 7 18 66 21 66 3 1 -20 36
-58 54 -58 27 0 36 45 36 178 0 70 4 132 8 138 7 12 51 23 65 16 4 -2 7 -74 7
-160z m798 -41 l-3 -196 -24 -3 c-17 -3 -30 4 -43 20 -14 18 -18 19 -18 6 0
-21 -65 -33 -102 -19 -15 5 -38 27 -52 48 -22 32 -26 49 -26 110 0 56 3 73 14
73 7 0 16 9 19 20 3 11 12 20 21 20 9 0 16 5 16 10 0 6 25 10 56 10 34 0 53
-4 49 -10 -3 -5 1 -10 10 -10 14 0 16 8 13 43 -7 64 4 85 41 79 l31 -4 -2
-197z m170 192 c2 -7 -3 -13 -11 -13 -9 0 -19 -9 -22 -20 -3 -11 -13 -20 -21
-20 -19 0 -18 -29 1 -36 12 -5 15 -31 15 -149 0 -138 -1 -143 -22 -148 -12 -3
-30 -1 -40 4 -16 9 -18 18 -14 67 3 31 8 115 12 187 3 81 10 133 17 138 18 11
80 4 85 -10z m1502 2 c0 -9 -7 -18 -15 -21 -8 -4 -15 -12 -15 -19 0 -7 -9 -15
-20 -18 -31 -8 -23 -25 15 -33 19 -3 32 -10 30 -15 -3 -5 6 -11 20 -15 l25 -6
0 -119 c0 -77 4 -119 11 -119 5 0 8 -4 5 -8 -7 -11 -173 -23 -204 -16 -12 4
-22 13 -22 20 0 8 -6 13 -12 12 -9 -2 -14 12 -16 40 -4 55 26 86 92 96 45 7
75 34 61 56 -9 15 -44 12 -61 -5 -22 -21 -84 -20 -84 2 0 17 67 83 85 83 6 0
10 18 10 41 0 46 14 59 63 59 22 0 32 -5 32 -15z m466 7 c15 -9 21 -43 11 -59
-5 -7 -21 -13 -38 -13 -26 0 -29 3 -29 34 0 32 5 38 40 45 3 0 10 -3 16 -7z
m1112 -188 c1 -103 1 -193 -2 -199 -2 -6 -21 -9 -46 -7 -33 3 -44 9 -53 31 -6
14 -14 28 -17 31 -3 3 -16 28 -30 55 -14 28 -31 54 -38 58 -7 5 -18 21 -25 35
-10 23 -12 11 -15 -88 -1 -63 -6 -118 -11 -123 -4 -4 -20 -5 -35 -1 l-26 6 0
194 0 194 44 0 c39 0 45 -3 55 -27 19 -45 43 -88 53 -91 4 -2 8 -10 8 -18 0
-8 9 -23 19 -33 11 -11 21 -27 23 -37 1 -9 9 -19 16 -22 9 -3 12 24 12 111 0
62 2 116 5 118 2 3 17 4 32 3 l28 -1 3 -189z m702 155 c0 -39 -1 -40 -32 -37
-29 3 -33 7 -36 35 -3 26 1 32 20 36 47 9 48 8 48 -34z m1035 -164 l0 -200
-30 0 -30 0 -3 190 c-1 104 0 195 3 203 3 8 16 12 32 10 l28 -3 0 -200z
m-4072 167 c36 -38 39 -112 5 -134 l-22 -15 22 -12 c12 -6 22 -18 22 -25 0 -8
7 -16 15 -20 21 -8 19 -49 -4 -92 -32 -60 -43 -63 -183 -64 l-128 0 0 195 0
195 123 0 c122 0 124 0 150 -28z m492 -32 c0 -24 5 -36 16 -38 27 -5 31 -44 7
-69 -17 -19 -21 -35 -21 -90 1 -48 5 -69 14 -72 18 -5 29 -22 29 -43 0 -38
-103 -35 -113 3 -3 12 -10 18 -16 14 -8 -4 -11 26 -11 94 0 83 -3 102 -17 109
-16 9 -16 11 0 27 9 9 17 24 17 33 1 20 29 56 50 65 31 12 45 2 45 -33z m739
-51 c3 -17 6 -87 6 -154 0 -130 -4 -140 -49 -128 -20 5 -21 11 -21 152 0 81 3
151 7 154 3 4 16 7 28 7 17 0 24 -8 29 -31z m1806 -122 c0 -85 -2 -156 -5
-159 -3 -2 -18 -3 -35 0 l-30 4 0 123 c0 165 5 185 41 185 l29 0 0 -153z
m-4220 112 c0 -27 -39 -63 -69 -63 -26 -1 -26 -1 -29 -102 -3 -96 -4 -102 -25
-106 -12 -2 -32 -2 -44 0 -23 3 -23 6 -23 136 0 89 4 136 12 144 15 15 48 16
48 2 0 -5 7 -10 15 -10 8 0 15 4 15 9 0 11 44 18 78 12 14 -2 22 -10 22 -22z
m-262 -6 c26 -26 27 -30 27 -148 l0 -120 -30 3 c-16 2 -34 10 -38 19 -8 12
-12 11 -29 -7 -17 -19 -29 -21 -65 -17 -59 6 -75 24 -75 82 -1 56 19 79 79 89
47 8 60 16 65 41 4 27 -48 34 -66 10 -8 -11 -22 -16 -41 -13 -24 2 -30 7 -28
25 5 45 32 61 106 62 61 1 71 -2 95 -26z m792 17 c0 -5 12 -10 26 -10 14 0 23
4 19 10 -4 6 12 10 40 10 37 0 51 -5 70 -26 24 -25 25 -34 25 -145 0 -72 -4
-120 -11 -124 -5 -4 -21 -4 -35 -1 -23 6 -24 9 -24 103 0 76 -4 100 -17 115
-22 24 -41 23 -64 -4 -15 -19 -18 -40 -19 -115 l0 -93 -35 0 -35 0 0 145 0
145 30 0 c17 0 30 -4 30 -10z m936 1 c-3 -5 5 -12 19 -15 14 -4 25 -13 25 -22
0 -8 7 -17 15 -20 11 -5 15 -24 15 -81 0 -73 -1 -76 -37 -111 -34 -35 -40 -37
-98 -36 -86 1 -120 28 -130 102 -4 29 -5 69 -2 89 7 38 41 83 64 83 8 0 11 5
8 10 -4 6 18 10 60 10 36 0 64 -4 61 -9z m644 -1 c0 -5 9 -10 20 -10 11 0 20
5 20 10 0 6 23 10 51 10 28 0 48 -4 44 -9 -3 -5 4 -12 15 -16 19 -6 20 -15 20
-141 l0 -135 -32 3 -33 3 -3 104 c-1 58 -8 111 -14 118 -14 17 -58 17 -58 -1
0 -8 -7 -16 -15 -20 -12 -4 -15 -26 -15 -106 l0 -101 -32 3 -33 3 -3 125 c-4
157 -1 170 38 170 17 0 30 -4 30 -10z m566 -2 c37 -32 44 -41 44 -59 0 -12
-10 -23 -27 -30 -23 -8 -30 -6 -50 16 -28 30 -59 33 -68 5 -3 -11 -11 -20 -16
-20 -5 0 -9 -20 -9 -45 0 -25 4 -45 9 -45 5 0 11 -9 14 -20 4 -15 14 -20 37
-20 23 0 33 5 37 20 4 15 14 20 39 20 32 0 33 -2 32 -35 -1 -22 -6 -35 -15
-35 -7 0 -16 -6 -19 -14 -7 -18 -73 -30 -115 -21 -18 4 -45 20 -60 36 -27 27
-29 36 -29 105 0 61 4 80 22 104 12 17 28 30 35 30 7 0 13 5 13 10 0 14 108
12 126 -2z m307 -21 c20 -18 37 -41 37 -50 0 -10 5 -15 10 -12 6 4 10 -15 10
-49 0 -31 -4 -56 -9 -56 -5 0 -12 -13 -16 -30 -4 -16 -13 -30 -21 -30 -8 0
-14 -6 -14 -14 0 -31 -152 -31 -164 0 -3 8 -12 14 -21 14 -8 0 -15 9 -15 19 0
11 -4 23 -10 26 -5 3 -10 1 -10 -6 0 -7 -3 -9 -7 -6 -12 13 -2 132 12 139 7 4
15 18 19 30 8 33 53 56 112 57 43 1 55 -3 87 -32z m799 8 c28 -28 38 -77 38
-190 0 -53 -4 -74 -14 -78 -21 -8 -54 3 -60 20 -3 8 -10 11 -16 8 -6 -4 -8
-10 -5 -15 8 -13 -77 -23 -105 -12 -37 14 -54 39 -54 78 0 47 32 77 97 89 46
9 52 13 55 38 3 24 0 27 -26 27 -17 0 -32 -6 -36 -15 -8 -21 -76 -21 -76 1 0
24 19 54 35 54 8 0 15 5 15 10 0 6 28 10 64 10 54 0 67 -4 88 -25z m263 15
c-3 -5 5 -12 19 -16 24 -6 43 -45 31 -64 -4 -6 -21 -10 -39 -10 -25 0 -35 5
-39 20 -3 14 -14 20 -32 20 -18 0 -29 -6 -32 -20 -3 -11 -9 -20 -14 -20 -5 0
-9 -21 -9 -46 0 -25 4 -43 9 -39 5 3 11 -5 13 -17 4 -32 57 -39 65 -9 4 16 13
21 42 21 20 0 43 -5 51 -10 13 -9 13 -12 -2 -21 -10 -5 -18 -14 -18 -19 0 -6
-10 -20 -22 -32 -19 -19 -34 -23 -84 -23 -56 0 -63 3 -95 34 -33 33 -34 37
-33 110 0 67 3 79 26 104 14 15 31 27 37 27 7 0 9 5 6 10 -4 6 18 10 60 10 40
0 64 -4 60 -10z m431 1 c-3 -5 4 -11 17 -15 37 -9 71 -86 62 -143 -4 -25 -11
-51 -16 -57 -59 -71 -60 -71 -128 -70 -56 0 -70 4 -92 25 -37 35 -55 108 -39
162 13 45 45 87 67 87 7 0 13 5 13 10 0 6 27 10 61 10 33 0 58 -4 55 -9z m180
-5 c6 -15 44 -10 44 5 0 5 21 9 47 9 39 0 50 -5 73 -31 33 -36 40 -66 40 -175
l0 -84 -50 0 -49 0 -3 113 -3 112 -27 3 c-38 4 -48 -25 -48 -138 0 -83 -1 -88
-23 -94 -12 -3 -33 -3 -45 1 -21 5 -22 10 -22 133 0 71 3 135 6 144 8 20 53
21 60 2z m447 -8 c20 -21 22 -35 25 -136 2 -64 8 -110 13 -106 5 3 9 -2 9 -10
0 -18 -24 -24 -71 -15 -21 3 -45 2 -54 -4 -24 -13 -88 -3 -114 19 -16 14 -21
30 -21 66 0 34 4 48 14 48 8 0 16 6 19 14 3 8 28 17 56 21 49 7 71 24 71 54 0
17 -57 13 -64 -5 -4 -11 -17 -14 -48 -12 -23 2 -43 8 -45 13 -2 6 11 25 28 43
29 29 37 32 95 32 53 0 68 -4 87 -22z"/>
<path d="M2880 5840 c0 -16 7 -20 30 -20 23 0 30 4 30 20 0 16 -7 20 -30 20
-23 0 -30 -4 -30 -20z"/>
<path d="M3156 5651 c-4 -7 -5 -15 -2 -18 9 -9 19 4 14 18 -4 11 -6 11 -12 0z"/>
<path d="M3120 5610 c0 -5 5 -10 10 -10 6 0 10 5 10 10 0 6 -4 10 -10 10 -5 0
-10 -4 -10 -10z"/>
<path d="M3080 5530 c0 -5 5 -10 10 -10 6 0 10 5 10 10 0 6 -4 10 -10 10 -5 0
-10 -4 -10 -10z"/>
<path d="M2755 5370 c3 -5 10 -10 16 -10 5 0 9 5 9 10 0 6 -7 10 -16 10 -8 0
-12 -4 -9 -10z"/>
<path d="M4355 5340 c3 -5 11 -10 16 -10 6 0 7 5 4 10 -3 6 -11 10 -16 10 -6
0 -7 -4 -4 -10z"/>
<path d="M4608 5273 c6 -2 18 -2 25 0 6 3 1 5 -13 5 -14 0 -19 -2 -12 -5z"/>
<path d="M6090 5010 c0 -5 9 -10 21 -10 11 0 17 5 14 10 -3 6 -13 10 -21 10
-8 0 -14 -4 -14 -10z"/>
<path d="M2120 4125 c0 -8 0 -17 0 -20 0 -3 3 -4 7 -2 10 3 11 37 1 37 -4 0
-8 -7 -8 -15z"/>
<path d="M2182 3503 c5 -25 28 -28 28 -4 0 12 -6 21 -16 21 -9 0 -14 -7 -12
-17z"/>
<path d="M3155 4500 c3 -5 8 -10 11 -10 2 0 4 5 4 10 0 6 -5 10 -11 10 -5 0
-7 -4 -4 -10z"/>
<path d="M3157 4464 c-10 -10 -8 -76 2 -93 6 -9 11 2 16 34 6 44 -3 74 -18 59z"/>
<path d="M2970 4364 c0 -9 7 -14 17 -12 25 5 28 28 4 28 -12 0 -21 -6 -21 -16z"/>
<path d="M2920 4276 c0 -8 5 -18 10 -21 6 -3 10 1 10 9 0 8 -4 18 -10 21 -5 3
-10 -1 -10 -9z"/>
<path d="M3219 3618 c-6 -20 -7 -48 -2 -66 4 -18 8 -20 19 -11 19 16 19 79 -1
79 -8 0 -15 -1 -16 -2z"/>
<path d="M5060 4229 c0 -5 5 -7 10 -4 6 3 10 8 10 11 0 2 -4 4 -10 4 -5 0 -10
-5 -10 -11z"/>
<path d="M5058 4175 c-4 -19 -1 -25 13 -25 20 0 23 8 13 34 -9 24 -21 19 -26
-9z"/>
<path d="M1666 2855 c-37 -56 -9 -145 45 -145 19 0 29 5 29 15 0 9 7 27 16 40
14 22 14 27 0 56 -9 18 -16 38 -16 46 0 24 -56 16 -74 -12z"/>
<path d="M3430 2773 c-25 -10 -52 -41 -45 -52 11 -19 73 -13 85 8 22 42 5 61
-40 44z"/>
<path d="M2574 2936 c-3 -19 -3 -39 1 -45 10 -17 95 -14 101 4 4 8 12 15 20
15 8 0 14 9 14 20 0 11 -7 20 -15 20 -8 0 -15 5 -15 10 0 6 -22 10 -50 10 -48
0 -49 -1 -56 -34z"/>
<path d="M2583 2814 c-8 -3 -13 -24 -13 -49 0 -50 4 -52 83 -47 l57 4 0 44 c0
42 -1 44 -29 44 -16 0 -41 2 -57 5 -16 2 -35 2 -41 -1z"/>
<path d="M1183 2755 c-26 -29 -16 -46 23 -43 32 3 37 7 40 31 2 23 -1 27 -24
27 -15 -1 -33 -7 -39 -15z"/>
<path d="M2945 2860 c-4 -11 -10 -18 -15 -15 -11 7 -20 -20 -20 -58 0 -41 39
-80 75 -75 14 2 25 7 24 12 0 5 6 13 15 18 24 13 20 73 -6 108 -26 35 -63 40
-73 10z"/>
<path d="M4431 2854 c-23 -29 -27 -77 -11 -118 7 -20 17 -26 39 -26 43 0 61
23 61 81 0 36 -5 54 -20 69 -27 27 -44 25 -69 -6z"/>
<path d="M5248 2773 c-10 -2 -18 -8 -18 -11 0 -4 -3 -17 -6 -29 -6 -21 -3 -23
30 -23 36 0 37 1 34 32 -3 33 -11 39 -40 31z"/>
<path d="M5960 2865 c0 -8 -7 -15 -15 -15 -12 0 -15 -13 -15 -58 0 -51 3 -60
24 -71 40 -22 66 -11 82 34 16 47 5 85 -32 110 -29 19 -44 19 -44 0z"/>
<path d="M6580 2773 c-25 -11 -52 -41 -45 -52 10 -17 61 -13 80 5 30 30 6 63
-35 47z"/>
<path d="M600 2194 l0 -146 32 -34 c32 -33 34 -34 116 -34 95 0 111 9 130 75
6 22 13 95 14 163 l3 122 -32 0 -33 0 0 -123 c0 -131 -10 -172 -45 -181 -36
-10 -70 -6 -93 10 -21 14 -22 22 -22 155 l0 139 -35 0 -35 0 0 -146z"/>
<path d="M1280 2313 c0 -22 2 -25 10 -13 8 13 10 12 10 -2 0 -11 8 -18 20 -18
16 0 20 7 20 30 0 27 -3 30 -30 30 -26 0 -30 -4 -30 -27z"/>
<path d="M2487 2333 c-4 -3 -7 -13 -7 -22 0 -14 2 -14 10 -1 8 12 10 11 10 -7
0 -18 6 -23 25 -23 21 0 25 5 25 30 0 26 -4 30 -28 30 -16 0 -32 -3 -35 -7z"/>
<path d="M2810 2281 c0 -58 -14 -88 -26 -57 -4 12 -20 16 -55 16 -27 0 -49 -4
-49 -10 0 -5 -7 -10 -15 -10 -17 0 -55 -78 -55 -112 0 -25 32 -92 55 -115 20
-19 115 -18 115 2 0 8 5 15 10 15 6 0 13 -7 16 -15 4 -9 19 -15 40 -15 l34 0
0 180 0 180 -35 0 -35 0 0 -59z m-26 -95 c22 -19 26 -32 26 -76 0 -44 -4 -57
-26 -76 -32 -30 -47 -30 -79 1 -21 22 -25 35 -25 80 0 42 4 55 15 55 8 0 15 5
15 10 0 8 20 21 47 29 1 1 13 -10 27 -23z"/>
<path d="M3410 2275 c0 -37 -4 -65 -10 -65 -5 0 -10 7 -10 15 0 11 -12 15 -51
15 -45 0 -56 -4 -81 -30 -52 -55 -59 -117 -20 -179 29 -46 39 -51 96 -51 43 0
56 3 56 15 0 8 5 15 10 15 6 0 10 -7 10 -15 0 -10 11 -15 35 -15 l35 0 0 180
0 180 -35 0 -35 0 0 -65z m-34 -91 c33 -16 34 -17 34 -80 0 -49 -3 -64 -14
-64 -8 0 -16 -5 -18 -12 -8 -24 -46 -18 -72 13 -36 43 -36 101 0 134 32 30 27
29 70 9z"/>
<path d="M3880 2279 c0 -55 -2 -60 -17 -53 -10 4 -41 10 -70 12 -47 3 -55 1
-82 -27 -29 -29 -31 -37 -31 -101 0 -58 4 -73 20 -87 11 -10 20 -23 20 -30 0
-9 19 -13 65 -13 51 0 66 4 74 18 9 16 10 16 16 0 5 -12 18 -18 37 -18 23 0
29 4 24 16 -3 9 -6 90 -6 180 l0 164 -25 0 c-24 0 -25 -3 -25 -61z m-70 -77
c0 -5 11 -14 25 -20 14 -6 25 -18 25 -27 0 -8 5 -15 10 -15 6 0 10 -13 10 -30
0 -16 -4 -30 -9 -30 -5 0 -12 -11 -15 -25 -10 -39 -48 -52 -80 -29 -23 17 -25
26 -26 87 0 54 3 67 15 67 9 0 18 7 21 15 6 16 24 21 24 7z"/>
<path d="M4448 2333 c-1 -5 -2 -86 -2 -180 l-1 -173 123 0 c67 0 122 4 122 9
0 35 -13 41 -84 41 -43 0 -77 5 -84 12 -8 8 -12 57 -12 155 l0 143 -30 0 c-16
0 -31 -3 -32 -7z"/>
<path d="M5189 2336 c-2 -2 -3 -83 -1 -180 l3 -176 29 0 29 0 3 78 3 77 75 0
75 0 0 -78 0 -77 33 0 32 0 0 180 0 180 -35 0 -34 0 6 -50 c4 -34 1 -59 -7
-75 -12 -22 -20 -25 -76 -25 -72 0 -74 3 -74 91 0 58 0 59 -28 59 -16 0 -31
-2 -33 -4z"/>
<path d="M5835 2160 l0 -180 33 0 c22 0 32 5 32 15 0 8 5 15 10 15 6 0 10 -7
10 -15 0 -12 13 -15 63 -15 60 1 63 2 85 36 16 27 22 50 22 96 0 54 -3 63 -32
94 -29 30 -38 34 -85 34 -40 0 -53 -4 -53 -15 0 -8 -4 -15 -10 -15 -11 0 -15
34 -11 93 2 36 1 37 -31 37 l-33 0 0 -180z m155 30 c0 -5 6 -10 14 -10 16 0
26 -30 26 -81 0 -41 -37 -89 -68 -89 -54 0 -83 121 -40 167 21 23 68 32 68 13z"/>
<path d="M970 2110 l0 -130 35 0 35 0 0 100 c0 82 3 100 15 100 8 0 15 7 15
15 0 19 15 19 45 -1 24 -16 25 -21 25 -115 l0 -99 35 0 35 0 0 105 c0 90 -3
108 -19 124 -11 11 -17 22 -13 25 3 3 -20 6 -51 6 -44 0 -57 -3 -57 -15 0 -8
-7 -15 -15 -15 -8 0 -15 7 -15 15 0 10 -11 15 -35 15 l-35 0 0 -130z"/>
<path d="M1281 2195 c0 -35 2 -46 9 -35 6 10 9 -12 7 -67 -1 -46 -5 -83 -9
-83 -5 0 -8 -7 -8 -15 0 -11 11 -15 36 -15 29 0 35 3 30 16 -3 9 -6 67 -6 130
0 107 -1 114 -20 114 -14 0 -20 -7 -21 -22 -1 -22 -1 -22 -9 2 -6 20 -8 15 -9
-25z"/>
<path d="M1400 2232 c0 -4 8 -23 19 -42 10 -19 22 -50 25 -67 4 -18 11 -33 16
-33 4 0 10 -18 14 -40 3 -22 11 -40 16 -40 6 0 10 -6 10 -14 0 -17 17 -24 47
-18 16 3 23 11 23 28 0 14 6 27 14 30 8 3 17 22 21 42 4 20 13 45 21 56 8 11
14 33 14 49 0 15 7 30 15 33 26 10 16 24 -18 24 -28 0 -34 -5 -50 -40 -9 -22
-17 -49 -17 -60 0 -10 -6 -23 -13 -27 -8 -4 -16 -16 -20 -25 -12 -32 -24 -19
-31 32 -4 28 -11 50 -16 50 -5 0 -12 16 -16 35 -6 32 -9 35 -40 35 -19 0 -34
-3 -34 -8z"/>
<path d="M1741 2220 c-12 -11 -27 -37 -32 -57 -12 -52 -1 -153 17 -153 8 0 14
-6 14 -14 0 -16 67 -27 117 -19 36 6 88 45 76 56 -10 11 -73 8 -73 -3 0 -5
-11 -12 -25 -16 -48 -12 -85 47 -50 76 10 8 12 16 6 20 -15 9 -26 70 -13 70 6
0 18 8 28 17 15 16 17 16 29 0 7 -9 17 -17 23 -17 27 0 19 -52 -12 -72 -6 -5
-2 -8 10 -8 12 0 36 -3 53 -6 31 -6 31 -6 31 35 0 28 -5 44 -15 47 -8 4 -15
10 -15 15 0 5 -9 18 -20 29 -28 28 -115 27 -149 0z"/>
<path d="M2010 2126 c0 -63 -3 -121 -6 -130 -5 -13 1 -16 30 -16 l35 0 3 98 3
97 34 3 c23 2 35 9 38 23 3 10 9 19 14 19 5 0 9 5 9 10 0 15 -97 12 -104 -2
-5 -10 -7 -10 -12 0 -3 6 -14 12 -25 12 -18 0 -19 -8 -19 -114z"/>
<path d="M2214 2215 c-3 -13 -12 -29 -19 -35 -31 -25 52 -100 111 -100 30 0
46 -15 42 -41 -4 -31 -51 -38 -79 -13 -18 16 -74 22 -87 10 -3 -3 8 -18 23
-32 25 -23 37 -26 101 -26 48 0 78 4 87 13 32 33 30 119 -4 119 -9 0 -24 7
-33 15 -8 8 -28 15 -43 15 -16 0 -37 6 -47 13 -15 11 -17 17 -7 35 14 26 66
31 75 7 3 -9 19 -15 41 -15 24 0 35 4 35 15 0 8 -6 15 -14 15 -8 0 -16 7 -20
15 -4 11 -23 15 -80 15 -72 0 -76 -1 -82 -25z"/>
<path d="M2500 2126 c0 -66 -4 -117 -10 -121 -21 -13 -9 -25 25 -25 l35 0 0
130 0 130 -25 0 -25 0 0 -114z"/>
<path d="M2963 2215 c-31 -30 -29 -35 16 -35 25 0 41 5 45 15 8 22 29 18 56
-11 21 -21 22 -27 10 -34 -8 -5 -20 -10 -26 -10 -7 0 -25 -7 -40 -15 -16 -8
-39 -15 -50 -15 -32 0 -44 -48 -28 -107 6 -21 12 -23 74 -23 45 0 70 4 74 13
5 10 7 10 12 0 3 -7 19 -13 35 -13 29 0 39 13 19 25 -6 3 -10 49 -10 103 0
122 -9 133 -103 131 -50 -1 -66 -5 -84 -24z m135 -137 c2 -9 -4 -28 -14 -42
-23 -36 -66 -35 -83 1 -7 16 -9 29 -3 31 5 1 18 9 28 17 25 19 68 15 72 -7z"/>
<path d="M4023 2203 c-30 -33 -33 -42 -33 -100 0 -34 3 -63 8 -63 4 0 15 -14
24 -30 16 -29 20 -30 86 -30 53 0 71 4 76 15 3 8 12 15 21 15 8 0 15 7 15 15
0 10 -10 15 -34 15 -21 0 -36 -6 -40 -15 -9 -23 -48 -17 -76 12 l-25 26 23 15
c25 16 30 42 8 42 -16 0 -31 34 -21 50 3 5 13 10 21 10 8 0 14 7 14 15 0 21
10 19 45 -9 27 -22 28 -26 17 -51 -7 -14 -10 -31 -7 -36 11 -16 64 -10 73 9
12 25 -6 102 -24 102 -8 0 -17 7 -20 15 -5 11 -22 15 -63 15 -52 0 -58 -3 -88
-37z"/>
<path d="M4766 2220 c-27 -27 -14 -52 21 -44 16 4 32 13 36 21 13 21 43 15 61
-12 19 -29 14 -45 -14 -45 -10 0 -21 -4 -24 -9 -4 -5 -24 -12 -46 -16 -30 -5
-43 -13 -54 -37 -10 -19 -12 -35 -6 -46 5 -9 11 -25 14 -34 4 -12 17 -19 38
-20 53 -2 92 3 106 14 8 7 12 7 12 -1 0 -6 14 -11 31 -11 24 0 30 3 25 16 -3
9 -6 57 -6 108 0 124 -10 136 -106 135 -54 0 -73 -4 -88 -19z m127 -132 c7
-11 6 -25 -3 -47 -15 -37 -56 -43 -83 -11 -23 27 -21 39 8 46 13 3 30 12 36
20 14 17 29 14 42 -8z"/>
<path d="M5568 2219 c-21 -22 -23 -39 -5 -40 32 -3 63 4 70 17 14 25 74 -14
63 -41 -3 -8 -14 -15 -25 -15 -11 0 -22 -4 -25 -9 -4 -5 -25 -12 -47 -16 -29
-5 -43 -13 -46 -26 -3 -10 -9 -19 -14 -19 -14 0 -10 -40 5 -56 8 -7 16 -19 18
-25 5 -15 125 -14 143 1 11 9 15 9 15 1 0 -6 14 -11 30 -11 17 0 30 5 30 10 0
6 -4 10 -10 10 -6 0 -10 41 -10 103 0 128 -7 137 -108 136 -53 0 -71 -5 -84
-20z m116 -115 c18 -7 21 -46 6 -75 -16 -29 -65 -25 -86 6 -9 14 -15 27 -13
28 7 6 74 47 76 47 1 0 8 -3 17 -6z"/>
<path d="M6172 2216 c-18 -18 -20 -25 -10 -33 17 -15 68 -4 68 14 0 17 36 9
59 -12 18 -18 7 -45 -18 -45 -11 0 -22 -4 -25 -9 -4 -5 -24 -12 -46 -16 -24
-4 -40 -12 -40 -20 0 -8 -7 -18 -16 -23 -11 -6 -13 -16 -9 -35 4 -15 11 -27
16 -27 5 0 9 -7 9 -15 0 -10 11 -15 38 -16 64 -2 97 3 105 15 6 8 10 8 14 -1
2 -7 14 -13 26 -13 21 0 22 3 19 112 -5 140 -11 148 -104 147 -52 0 -67 -4
-86 -23z m116 -118 c29 -29 2 -88 -39 -88 -21 0 -49 24 -53 44 -1 6 64 56 74
56 3 0 11 -5 18 -12z"/>
<path d="M6439 2153 c-1 -49 -3 -107 -4 -130 -3 -35 0 -42 19 -45 42 -8 46 0
46 85 0 84 7 102 52 135 14 11 20 9 42 -15 24 -25 26 -35 26 -114 0 -94 6
-104 50 -87 16 6 20 12 13 16 -8 5 -11 39 -10 104 3 121 -8 138 -90 138 -40 0
-53 -4 -53 -15 0 -8 -7 -15 -15 -15 -9 0 -18 7 -21 15 -4 8 -17 15 -30 15 -23
0 -24 -2 -25 -87z"/>
<path d="M6772 2215 c-21 -21 -22 -24 -6 -33 20 -11 55 -4 69 15 13 17 53 6
60 -18 8 -24 -1 -39 -25 -39 -10 0 -21 -4 -24 -9 -3 -5 -21 -12 -39 -15 -19
-3 -43 -17 -54 -29 -21 -25 -24 -68 -5 -75 7 -2 12 -10 12 -18 0 -19 146 -20
153 -1 4 10 6 10 6 0 1 -15 61 -18 61 -3 0 6 -4 10 -10 10 -6 0 -10 44 -10
111 0 71 -4 108 -10 104 -6 -3 -13 1 -16 9 -5 13 -21 16 -73 15 -55 -1 -70 -5
-89 -24z m126 -134 c7 -46 -6 -71 -37 -71 -30 0 -61 22 -61 43 0 14 70 57 85
53 6 -1 11 -13 13 -25z"/>
</g>
</svg>
