<svg xmlns="http://www.w3.org/2000/svg" viewBox="0 0 859.71 463.37"><defs><style>.cls-1{fill:#080e2c;}</style></defs><g id="Capa_2" data-name="Capa 2"><g id="Capa_1-2" data-name="Capa 1"><path class="cls-1" d="M193.06,251.23H442.25V0S193.06,249.7,193.06,251.23Z"/><path class="cls-1" d="M448.77,0V153.28H603.3S449.71,0,448.77,0Z"/><path class="cls-1" d="M603.3,158.27H507.22v96.86S603.3,158.86,603.3,158.27Z"/><path class="cls-1" d="M502.16,255.11V202.7H449.32S501.84,255.11,502.16,255.11Z"/><path class="cls-1" d="M77.44,406.71l77.34-106.16V462.29H123V396.81L77.44,459.74,31.76,396.81v65.48H0V300.55Z"/><path class="cls-1" d="M240.56,301,312.7,462.29H278.3l-10.69-24H213.5l-10.68,24H168.51Zm14.51,109.2-14.41-33.43-14.61,33.43Z"/><path class="cls-1" d="M405.64,304.28v31.46H366.82V462.29H335V335.74H296.05V304.28Z"/><path class="cls-1" d="M478.28,463.37q-33.13-.11-56.56-23.33-23.52-23.54-23.53-56.66t23.53-56.75Q445.35,303,478.28,303l-.1.39c24.4,0,43.8,10.84,56.85,23.43l-22.64,22.65q-14.31-14.13-34-14.12a45.79,45.79,0,0,0-33.92,14.12q-14.11,14.31-14.11,34a48.1,48.1,0,0,0,82.14,33.91L535.13,440A79.81,79.81,0,0,1,478.28,463.37Z"/><path class="cls-1" d="M667.76,326.63q23.63,23.63,23.63,56.75T667.76,440q-23.52,23.32-56.65,23.33T554.45,440q-23.52-23.54-23.52-56.66t23.52-56.75Q578.08,303,611.11,303T667.76,326.63Zm-90.67,22.54Q563,363.48,563,383.19a48.17,48.17,0,1,0,14.11-34Z"/><path class="cls-1" d="M782.37,406.71l77.34-106.16V462.29H828V396.81l-45.58,62.93-45.68-62.93v65.48H704.93V300.55Z"/></g></g></svg>