<?xml version="1.0" standalone="no"?>
<!DOCTYPE svg PUBLIC "-//W3C//DTD SVG 20010904//EN"
 "http://www.w3.org/TR/2001/REC-SVG-20010904/DTD/svg10.dtd">
<svg version="1.0" xmlns="http://www.w3.org/2000/svg"
 width="300.000000pt" height="384.000000pt" viewBox="0 0 300.000000 384.000000"
 preserveAspectRatio="xMidYMid meet">
<metadata>
Created by potrace 1.10, written by Peter Selinger 2001-2011
</metadata>
<g transform="translate(0.000000,384.000000) scale(0.100000,-0.100000)"
fill="#ffffff" stroke="none">
<path d="M1301 3824 c-267 -45 -501 -173 -721 -393 -148 -149 -235 -268 -329
-451 -114 -224 -187 -449 -228 -711 -25 -160 -25 -538 0 -698 24 -149 75 -351
122 -476 52 -140 163 -352 243 -465 91 -130 293 -330 409 -408 446 -296 960
-296 1406 0 116 78 318 278 409 408 80 113 191 325 243 465 47 125 98 327 122
476 25 160 25 538 0 698 -24 149 -75 351 -122 476 -52 140 -163 352 -243 465
-91 128 -293 330 -407 406 -281 187 -596 259 -904 208z m385 -29 c265 -47 491
-171 709 -390 150 -150 233 -267 335 -469 274 -544 314 -1191 110 -1780 -235
-680 -766 -1126 -1340 -1126 -639 0 -1217 553 -1405 1345 -46 194 -59 316 -59
545 0 380 66 680 219 995 235 484 612 801 1047 880 101 18 278 18 384 0z"/>
<path d="M1460 3760 c0 -11 5 -20 10 -20 6 0 10 -5 10 -11 0 -7 -12 -9 -35 -5
-34 7 -35 6 -35 -24 0 -30 1 -31 35 -24 31 5 35 4 35 -15 0 -17 -6 -21 -35
-21 -19 0 -35 5 -35 10 0 6 -7 10 -15 10 -10 0 -15 -11 -15 -35 0 -24 5 -35
15 -35 8 0 15 5 15 10 0 6 16 10 35 10 30 0 35 -3 35 -24 0 -22 -5 -23 -72
-29 -107 -9 -220 -42 -333 -96 -270 -130 -470 -340 -626 -656 -265 -539 -262
-1251 7 -1789 79 -157 164 -276 284 -397 158 -159 300 -247 496 -305 127 -37
320 -44 455 -16 219 45 383 138 564 317 140 138 225 258 309 436 128 273 185
538 186 864 0 256 -29 449 -101 668 -179 547 -595 936 -1039 973 -75 6 -80 8
-80 30 0 21 5 24 35 24 19 0 35 -4 35 -10 0 -5 7 -10 15 -10 10 0 15 11 15 35
0 24 -5 35 -15 35 -8 0 -15 -4 -15 -10 0 -5 -16 -10 -35 -10 -29 0 -35 4 -35
21 0 19 4 20 35 15 34 -7 35 -6 35 24 0 30 -1 31 -35 24 -35 -6 -50 8 -20 20
8 3 15 12 15 21 0 11 -12 15 -50 15 -43 0 -50 -3 -50 -20z m17 -792 c-3 -321
-10 -600 -16 -648 -54 -411 -322 -740 -706 -869 -109 -37 -244 -61 -336 -61
l-68 0 -10 38 c-48 181 -69 439 -53 639 37 454 194 836 455 1109 111 116 193
180 317 243 135 69 269 107 384 110 l38 1 -5 -562z m263 531 c94 -23 274 -113
361 -178 95 -73 237 -225 309 -332 78 -117 158 -282 204 -421 119 -358 136
-800 45 -1142 l-11 -39 -101 6 c-361 21 -673 211 -861 525 -21 35 -36 66 -33
68 8 8 238 7 281 -1 27 -6 37 -4 42 8 5 13 11 13 51 1 25 -8 72 -14 103 -14
48 0 59 -3 62 -18 4 -15 22 -21 94 -30 49 -6 105 -11 124 -11 62 -1 103 -10
118 -25 13 -13 7 -14 -49 -11 -63 4 -64 4 -15 -5 61 -11 85 -30 60 -50 -19
-16 -196 -17 -229 -1 -29 14 -166 31 -233 30 -46 -1 -35 -4 53 -14 132 -14
177 -24 170 -35 -3 -5 11 -6 30 -3 37 6 142 -14 151 -29 5 -7 -66 -4 -156 7
-25 3 -31 2 -20 -5 10 -7 1 -8 -30 -4 -25 4 -48 12 -52 17 -9 15 -137 31 -233
30 -44 -1 -71 1 -60 3 11 3 29 9 40 14 11 5 27 11 35 14 8 4 -9 4 -38 1 -45
-3 -52 -2 -42 9 9 12 0 18 -45 35 -64 24 -78 26 -73 9 2 -6 23 -18 47 -26 57
-19 47 -24 -24 -12 -68 11 -101 34 -65 45 l22 7 -21 15 c-12 8 -21 18 -21 24
0 11 67 12 74 1 5 -8 66 -20 186 -38 25 -3 42 -3 38 1 -3 3 -38 11 -77 16 -40
6 -90 17 -113 25 -22 8 -63 14 -90 14 -47 0 -50 -1 -44 -22 4 -13 9 -32 11
-43 6 -24 31 -44 65 -51 32 -7 90 -33 90 -41 0 -5 -34 2 -66 14 -17 6 -16 5 1
-14 11 -12 33 -25 48 -29 20 -4 25 -9 16 -15 -8 -5 2 -10 27 -14 21 -3 51 -8
67 -10 41 -7 32 10 -13 24 -22 6 -40 17 -40 22 0 6 6 9 14 6 8 -3 29 -2 47 3
25 7 37 6 49 -5 9 -8 25 -15 35 -15 10 0 32 -4 49 -9 17 -6 47 -15 66 -20 l35
-11 -40 6 c-22 3 -65 8 -95 12 -30 4 -62 12 -70 17 -13 7 -13 6 -2 -7 13 -17
107 -32 187 -29 28 0 96 1 153 0 92 -1 109 2 158 26 53 26 54 28 54 69 0 23
-6 51 -14 62 -13 18 -11 24 15 64 67 100 14 206 -137 270 -42 18 -67 21 -200
19 -84 0 -156 1 -161 4 -4 3 -27 10 -50 16 -41 11 -42 12 -25 31 48 53 51 63
28 96 -13 18 -12 25 10 62 13 22 40 50 59 62 29 18 35 27 35 57 0 20 13 58 32
92 26 47 41 62 82 82 40 19 56 33 73 69 12 25 25 59 28 75 4 23 3 25 -4 10
-11 -25 -45 -56 -36 -34 9 26 -13 42 -64 47 -53 5 -63 -4 -41 -38 8 -12 10
-11 10 8 0 12 6 22 14 22 14 0 16 -16 4 -35 -3 -5 -8 -31 -12 -57 -4 -25 -15
-52 -24 -59 -14 -11 -15 -11 -4 1 6 8 12 25 11 40 l-1 25 -8 -25 c-7 -22 -8
-20 -9 15 -1 22 -7 49 -14 60 -15 24 -42 33 -34 10 8 -18 -4 -20 -23 -2 -8 6
-7 3 3 -9 9 -11 17 -26 17 -32 0 -16 27 -15 34 1 3 6 4 -11 3 -40 -2 -29 0
-56 5 -61 11 -11 -32 -102 -68 -145 -12 -15 -37 -55 -54 -90 -39 -76 -56 -95
-71 -80 -7 7 10 51 60 152 39 77 71 148 71 156 0 9 5 13 10 10 6 -3 10 1 10 9
0 8 -5 18 -10 21 -6 4 -8 15 -5 25 4 12 -1 22 -13 29 -23 12 -34 55 -19 70 15
15 84 14 90 -1 3 -8 6 -6 6 5 1 14 -8 17 -49 17 -33 0 -50 -4 -50 -12 0 -7 -6
-5 -12 6 -22 39 49 126 105 126 9 0 17 7 17 15 0 8 -6 15 -12 15 -9 0 -8 3 2
9 19 13 29 5 23 -18 -3 -13 2 -20 20 -24 42 -11 76 -47 91 -95 10 -34 15 -40
15 -22 1 41 -33 93 -75 115 -26 13 -39 26 -36 37 4 21 -13 31 -39 23 -12 -4
-19 -13 -17 -23 3 -11 -9 -24 -35 -37 -21 -11 -46 -33 -55 -50 -9 -16 -23 -35
-29 -43 -17 -18 -16 -85 1 -127 15 -35 34 -51 22 -18 -4 10 -4 14 0 10 5 -4 9
-33 11 -64 3 -53 -1 -66 -59 -183 -36 -72 -64 -118 -66 -108 -3 18 -81 58
-110 58 -8 0 -36 -14 -62 -30 -46 -29 -47 -32 -53 -90 -4 -35 -2 -71 4 -87 11
-28 15 -56 23 -161 l4 -52 -39 -6 c-21 -4 -47 -13 -56 -21 -16 -13 -16 -13 4
-4 30 15 104 13 126 -3 15 -12 10 -14 -44 -20 -69 -8 -88 -2 -38 13 20 5 26 9
14 10 -11 0 -33 -6 -50 -13 -26 -12 -28 -15 -12 -21 10 -4 38 -5 61 -2 47 7
58 3 50 -18 -4 -9 -24 -13 -59 -13 l-54 1 -21 49 c-69 160 -80 285 -87 937
l-6 544 69 -8 c38 -4 103 -16 144 -26z m295 -617 c-4 -28 -3 -32 4 -17 8 16
10 17 10 3 1 -9 9 -24 18 -33 9 -10 18 -29 19 -44 2 -21 -2 -18 -21 19 -13 25
-24 38 -25 30 0 -13 -1 -13 -10 0 -13 20 -13 93 0 85 6 -4 8 -23 5 -43z m205
3 c-6 -16 -6 -25 0 -25 6 0 9 -15 9 -32 -2 -31 -2 -31 -6 -5 -2 15 -11 27 -19
27 -16 0 -19 16 -4 25 6 3 10 15 10 26 0 11 4 18 10 14 6 -4 6 -15 0 -30z m29
-6 c-13 -26 -23 -18 -14 10 3 12 11 19 16 16 5 -4 5 -14 -2 -26z m31 -23 c0
-6 -41 -76 -45 -76 -3 0 5 49 10 68 4 11 35 18 35 8z m-83 -83 c-4 -3 -7 0 -7
7 0 7 3 10 7 7 3 -4 3 -10 0 -14z m-140 -40 c-4 -3 -7 0 -7 7 0 7 3 10 7 7 3
-4 3 -10 0 -14z m20 -155 c-3 -8 -6 -5 -6 6 -1 11 2 17 5 13 3 -3 4 -12 1 -19z
m-27 -33 c-7 -9 -15 -13 -18 -10 -3 2 1 11 8 20 7 9 15 13 18 10 3 -2 -1 -11
-8 -20z m-193 -56 c24 -11 43 -27 43 -35 0 -8 14 -20 31 -26 20 -7 28 -15 25
-25 -3 -8 -1 -24 5 -35 7 -12 7 -24 2 -29 -6 -6 -15 1 -23 17 -8 14 -26 32
-41 39 -24 13 -28 12 -44 -5 -10 -11 -23 -20 -30 -20 -16 0 -36 46 -28 67 4
11 3 14 -6 9 -9 -6 -10 -25 -6 -64 l6 -57 -15 33 c-10 21 -20 31 -27 26 -12
-7 -9 17 8 63 11 31 -11 4 -25 -30 l-12 -32 3 32 c3 26 1 30 -10 22 -8 -7 -13
-8 -13 -1 0 10 89 72 104 72 5 0 29 -9 53 -21z m-352 -182 c18 -155 38 -224
98 -346 121 -248 354 -452 618 -541 91 -31 248 -60 324 -60 35 0 66 -4 69 -8
8 -14 -60 -197 -113 -308 -122 -248 -333 -488 -525 -595 l-41 -23 35 40 c20
21 55 70 79 107 24 37 48 67 53 67 12 0 -14 -48 -57 -104 -19 -25 -30 -46 -25
-46 15 0 103 137 95 149 -3 7 2 11 14 11 26 0 36 17 21 35 -16 20 0 19 28 -1
13 -9 22 -11 22 -4 0 15 -46 34 -66 26 -16 -6 -16 -8 0 -25 16 -18 16 -19 -7
-23 -13 -3 -33 1 -43 9 -10 7 -26 13 -36 13 -10 0 -18 6 -18 14 0 9 18 16 52
20 29 4 55 12 59 17 3 6 20 -1 38 -17 23 -19 31 -33 27 -47 -3 -14 -2 -17 6
-9 14 14 1 50 -24 63 -20 11 -20 11 1 33 12 13 24 39 28 59 12 75 -87 118
-142 62 -30 -29 -32 -56 -5 -80 16 -15 22 -15 35 -5 11 9 18 10 29 1 10 -9 16
-8 25 3 10 12 8 17 -8 25 -13 7 -22 8 -26 1 -10 -16 -55 -12 -55 5 0 8 7 15
16 15 8 0 12 -5 9 -10 -3 -6 -1 -10 5 -10 20 0 24 32 6 46 -16 11 -16 13 4 19
74 23 124 -48 81 -115 -19 -29 -163 -8 -145 21 3 5 0 9 -6 9 -15 0 -32 -51
-26 -81 3 -18 -1 -29 -16 -38 -27 -17 -33 -8 -13 23 9 14 14 30 10 37 -6 8
-10 7 -16 -2 -7 -11 -9 -11 -9 -1 0 7 -4 11 -9 8 -5 -3 -8 1 -7 10 1 12 -10
18 -38 21 -38 4 -39 4 -33 -27 4 -16 5 -30 3 -30 -15 0 -66 24 -66 31 0 5 12
14 26 20 15 5 24 13 20 16 -9 10 -60 -31 -64 -52 -2 -9 0 -21 5 -26 14 -14 73
-29 73 -18 0 5 -8 9 -18 9 -10 0 -27 7 -38 16 -18 15 -18 15 4 10 75 -19 74
-16 31 -148 -30 -93 -43 -117 -55 -105 -4 3 -15 68 -25 144 -27 201 -21 188
-82 190 -39 2 -61 -3 -94 -23 -24 -13 -42 -28 -41 -32 0 -4 -5 -21 -13 -39
-14 -29 -16 -30 -26 -14 -10 16 -8 20 14 30 14 7 23 14 20 17 -3 3 -15 0 -27
-6 -12 -6 -29 -9 -38 -5 -14 5 -14 4 0 -12 20 -23 48 -78 48 -94 0 -7 -8 -5
-20 6 -20 18 -20 18 -17 -6 4 -21 9 -24 46 -24 24 0 41 -5 41 -11 0 -7 15 -35
34 -62 l33 -50 -51 -4 c-44 -3 -54 0 -73 22 -12 14 -23 31 -23 37 0 25 -63 47
-127 45 -72 -2 -77 7 -45 69 13 26 17 62 18 159 2 132 -5 160 -36 160 -10 0
-22 5 -25 10 -10 16 -21 12 -33 -14 -14 -30 -4 -41 19 -20 11 10 19 12 24 4 3
-6 1 -9 -6 -8 -7 2 -14 -6 -16 -17 -3 -16 -2 -17 6 -5 9 13 11 13 11 1 0 -11
4 -10 16 5 15 18 15 18 9 -8 -4 -22 -2 -28 12 -29 10 0 13 -3 7 -5 -7 -3 -10
-14 -7 -24 5 -18 3 -19 -27 -9 -26 10 -35 9 -48 -4 -14 -15 -14 -17 1 -23 10
-3 24 -1 33 6 22 19 36 0 32 -44 -2 -20 -6 -36 -10 -36 -4 0 -19 -11 -32 -25
-26 -25 -26 -51 0 -89 11 -17 13 -13 12 32 -1 28 2 55 6 59 4 4 6 -24 5 -64
-2 -39 -7 -69 -11 -67 -4 3 -8 -2 -8 -12 0 -13 -4 -11 -20 7 -10 13 -19 19
-20 12 0 -6 5 -15 10 -18 6 -3 10 -14 10 -23 0 -12 -6 -7 -20 13 -22 33 -26
50 -9 39 7 -4 9 -2 5 7 -3 8 -9 22 -12 32 -10 29 -24 19 -24 -18 0 -39 19 -87
31 -79 5 3 9 -2 9 -10 0 -25 -26 -19 -49 10 -21 27 -29 70 -11 59 6 -3 10 3
10 14 0 22 -20 40 -21 19 0 -7 -5 -4 -10 7 -7 16 -9 14 -6 -13 2 -17 0 -32 -4
-32 -6 0 -13 24 -25 96 l-6 31 42 -3 c24 -1 47 -7 53 -13 7 -7 0 -9 -24 -7
-19 2 -25 1 -14 -1 11 -3 26 -10 33 -15 8 -7 12 -7 12 1 0 6 7 11 15 11 8 0
19 9 24 19 9 16 7 19 -17 20 -53 1 -62 2 -58 9 2 4 -13 8 -33 8 -29 1 -37 -2
-39 -17 -1 -11 -3 -28 -4 -39 -1 -11 -6 -20 -11 -20 -5 0 -7 17 -3 38 l5 37
-14 -30 c-10 -20 -14 -24 -15 -12 0 10 5 27 11 39 6 11 8 22 5 25 -3 3 -10 -6
-15 -21 -15 -38 -19 -32 -17 27 1 37 -3 51 -11 50 -7 -2 -13 0 -13 5 1 13 27
42 39 42 7 0 9 9 5 25 -7 30 19 36 35 8 6 -10 11 -14 11 -9 0 5 -8 18 -17 29
-17 19 -17 20 4 8 12 -6 27 -19 32 -29 10 -16 10 -16 11 1 0 10 7 20 15 23 8
4 15 14 15 24 0 23 13 32 34 24 11 -4 15 -13 11 -28 -6 -20 -6 -20 9 -2 12 14
13 23 5 33 -13 15 -69 18 -69 4 0 -5 -9 -7 -19 -4 -11 3 -30 -2 -43 -11 -12
-9 -30 -16 -40 -16 -11 0 -20 -10 -23 -28 -12 -54 -29 -107 -43 -130 -12 -18
-12 -28 -3 -48 7 -15 7 -23 1 -19 -6 3 -13 -2 -17 -12 -9 -23 -26 -36 -88 -69
-41 -21 -45 -25 -18 -19 24 5 34 2 42 -12 9 -16 11 -14 12 12 1 22 3 24 6 10
3 -11 12 -29 20 -40 15 -20 15 -20 8 0 -16 43 -17 67 -4 76 9 5 18 1 26 -14
12 -21 13 -20 7 7 -5 19 -3 27 4 22 6 -3 12 2 15 11 3 14 6 11 12 -10 5 -19
12 -26 22 -23 8 3 11 1 8 -4 -3 -6 1 -10 10 -10 11 0 15 -5 12 -14 -10 -25 6
-28 20 -4 12 23 12 22 13 -8 0 -17 -7 -37 -15 -44 -8 -7 -15 -18 -15 -24 0 -6
7 -3 14 7 22 29 51 20 80 -23 14 -22 26 -45 26 -52 0 -9 3 -10 8 -2 9 13 155
24 227 17 48 -5 107 -34 94 -47 -3 -4 -24 0 -46 8 -39 14 -42 13 -119 -25 -43
-22 -66 -37 -51 -34 19 4 26 2 22 -5 -3 -5 -1 -10 5 -10 6 0 8 -5 4 -11 -4 -7
-9 -8 -13 -1 -3 5 -20 12 -37 16 -23 5 -37 2 -56 -14 -32 -24 -46 -25 -70 -3
-11 10 -18 12 -18 4 0 -11 14 -18 75 -38 49 -15 516 -4 536 13 9 8 18 11 21 8
4 -3 16 0 28 6 12 6 19 14 17 17 -3 2 -15 0 -26 -7 -13 -7 -21 -7 -21 -1 0 11
32 31 49 31 6 0 11 -11 11 -25 0 -21 -9 -27 -78 -49 -167 -52 -361 -59 -527
-17 -99 25 -278 114 -366 180 -95 72 -237 225 -308 331 -76 113 -150 263 -196
396 -40 114 -41 112 56 113 85 1 224 28 319 62 47 17 97 31 112 31 15 1 25 5
22 9 -3 5 3 6 12 2 12 -4 15 -3 10 5 -4 7 -2 10 6 7 36 -12 78 -19 131 -19 38
-1 57 -5 57 -13 0 -16 -43 -27 -78 -19 -23 5 -24 5 -8 -5 11 -7 36 -9 61 -6
l42 6 21 -52 c23 -55 28 -87 13 -87 -4 0 -14 20 -21 45 -14 48 -20 54 -40 30
-7 -8 -25 -15 -41 -15 l-29 0 2 -107 2 -108 3 103 c3 80 7 102 18 102 8 0 16
-14 19 -32 3 -18 10 -60 16 -92 14 -82 13 -86 -14 -86 -16 0 -32 -11 -47 -31
-12 -17 -36 -40 -53 -51 -27 -17 -28 -19 -6 -12 l25 7 -20 -24 c-12 -14 -2 -9
22 11 23 19 40 40 38 47 -5 17 30 44 49 37 14 -5 12 -11 -14 -40 -16 -19 -30
-40 -29 -47 0 -7 6 -3 12 7 7 11 23 30 35 42 13 13 21 28 17 34 -7 12 36 30
68 29 17 0 12 -5 -18 -19 l-40 -19 47 0 c28 -1 48 4 50 11 3 8 16 5 42 -10 20
-12 43 -22 49 -22 7 0 -15 16 -48 36 -49 28 -68 34 -101 31 l-42 -4 -12 81
c-6 44 -14 89 -17 99 -2 9 0 17 6 17 5 0 15 -26 21 -57 18 -94 21 -106 26
-101 2 3 -3 40 -11 84 -18 93 -18 97 -5 89 6 -3 10 -13 10 -21 0 -8 9 -35 20
-60 24 -52 48 -57 101 -21 52 35 48 69 -16 153 -52 69 -56 88 -27 112 14 11
14 12 1 12 -19 0 -42 -47 -32 -63 3 -7 26 -38 51 -70 24 -32 42 -61 38 -64
-12 -13 -55 28 -89 87 l-37 62 31 39 c17 21 28 43 24 49 -9 15 -25 12 -25 -4
0 -7 -7 -19 -15 -26 -8 -7 -13 -16 -10 -20 3 -5 0 -12 -6 -16 -8 -5 -9 -3 -4
6 6 10 4 11 -11 5 -24 -12 -93 -12 -119 -1 -17 8 -18 7 -7 -5 8 -9 34 -14 67
-14 l54 0 38 -65 c20 -36 47 -74 58 -86 l21 -21 -28 -16 c-27 -15 -28 -15 -28
4 0 11 -14 53 -32 93 l-31 74 -52 -5 c-44 -5 -55 -2 -79 18 l-28 24 69 47
c183 126 336 328 408 539 24 68 54 253 56 337 1 57 6 30 24 -121z m479 77 c9
-24 7 -28 -9 -14 -17 14 -20 30 -6 30 5 0 12 -7 15 -16z m-263 -74 c5 0 10 15
10 33 l2 32 7 -35 7 -35 2 40 3 40 15 -43 c14 -40 14 -46 0 -59 -21 -21 -42
-11 -62 28 -12 21 -14 39 -9 58 8 24 9 22 12 -16 2 -24 7 -43 13 -43z m183 71
c3 -4 -6 -6 -19 -3 -14 2 -25 6 -25 8 0 8 39 4 44 -5z m-34 -18 c-1 -5 -27
-55 -59 -112 -33 -57 -57 -110 -54 -118 12 -32 40 -9 92 77 29 50 57 90 60 90
15 0 29 -23 24 -39 -5 -13 -3 -14 8 -3 20 18 48 15 96 -13 23 -14 43 -21 43
-16 0 5 -8 12 -17 14 -10 3 47 5 127 6 163 1 200 -8 278 -63 48 -35 48 -35 49
-97 2 -40 -3 -73 -14 -92 l-15 -30 -20 24 c-19 24 -19 24 -13 2 7 -27 2 -28
-61 -11 -117 32 -167 163 -74 195 31 11 32 12 9 12 -44 1 -70 -37 -74 -110 -2
-45 -1 -55 5 -34 4 17 8 25 9 18 0 -6 15 -25 32 -42 27 -27 28 -31 11 -31 -11
0 -43 5 -70 11 -42 10 -49 15 -44 32 4 16 1 18 -19 12 -28 -9 -39 -23 -32 -42
6 -14 -6 -17 -31 -7 -13 5 -14 9 -5 20 6 8 8 14 4 14 -4 0 -15 -10 -24 -21
-17 -21 -18 -21 -74 -5 -41 12 -57 21 -57 34 0 9 -5 24 -10 32 -6 11 -9 2 -7
-29 1 -28 -3 -45 -10 -48 -7 -3 -13 2 -13 10 0 9 6 18 13 20 9 4 9 6 -1 6 -7
1 -15 -5 -18 -13 -6 -17 -120 -21 -155 -6 -24 10 -24 10 4 7 15 -3 27 -1 27 4
0 4 -12 10 -27 12 -17 2 -9 5 20 6 30 0 46 -3 42 -9 -4 -6 8 -10 30 -10 l35 0
-32 36 c-18 20 -36 43 -40 52 -6 16 -7 16 -7 0 -1 -15 -5 -16 -28 -7 -19 7
-28 6 -33 -2 -12 -18 -17 1 -25 87 l-7 82 25 -5 c21 -4 28 1 41 25 9 17 16 40
16 51 0 14 8 21 28 24 15 2 30 5 35 6 4 0 7 -2 7 -6z m40 -20 c0 -14 -124
-213 -132 -213 -19 0 -6 32 64 153 21 37 45 67 53 67 8 0 15 -3 15 -7z m35
-23 c3 -5 2 -10 -4 -10 -5 0 -13 5 -16 10 -3 6 -2 10 4 10 5 0 13 -4 16 -10z
m601 -252 c4 -25 0 -47 -17 -79 -12 -24 -24 -39 -26 -32 -2 6 3 23 13 38 12
18 15 39 12 76 -6 56 9 54 18 -3z m-713 -15 c-7 -2 -19 -2 -25 0 -7 3 -2 5 12
5 14 0 19 -2 13 -5z m339 -55 c-7 -7 -12 -8 -12 -2 0 6 3 14 7 17 3 4 9 5 12
2 2 -3 -1 -11 -7 -17z m242 -34 c60 -17 59 -17 50 -1 -5 8 -2 7 9 -2 13 -10
15 -17 6 -27 -6 -8 -15 -11 -19 -9 -5 3 -66 10 -136 15 -126 10 -153 17 -139
40 9 14 160 4 229 -16z m92 -159 c-11 -8 -29 -15 -40 -15 -17 1 -15 4 9 15 40
18 55 18 31 0z m-79 -2 c-4 -3 -10 -3 -14 0 -3 4 0 7 7 7 7 0 10 -3 7 -7z
m-257 -23 c11 -8 7 -9 -15 -4 -37 8 -45 14 -19 14 10 0 26 -5 34 -10z m37 -17
c-4 -3 -10 -3 -14 0 -3 4 0 7 7 7 7 0 10 -3 7 -7z m171 0 c-15 -2 -42 -2 -60
0 -18 2 -6 4 27 4 33 0 48 -2 33 -4z m-1433 -273 c3 -5 -1 -10 -10 -10 -9 0
-13 5 -10 10 3 6 8 10 10 10 2 0 7 -4 10 -10z m305 -205 c0 -18 -31 -35 -62
-35 -23 1 -23 1 5 25 31 28 57 32 57 10z m-163 -332 c-4 -3 -10 -3 -14 0 -3 4
0 7 7 7 7 0 10 -3 7 -7z m203 -113 c0 -5 -5 -10 -11 -10 -5 0 -7 5 -4 10 3 6
8 10 11 10 2 0 4 -4 4 -10z m-258 -55 c-5 -18 -11 -25 -16 -17 -4 6 -2 21 4
33 15 28 21 20 12 -16z m690 -3 c-10 -7 -10 -15 2 -43 7 -19 17 -61 22 -94 4
-33 9 -51 11 -39 2 11 -3 51 -10 90 -16 74 -14 94 3 48 6 -16 13 -81 15 -144
2 -63 9 -130 15 -148 12 -31 11 -36 -11 -57 -23 -22 -30 -23 -262 -27 -131 -3
-240 -1 -243 4 -3 4 3 5 12 1 11 -4 15 -2 11 4 -5 7 5 10 26 9 43 -4 59 3 52
23 -3 9 1 25 8 35 12 16 14 16 30 -1 15 -17 24 -18 84 -10 38 6 101 10 141 11
39 1 72 4 72 8 0 4 -18 27 -39 52 -21 25 -47 66 -57 93 -9 26 -21 52 -24 56
-4 5 -4 25 1 45 10 45 50 80 99 85 19 2 40 4 45 5 6 1 4 -2 -3 -6z m206 -30
c2 -7 -2 -10 -12 -6 -9 3 -16 11 -16 16 0 13 23 5 28 -10z m-881 -14 c-3 -8
-6 -5 -6 6 -1 11 2 17 5 13 3 -3 4 -12 1 -19z m998 12 c3 -5 15 -10 26 -10 10
0 19 -4 19 -10 0 -5 -10 -10 -23 -10 -23 0 -47 17 -47 32 0 11 18 10 25 -2z
m-698 -32 c-3 -8 -6 -5 -6 6 -1 11 2 17 5 13 3 -3 4 -12 1 -19z m770 15 c-4
-3 -10 -3 -14 0 -3 4 0 7 7 7 7 0 10 -3 7 -7z m-174 -20 c-3 -7 -9 -10 -14 -7
-14 8 -11 21 5 21 8 0 12 -6 9 -14z m-886 -10 c-4 -3 -7 0 -7 7 0 7 3 10 7 7
3 -4 3 -10 0 -14z m270 -35 c-2 -13 -4 -5 -4 17 -1 22 1 32 4 23 2 -10 2 -28
0 -40z m241 15 c-1 -21 2 -46 6 -55 6 -13 4 -18 -8 -18 -12 0 -16 11 -16 48 0
42 5 62 16 62 2 0 3 -17 2 -37z m334 -83 c-53 -132 -70 -140 -27 -12 14 41 25
88 25 105 0 30 0 30 18 11 18 -18 17 -21 -16 -104z m93 0 c-19 -38 -35 -71
-35 -74 0 -2 8 -3 18 -2 10 1 30 28 49 69 18 37 37 67 43 67 18 0 11 -15 -45
-103 -53 -81 -85 -112 -85 -83 0 8 9 16 20 19 22 6 28 26 8 23 -26 -4 -38 -18
-38 -44 0 -20 -3 -23 -9 -13 -5 8 -7 21 -3 29 3 10 1 13 -6 8 -14 -8 -16 6 -3
20 5 5 18 39 31 77 12 37 25 67 30 67 4 0 -3 -26 -15 -57 -31 -77 -40 -111
-27 -98 5 6 19 39 31 74 21 66 47 105 62 95 5 -3 -7 -36 -26 -74z m-69 -6
c-35 -100 -36 -103 -57 -109 -25 -8 -24 -25 1 -32 11 -3 17 -9 14 -14 -3 -5 0
-9 5 -9 14 0 14 27 1 33 -6 3 -5 4 2 3 7 -1 13 -14 14 -28 1 -21 -3 -24 -20
-20 -12 3 -26 12 -32 20 -9 12 -15 12 -35 2 -17 -8 -12 0 17 28 28 27 52 67
74 121 19 45 35 79 37 78 2 -2 -8 -35 -21 -73z m109 37 c-8 -17 -18 -31 -21
-31 -3 0 -3 4 0 9 3 4 10 21 16 36 6 15 13 25 16 22 3 -3 -2 -19 -11 -36z
m-25 -49 c0 -5 -7 -17 -15 -28 -14 -18 -14 -17 -4 9 12 27 19 34 19 19z m-704
-37 c-3 -8 -13 -15 -23 -15 -17 1 -17 1 0 14 9 7 17 19 18 27 0 11 2 11 6 1 3
-7 2 -19 -1 -27z m175 6 l24 -20 -92 2 c-81 2 -93 4 -93 20 0 26 128 25 161
-2z m17 -80 c10 -6 8 -10 -10 -14 -34 -10 -78 -8 -78 2 0 19 64 28 88 12z"/>
<path d="M1210 2935 c-35 -41 -67 -75 -71 -75 -5 0 -38 14 -74 32 -61 30 -66
31 -82 15 -20 -20 -23 -17 55 -56 53 -27 62 -35 52 -47 -7 -7 -22 -14 -33 -14
-111 0 -228 -133 -229 -262 -1 -45 -5 -59 -32 -90 -26 -29 -37 -35 -59 -31
-15 3 -27 9 -27 13 0 4 -13 22 -29 39 -39 41 -82 42 -122 2 -16 -17 -38 -32
-48 -36 -10 -3 -26 -14 -36 -25 -10 -11 -26 -20 -36 -20 -10 0 -20 -4 -24 -9
-8 -14 23 -41 47 -41 16 0 19 -4 14 -22 -4 -13 -12 -72 -18 -131 -9 -87 -15
-110 -30 -118 -20 -11 -25 -58 -8 -75 8 -8 -2 -19 -30 -38 -27 -17 -38 -31
-33 -39 4 -7 8 -21 8 -32 0 -19 14 -21 280 -41 154 -12 323 -24 375 -27 l95
-7 123 120 c67 66 122 125 122 130 0 6 -4 8 -10 5 -6 -3 -7 1 -4 9 5 12 0 16
-19 16 -40 0 -55 9 -50 30 13 50 -61 143 -122 155 -11 2 -46 9 -77 16 -34 7
-74 9 -100 4 -24 -4 -55 -8 -69 -9 -14 -2 -31 -6 -37 -10 -6 -4 -35 -10 -64
-13 -49 -6 -52 -5 -39 11 8 10 21 14 32 11 12 -4 22 1 30 13 11 17 15 18 38 6
24 -13 27 -12 41 14 9 17 15 57 16 109 l1 82 93 113 c75 90 104 118 143 135
l49 23 40 -21 c38 -20 40 -20 54 -2 19 26 18 28 -25 47 -38 18 -38 18 -33 64
2 28 13 57 26 72 48 55 51 61 35 71 -26 16 -36 10 -99 -66z m22 -38 c-44 -53
-83 -89 -102 -96 -28 -9 -31 -8 -25 7 4 14 -8 24 -55 47 -33 16 -60 32 -60 36
0 21 25 17 88 -15 l68 -34 68 80 c47 54 72 76 79 69 7 -7 -12 -37 -61 -94z m4
-54 c-4 -16 -22 -42 -40 -60 -32 -30 -43 -33 -175 -60 -14 -2 -39 -19 -57 -38
-29 -31 -32 -32 -48 -17 -16 16 -17 15 -12 -10 2 -16 0 -28 -5 -28 -5 0 -9 5
-9 12 0 6 -3 8 -7 4 -5 -4 0 -14 11 -21 24 -18 12 -39 -15 -25 -12 7 -19 7
-19 1 0 -5 9 -13 20 -16 11 -3 20 -11 20 -16 0 -6 -4 -7 -10 -4 -5 3 -18 1
-27 -4 -17 -10 -16 -10 2 -11 19 -1 19 -2 3 -14 -10 -7 -15 -15 -12 -18 3 -4
1 -9 -5 -13 -24 -14 -11 73 19 133 49 96 115 142 208 142 42 0 107 33 128 65
22 33 38 32 30 -2z m39 -55 c25 -11 35 -38 15 -38 -21 0 -71 31 -65 40 8 13
19 13 50 -2z m-196 -85 c-80 -102 -175 -208 -186 -206 -9 0 -12 -5 -9 -13 7
-17 -10 -19 -18 -1 -3 6 -3 1 -1 -13 4 -18 -5 -36 -30 -64 -31 -35 -37 -38
-50 -25 -13 13 -8 22 40 74 30 32 55 61 55 64 0 3 9 15 21 27 19 20 37 90 20
80 -4 -3 -8 1 -8 9 0 8 4 15 9 15 4 0 8 -5 8 -12 0 -6 16 7 36 31 21 24 42 40
50 37 7 -3 16 -1 19 4 4 6 18 10 32 10 23 0 24 -2 12 -17z m-461 -233 c9 -5
29 -14 45 -20 33 -12 36 -30 5 -30 -13 0 -33 -8 -46 -18 l-22 -17 39 0 c22 0
38 2 36 5 -2 3 12 6 30 7 43 2 98 -44 93 -79 -2 -18 -8 -22 -28 -20 -87 10
-140 10 -134 1 3 -6 15 -8 27 -5 14 3 17 2 9 -6 -16 -16 -51 1 -58 28 -3 13
-10 24 -14 24 -16 0 3 -41 27 -60 l25 -19 -81 -93 c-72 -83 -79 -94 -64 -105
9 -7 20 -13 24 -13 5 0 162 178 175 198 1 2 32 -1 68 -6 36 -5 66 -5 66 -1 0
9 115 32 165 33 75 0 163 -22 201 -51 40 -30 70 -86 57 -106 -4 -7 -8 -21 -9
-32 -1 -11 -4 -29 -9 -40 -6 -17 -4 -17 12 3 12 15 28 23 41 20 19 -2 9 -15
-63 -76 -47 -41 -83 -77 -80 -81 2 -5 -10 -21 -28 -37 l-32 -29 29 33 c34 37
24 43 -13 8 l-26 -24 -347 27 c-190 14 -349 29 -352 32 -4 3 11 18 33 32 28
18 41 22 44 14 12 -32 249 -44 352 -19 l40 10 -37 1 c-24 1 -44 9 -57 22 -11
12 -24 18 -30 15 -6 -4 -18 -3 -27 2 -11 6 -13 11 -5 16 6 4 11 12 11 18 0 6
-9 3 -20 -7 -11 -10 -20 -13 -20 -7 0 6 -7 9 -16 5 -13 -5 -13 -7 -2 -14 8 -5
-10 -9 -47 -9 -95 -1 -43 -20 59 -21 55 -1 90 -7 97 -15 13 -16 -8 -31 -24
-15 -14 14 -30 15 -22 1 8 -13 -47 -13 -156 2 -54 7 -89 16 -89 23 0 18 31 41
75 55 22 7 44 16 50 21 16 15 -10 10 -59 -11 l-46 -19 -16 24 c-12 18 -14 37
-10 72 4 27 6 62 6 78 0 17 5 52 11 78 9 39 17 50 43 61 36 16 76 45 61 46 -5
0 -23 -9 -40 -20 -31 -21 -80 -26 -104 -11 -22 14 5 23 32 10 25 -11 67 1 67
21 0 5 10 11 23 13 19 4 19 4 -5 6 -15 0 -39 -4 -54 -10 l-28 -10 19 21 c14
16 28 21 52 18 18 -2 33 0 33 4 0 4 -8 8 -17 8 -14 0 -12 4 7 25 27 29 25 28
48 15z m29 3 c-4 -3 -10 -3 -14 0 -3 4 0 7 7 7 7 0 10 -3 7 -7z m273 -59 c0
-25 -4 -43 -9 -40 -5 4 -12 0 -14 -6 -4 -10 -8 -9 -16 2 -9 12 -11 11 -11 -8
0 -20 3 -21 20 -12 16 9 20 8 20 -5 0 -9 -4 -14 -9 -11 -5 4 -12 0 -14 -6 -10
-24 -27 15 -27 60 0 35 3 42 20 42 18 0 25 11 21 33 -1 5 3 6 9 2 5 -3 10 -26
10 -51z m-84 -93 c-9 -16 -19 -32 -24 -35 -14 -9 0 79 17 98 15 18 16 17 19
-7 2 -14 -4 -39 -12 -56z m-316 55 c0 -2 -7 -7 -16 -10 -8 -3 -12 -2 -9 4 6
10 25 14 25 6z m380 -66 c0 -5 -8 -10 -17 -10 -15 0 -16 2 -3 10 19 12 20 12
20 0z m-181 -27 c-8 -10 -49 -61 -93 -113 -44 -52 -82 -98 -85 -102 -4 -4 -12
-3 -19 1 -10 6 12 38 83 120 53 61 103 111 112 111 13 0 14 -3 2 -17z m36 -13
c-3 -5 -11 -10 -16 -10 -6 0 -7 5 -4 10 3 6 11 10 16 10 6 0 7 -4 4 -10z
m-285 -235 c10 -12 10 -18 0 -30 -25 -30 -61 -7 -46 30 3 8 12 15 19 15 8 0
20 -7 27 -15z m28 -142 c-10 -2 -28 -2 -40 0 -13 2 -5 4 17 4 22 1 32 -1 23
-4z m130 -10 c-10 -2 -28 -2 -40 0 -13 2 -5 4 17 4 22 1 32 -1 23 -4z m125
-10 c-13 -2 -33 -2 -45 0 -13 2 -3 4 22 4 25 0 35 -2 23 -4z m-295 -10 c-16
-2 -40 -2 -55 0 -16 2 -3 4 27 4 30 0 43 -2 28 -4z m425 0 c-13 -2 -33 -2 -45
0 -13 2 -3 4 22 4 25 0 35 -2 23 -4z m-290 -10 c-13 -2 -35 -2 -50 0 -16 2 -5
4 22 4 28 0 40 -2 28 -4z m420 0 c-13 -2 -33 -2 -45 0 -13 2 -3 4 22 4 25 0
35 -2 23 -4z m-290 -10 c-13 -2 -35 -2 -50 0 -16 2 -5 4 22 4 28 0 40 -2 28
-4z m364 0 c-4 -3 -10 -3 -14 0 -3 4 0 7 7 7 7 0 10 -3 7 -7z m-239 -10 c-10
-2 -28 -2 -40 0 -13 2 -5 4 17 4 22 1 32 -1 23 -4z m109 -9 c-3 -3 -12 -4 -19
-1 -8 3 -5 6 6 6 11 1 17 -2 13 -5z"/>
<path d="M910 2696 c0 -2 8 -10 18 -17 15 -13 16 -12 3 4 -13 16 -21 21 -21
13z"/>
<path d="M970 2650 c-23 -28 -40 -53 -38 -55 3 -3 24 18 47 46 24 27 41 52 38
55 -2 3 -24 -18 -47 -46z"/>
<path d="M781 2314 c0 -11 3 -14 6 -6 3 7 2 16 -1 19 -3 4 -6 -2 -5 -13z"/>
<path d="M1205 2170 c-8 -13 5 -13 25 0 13 8 13 10 -2 10 -9 0 -20 -4 -23 -10z"/>
<path d="M1015 2139 c-27 -33 -28 -45 -8 -126 4 -19 1 -23 -18 -24 -13 0 -40
-2 -59 -4 -71 -6 -118 6 -160 43 -23 19 -43 32 -46 29 -10 -10 72 -68 112 -79
25 -7 40 -16 37 -23 -6 -18 39 -43 73 -40 222 19 224 20 224 41 0 8 7 14 15
14 25 0 55 41 49 67 -4 13 0 30 7 40 10 12 10 14 2 9 -7 -4 -22 -29 -34 -55
-18 -42 -23 -48 -47 -44 -15 1 -21 0 -14 -3 18 -8 15 -32 -5 -38 -10 -3 -54
-8 -99 -12 -72 -6 -82 -4 -88 12 -10 26 12 35 69 31 38 -3 45 -2 29 5 -26 12
-43 43 -45 83 -2 47 0 53 23 75 12 11 19 22 16 25 -3 3 -18 -9 -33 -26z m-69
-190 c10 -17 -17 -29 -38 -16 -10 7 -18 15 -18 19 0 12 48 9 56 -3z"/>
<path d="M1225 2120 c-3 -5 -1 -10 4 -10 6 0 11 5 11 10 0 6 -2 10 -4 10 -3 0
-8 -4 -11 -10z"/>
<path d="M1062 2060 c0 -14 2 -19 5 -12 2 6 2 18 0 25 -3 6 -5 1 -5 -13z"/>
<path d="M870 2398 c0 -4 9 -8 20 -8 11 0 20 4 20 8 0 4 -9 8 -20 8 -11 0 -20
-4 -20 -8z"/>
<path d="M600 1791 c-34 -11 -93 -42 -88 -46 2 -3 22 5 44 16 23 11 61 23 85
28 34 7 37 9 14 9 -16 0 -41 -3 -55 -7z"/>
<path d="M444 1716 c-29 -13 -44 -33 -44 -59 1 -7 7 0 15 15 21 38 74 53 132
39 55 -14 70 -7 16 8 -50 14 -81 13 -119 -3z"/>
<path d="M645 1710 c-15 -16 -16 -22 -5 -35 12 -14 15 -14 31 1 10 9 16 21 13
25 -3 5 2 6 10 3 10 -4 16 -1 16 7 0 7 -3 9 -6 6 -4 -3 -14 -2 -24 3 -13 7
-22 4 -35 -10z"/>
<path d="M694 1663 c-32 -34 -23 -42 9 -9 15 14 31 26 36 26 15 0 23 -18 11
-25 -5 -3 -10 -11 -10 -17 0 -6 8 -4 18 5 25 23 35 21 20 -3 -7 -11 -20 -19
-28 -18 -14 2 -56 -6 -105 -19 -20 -5 -20 -5 0 11 27 21 16 20 -40 -5 -26 -12
-68 -24 -94 -28 -25 -3 -46 -11 -46 -16 0 -6 27 -14 60 -19 47 -7 75 -5 131 9
60 15 77 16 105 5 50 -18 109 -29 109 -19 0 5 -11 9 -24 9 -13 0 -40 7 -59 15
-46 19 -78 19 -152 0 -38 -10 -74 -13 -100 -9 l-40 7 50 14 c91 25 196 32 310
20 l60 -6 -53 9 c-73 14 -88 22 -67 40 13 11 15 10 10 -2 -4 -9 0 -15 9 -15 8
0 12 7 9 16 -3 11 -1 11 7 -2 9 -14 15 -16 26 -6 12 9 13 9 9 -2 -4 -11 3 -15
25 -17 16 -1 30 2 30 8 0 5 15 16 33 24 31 13 30 13 -43 15 -41 1 -84 3 -95 5
-11 3 -26 5 -33 5 -7 1 -11 5 -8 9 3 5 -9 9 -25 10 -21 0 -39 -8 -55 -25z
m206 -28 c-7 -9 -15 -13 -19 -10 -3 3 1 10 9 15 21 14 24 12 10 -5z"/>
<path d="M720 1655 c-20 -24 -6 -28 15 -5 10 11 13 20 8 20 -6 0 -16 -7 -23
-15z"/>
<path d="M475 1641 c-12 -5 9 -7 50 -4 91 6 105 11 30 12 -33 0 -69 -4 -80 -8z"/>
<path d="M740 1506 c-41 -12 -82 -25 -90 -29 -8 -4 -60 -8 -115 -10 -64 -3
-52 -3 34 -3 92 1 136 5 138 13 3 7 29 17 59 24 30 7 54 16 54 21 0 4 -1 7 -2
7 -2 -1 -37 -11 -78 -23z"/>
<path d="M511 1439 c-44 -8 -67 -19 -40 -19 8 1 41 7 74 14 65 15 37 19 -34 5z"/>
<path d="M1740 3320 c0 -5 -7 -10 -16 -10 -11 0 -14 -6 -8 -22 8 -28 5 -25 34
-30 14 -2 25 2 25 9 0 6 3 15 8 19 12 12 8 24 -8 24 -8 0 -15 5 -15 10 0 6 -4
10 -10 10 -5 0 -10 -4 -10 -10z m24 -35 c-5 -12 -10 -13 -20 -4 -19 15 -18 19
6 19 13 0 18 -5 14 -15z"/>
<path d="M2089 3000 c-44 -44 -39 -60 20 -60 l50 0 4 43 4 42 1 -42 c2 -40 4
-43 31 -43 16 0 43 -3 60 -6 l31 -6 -11 31 c-17 47 -51 69 -110 69 -44 1 -56
-4 -80 -28z m61 -15 c0 -34 -1 -35 -40 -35 -37 0 -40 2 -30 19 10 20 48 51 62
51 5 0 8 -16 8 -35z m89 9 c44 -37 40 -50 -14 -46 -41 4 -45 6 -45 31 0 48 15
52 59 15z"/>
<path d="M1835 1929 c33 -6 62 -14 65 -19 6 -10 140 -33 147 -26 3 3 -12 8
-33 11 -22 4 -59 14 -84 22 -25 8 -70 16 -100 18 l-55 4 60 -10z"/>
<path d="M2147 1891 c29 -5 65 -12 80 -16 20 -5 25 -3 17 5 -6 6 -42 12 -80
15 -65 4 -66 4 -17 -4z"/>
<path d="M2395 1860 c14 -8 1 -9 -49 -5 -87 6 -80 -4 11 -15 45 -6 70 -5 74 2
4 6 23 9 43 6 20 -2 33 -1 28 3 -4 4 -34 9 -67 13 -43 4 -54 3 -40 -4z"/>
<path d="M2443 1695 c4 -44 29 -85 50 -85 6 0 1 9 -11 20 -16 15 -22 32 -22
65 0 27 -5 45 -11 45 -8 0 -10 -15 -6 -45z"/>
<path d="M2014 1721 c6 -9 0 -10 -21 -5 -46 11 -23 -2 61 -36 43 -17 99 -32
125 -34 25 -2 55 -7 66 -12 12 -4 17 -3 12 2 -5 5 -32 16 -60 25 -58 18 -74
38 -25 31 29 -4 31 -3 20 11 -8 9 -26 15 -40 14 -15 0 -38 3 -51 7 -18 6 -22
5 -16 -4 8 -13 -17 -10 -61 7 -12 4 -15 3 -10 -6z m103 -18 c-4 -3 -10 -3 -14
0 -3 4 0 7 7 7 7 0 10 -3 7 -7z m10 -20 c-4 -3 -10 -3 -14 0 -3 4 0 7 7 7 7 0
10 -3 7 -7z"/>
<path d="M1965 1689 c64 -35 105 -50 105 -39 0 5 -8 10 -17 10 -10 0 -32 8
-49 19 -17 10 -41 21 -55 25 -13 4 -7 -3 16 -15z"/>
<path d="M1967 1616 c41 -34 145 -87 159 -82 7 3 41 -6 75 -20 34 -14 64 -23
67 -20 2 3 -4 9 -14 12 -90 32 -194 80 -215 100 -30 29 -50 32 -24 4 25 -28 9
-25 -27 5 -16 14 -34 25 -40 25 -5 0 3 -11 19 -24z m130 -63 c-4 -3 -10 -3
-14 0 -3 4 0 7 7 7 7 0 10 -3 7 -7z"/>
<path d="M2220 1601 c0 -10 55 -31 79 -30 9 0 3 6 -14 12 l-30 11 30 7 c26 6
23 7 -17 8 -27 0 -48 -3 -48 -8z"/>
<path d="M2146 1572 c15 -14 112 -52 131 -52 10 0 -15 14 -55 30 -76 31 -93
36 -76 22z"/>
<path d="M1856 2461 c-3 -4 3 -16 14 -26 23 -21 47 -8 37 19 -7 17 -42 22 -51
7z"/>
<path d="M1385 1863 c-47 -25 -53 -39 -29 -69 14 -18 14 -18 3 5 -12 26 -7 33
47 68 27 17 14 15 -21 -4z"/>
<path d="M1444 1743 c19 -32 40 -59 47 -62 10 -3 10 1 -2 15 -9 10 -27 38 -39
62 -13 23 -27 42 -32 42 -4 0 8 -26 26 -57z"/>
<path d="M1411 1740 c18 -24 20 -32 9 -45 -7 -8 -17 -15 -22 -15 -6 0 -5 6 2
15 6 8 10 19 8 26 -2 6 -9 0 -15 -13 -16 -35 -3 -52 25 -32 12 8 22 22 22 30
0 19 -29 64 -41 64 -5 0 0 -13 12 -30z"/>
<path d="M1530 1655 c33 -19 50 -18 26 0 -11 8 -27 15 -35 15 -10 -1 -7 -6 9
-15z"/>
<path d="M1364 1646 c23 -18 35 -20 56 -6 12 8 10 10 -10 9 -14 -1 -34 2 -45
5 -20 8 -20 7 -1 -8z"/>
<path d="M1166 1628 c17 -31 49 -57 75 -63 31 -7 109 21 109 39 0 6 -5 5 -12
-2 -7 -7 -21 -12 -32 -12 -16 0 -18 2 -7 9 9 6 3 10 -20 13 -19 3 -43 8 -54
12 -11 4 -4 -2 15 -13 l35 -21 -30 6 c-39 9 -65 22 -65 34 0 6 -5 10 -11 10
-5 0 -7 -6 -3 -12z m71 -45 c-4 -3 -10 -3 -14 0 -3 4 0 7 7 7 7 0 10 -3 7 -7z
m30 -10 c-4 -3 -10 -3 -14 0 -3 4 0 7 7 7 7 0 10 -3 7 -7z"/>
<path d="M1447 1623 c-11 -10 -8 -68 4 -80 7 -7 3 -18 -15 -36 -29 -29 -31
-39 -15 -69 6 -11 9 -21 7 -24 -2 -2 -34 17 -71 42 -37 24 -67 41 -67 37 0
-10 121 -88 137 -88 6 0 15 -4 19 -8 4 -4 11 -7 17 -7 5 0 -3 14 -18 31 -14
18 -24 38 -21 46 4 8 6 18 6 22 0 4 11 13 25 19 25 11 25 13 9 37 -10 15 -14
37 -12 55 5 32 5 33 -5 23z"/>
<path d="M1622 1578 c-2 -28 4 -41 24 -57 14 -11 30 -22 37 -24 7 -2 8 -8 4
-13 -4 -4 -17 -2 -28 5 -30 18 -35 6 -6 -14 17 -11 24 -23 21 -38 -3 -12 4 -3
15 20 20 42 48 59 94 55 9 0 17 3 17 9 0 13 -21 11 -69 -5 -39 -14 -42 -14
-70 10 -19 15 -31 37 -34 57 -4 32 -4 32 -5 -5z"/>
<path d="M1469 1583 c14 -27 52 -31 71 -8 9 10 9 15 1 15 -6 0 -11 -4 -11 -10
0 -16 -32 -12 -53 8 -19 16 -20 16 -8 -5z"/>
<path d="M1660 1592 c0 -7 12 -25 27 -39 l26 -27 15 22 c8 12 25 22 38 22 13
0 24 5 24 11 0 14 -39 2 -63 -20 -18 -15 -20 -14 -43 14 -13 17 -24 24 -24 17z"/>
<path d="M1138 1544 c-9 -10 -34 -20 -55 -24 l-38 -8 35 -1 c37 -1 47 4 69 32
17 22 11 22 -11 1z"/>
<path d="M1298 1548 c-4 -9 -25 -26 -48 -38 -22 -11 -40 -23 -40 -26 0 -3 3
-3 8 -1 4 2 24 12 45 22 36 17 40 17 78 0 21 -10 42 -16 45 -13 2 3 -13 13
-35 21 -22 9 -41 24 -43 34 -3 17 -4 17 -10 1z"/>
<path d="M1590 1487 c0 -20 4 -38 9 -42 6 -3 7 10 4 32 -8 50 -13 55 -13 10z"/>
<path d="M1535 1496 c19 -15 19 -15 -11 -10 -29 6 -92 -21 -80 -33 3 -3 15 2
28 11 32 23 46 20 79 -15 16 -17 29 -27 29 -22 0 5 -5 14 -11 20 -7 7 -12 22
-13 35 -1 14 -8 24 -21 26 -20 4 -20 4 0 -12z"/>
<path d="M1841 1466 c-29 -10 -64 -56 -43 -56 4 0 -4 -6 -18 -13 -14 -7 -38
-38 -55 -71 -17 -33 -36 -61 -43 -64 -7 -2 -12 -8 -12 -13 0 -6 5 -7 12 -3 7
4 8 3 4 -5 -4 -6 -12 -8 -18 -5 -6 4 -23 -7 -38 -24 -15 -17 -29 -29 -32 -27
-3 3 -13 -4 -23 -15 -10 -11 -26 -20 -36 -20 -19 0 -63 -40 -54 -49 3 -2 12 5
21 17 18 26 36 29 28 5 -3 -11 7 -4 25 15 17 18 31 31 31 30 0 -11 -44 -115
-56 -132 -18 -27 -18 -47 1 -22 14 18 15 18 24 -5 11 -30 41 -58 41 -39 0 7
12 1 26 -14 15 -14 49 -34 75 -43 70 -25 49 -43 -55 -44 -78 -1 -79 -2 -31
-10 28 -4 67 -4 89 1 44 10 56 6 56 -17 0 -14 -11 -15 -82 -10 -93 7 -145 20
-173 42 -19 14 -18 14 8 5 43 -15 46 -12 10 10 -19 11 -33 28 -33 39 0 28 17
35 25 11 9 -29 54 -60 84 -59 24 1 24 1 -6 10 -36 10 -73 52 -73 82 0 19 -1
19 -21 -4 -17 -19 -19 -33 -16 -84 5 -82 29 -125 67 -124 8 0 4 5 -10 11 -15
6 -20 12 -12 15 8 3 5 10 -9 22 -21 17 -16 17 110 14 147 -4 150 -2 133 60
l-10 35 47 -1 c25 0 88 3 140 8 82 7 95 6 103 -8 12 -22 52 -23 44 -1 -3 9 -6
18 -6 20 0 2 -4 4 -10 4 -5 0 -6 -8 -3 -17 6 -16 5 -16 -11 -4 -17 14 -16 16
6 33 13 9 19 18 13 17 -5 0 -19 -6 -29 -14 -12 -9 -43 -15 -75 -16 -31 0 -80
-4 -109 -8 -97 -14 -104 -10 -131 76 -12 41 -21 88 -19 104 5 31 1 34 -21 20
-9 -6 -10 -11 -2 -15 6 -4 11 -17 11 -28 0 -12 10 -52 22 -90 12 -37 19 -70
15 -74 -10 -10 -50 3 -88 28 -25 17 -39 38 -52 77 -22 67 -11 117 40 169 19
20 32 29 29 20 -3 -10 -4 -18 -2 -18 9 0 73 70 68 75 -3 3 4 5 16 5 25 0 55
40 50 67 -2 12 3 18 17 18 16 0 19 -6 17 -27 -4 -32 17 -49 25 -19 3 12 11 21
19 21 7 0 11 6 8 14 -8 21 55 30 76 11 9 -8 19 -13 22 -10 2 3 3 -8 0 -25 -4
-31 -32 -64 -32 -38 0 7 -9 21 -19 30 -19 16 -20 15 -29 -12 -7 -18 -19 -30
-34 -33 -22 -4 -22 -4 3 -6 14 0 30 4 37 11 9 9 13 7 18 -6 9 -22 3 -27 -39
-29 -20 -2 -39 -6 -43 -10 -4 -4 -14 -7 -22 -7 -12 0 -12 3 -2 15 7 8 8 15 2
15 -22 0 -38 -46 -56 -160 -5 -34 -5 -34 8 -10 14 24 14 24 21 -23 4 -26 5
-55 3 -65 -4 -16 3 -17 91 -11 90 5 128 2 191 -15 22 -6 32 2 85 65 33 39 69
85 81 102 l21 31 -36 18 c-19 10 -45 18 -57 18 -12 0 -24 7 -28 15 -3 8 -11
15 -18 15 -7 0 -26 7 -43 16 l-30 16 -46 -52 c-42 -46 -52 -52 -93 -55 -26 -1
-46 2 -46 7 0 6 25 35 56 65 58 57 74 86 80 141 2 26 -1 35 -19 42 -12 6 -33
18 -47 29 -35 27 -60 31 -99 17z m27 -31 c-12 -14 -23 -25 -25 -25 -1 0 3 11
9 25 6 14 17 25 25 25 8 0 6 -8 -9 -25z m-46 -20 c-3 -25 -9 -35 -21 -34 -10
0 -11 2 -3 6 6 2 12 15 12 27 0 18 7 36 15 36 0 0 -1 -16 -3 -35z m100 26
c-10 -6 -5 -11 19 -20 18 -6 30 -14 27 -17 -4 -3 -21 2 -38 11 -29 15 -34 15
-47 2 -13 -13 -11 -14 14 -10 l28 5 -23 -17 c-13 -9 -26 -14 -29 -11 -3 3 -14
1 -24 -5 -28 -14 -23 -5 17 35 20 20 43 36 53 36 12 0 13 -2 3 -9z m-149 -101
c3 -11 1 -18 -4 -14 -5 3 -9 12 -9 20 0 20 7 17 13 -6z m94 13 c-4 -3 -10 -3
-14 0 -3 4 0 7 7 7 7 0 10 -3 7 -7z m-120 -25 c-3 -8 -6 -5 -6 6 -1 11 2 17 5
13 3 -3 4 -12 1 -19z m20 -34 c-3 -3 -12 -4 -19 -1 -8 3 -5 6 6 6 11 1 17 -2
13 -5z m337 -59 c20 -8 36 -20 36 -27 0 -6 -27 -44 -60 -84 -42 -51 -60 -81
-60 -101 0 -25 -3 -22 -30 27 -36 67 -36 68 -5 80 16 6 23 14 19 25 -3 8 -10
15 -16 15 -5 0 6 18 24 40 37 45 41 46 92 25z m-217 -12 c-4 -3 -10 -3 -14 0
-3 4 0 7 7 7 7 0 10 -3 7 -7z m-58 -53 c-12 -25 -17 -49 -13 -65 3 -14 2 -25
-4 -25 -13 0 -22 49 -11 56 5 3 9 14 9 25 0 11 6 26 13 34 23 26 25 15 6 -25z
m-32 8 c-3 -8 -6 -5 -6 6 -1 11 2 17 5 13 3 -3 4 -12 1 -19z m423 4 l30 -19
-71 -85 -70 -85 -34 11 c-19 6 -36 18 -38 27 -5 20 117 169 138 169 8 0 28 -8
45 -18z m-230 -32 c0 -5 -4 -10 -9 -10 -5 0 -16 -3 -25 -6 -11 -4 -16 -1 -16
10 0 10 9 16 25 16 14 0 25 -4 25 -10z m-107 -45 c-6 -14 -53 -48 -59 -42 -3
3 4 24 16 47 20 38 22 40 35 24 7 -10 11 -23 8 -29z m48 3 c16 -29 2 -21 -22
15 -17 23 -18 28 -6 18 10 -8 23 -23 28 -33z m-10 -30 c6 -13 8 -20 4 -16 -4
4 -20 -9 -37 -28 -19 -21 -39 -34 -54 -34 -35 0 -32 35 4 54 16 8 34 22 41 30
18 22 28 20 42 -6z m-338 -40 c2 -13 8 -32 12 -43 7 -18 6 -18 -8 -5 -19 18
-33 70 -19 70 5 0 12 -10 15 -22z m362 -4 c33 -21 23 -34 -26 -34 l-40 0 18
25 c22 29 18 29 48 9z m-388 -201 c-7 -7 -57 8 -57 18 0 4 14 3 31 -3 16 -6
28 -12 26 -15z"/>
<path d="M1874 1059 c-19 -22 -19 -22 4 -8 12 8 22 17 22 21 0 12 -6 9 -26
-13z"/>
<path d="M921 1451 c-11 -7 -6 -12 20 -19 l34 -10 -29 -1 c-16 -1 -38 6 -48
16 -10 9 -18 11 -18 5 0 -28 84 -44 108 -20 21 21 13 27 -25 23 -32 -4 -34 -3
-13 4 21 8 22 9 5 10 -11 0 -26 -3 -34 -8z"/>
<path d="M1258 1446 c-21 -15 -24 -28 -5 -21 6 3 32 -20 57 -50 25 -30 49 -55
53 -55 5 0 -14 27 -42 59 -29 33 -47 62 -42 66 6 3 40 -17 76 -46 36 -28 68
-49 71 -46 6 5 -129 107 -142 107 -5 0 -17 -7 -26 -14z"/>
<path d="M1485 1430 c-10 -11 -13 -20 -7 -20 7 0 12 4 12 9 0 14 32 23 44 11
6 -6 0 -13 -21 -21 -29 -10 -54 -39 -34 -39 5 0 11 7 15 15 3 8 16 15 28 15
23 -1 22 -1 -5 -25 -18 -16 -23 -25 -13 -25 8 0 23 11 34 25 17 22 29 25 81
27 34 1 56 5 49 9 -7 5 -32 5 -56 2 -36 -5 -46 -2 -63 16 -25 26 -41 27 -64 1z"/>
<path d="M811 1400 c-34 -29 -34 -30 -17 -49 10 -11 27 -21 39 -23 32 -5 31
-23 -2 -61 -17 -19 -31 -37 -31 -40 0 -3 11 -8 24 -11 24 -6 46 -33 78 -96 9
-19 17 -29 18 -22 0 24 -39 89 -68 114 l-30 25 29 43 c19 28 27 50 23 65 -3
13 1 27 10 34 11 9 16 10 16 2 0 -19 66 -12 91 9 13 10 19 19 13 20 -6 0 -17
-7 -24 -15 -14 -17 -70 -21 -70 -5 0 15 -17 12 -40 -7 -11 -10 -32 -18 -45
-18 l-25 -1 32 33 c39 41 25 43 -21 3z"/>
<path d="M845 1390 c-10 -11 -13 -20 -8 -20 13 0 38 29 31 35 -3 3 -13 -4 -23
-15z"/>
<path d="M1020 1390 c-13 -9 -13 -10 0 -9 8 1 26 5 40 9 l25 8 -25 1 c-14 0
-32 -4 -40 -9z"/>
<path d="M667 1359 c5 -17 3 -20 -7 -14 -10 6 -12 4 -7 -9 4 -10 7 -20 7 -22
0 -2 5 -4 11 -4 5 0 7 6 3 13 -4 6 -4 9 0 5 4 -3 8 -10 8 -15 1 -4 8 -13 17
-20 14 -11 14 -12 -1 -13 -10 0 -27 9 -39 21 -27 27 -35 19 -9 -9 21 -22 70
-31 70 -13 0 5 10 11 22 13 38 5 32 26 -9 30 -27 2 -41 9 -49 26 -16 32 -24
38 -17 11z"/>
<path d="M966 1303 c-16 -136 -16 -148 -8 -128 10 22 26 185 19 185 -3 0 -8
-26 -11 -57z"/>
<path d="M936 1333 c-2 -10 -8 -40 -11 -68 -4 -27 -9 -59 -12 -70 -3 -11 -2
-16 3 -12 9 9 36 159 29 165 -2 2 -6 -5 -9 -15z"/>
<path d="M812 1290 c-18 -17 -26 -30 -19 -30 13 0 36 21 51 48 11 18 5 15 -32
-18z"/>
<path d="M1466 1304 c-3 -9 -6 -30 -6 -48 0 -18 -5 -37 -12 -44 -9 -9 -9 -15
-1 -23 6 -6 9 -19 6 -28 -3 -9 14 3 38 25 24 23 53 46 64 52 25 14 5 15 -29 2
-43 -16 -59 -3 -53 41 5 41 3 49 -7 23z m19 -104 c-20 -22 -31 -20 -22 5 4 8
14 15 23 15 16 0 16 -2 -1 -20z"/>
<path d="M716 1213 c-4 -9 0 -23 8 -32 8 -9 16 -25 19 -36 5 -20 5 -20 6 0 0
11 -6 31 -15 43 -22 31 0 28 25 -4 15 -19 21 -22 21 -11 0 23 29 10 40 -17 8
-19 9 -19 9 -2 1 15 4 16 16 6 13 -11 14 -10 9 3 -9 24 -48 47 -64 37 -9 -5
-24 -2 -41 11 -24 17 -28 17 -33 2z"/>
<path d="M1545 1197 c-21 -12 -54 -41 -71 -65 -18 -23 -36 -38 -39 -32 -3 5
-29 10 -56 10 -27 0 -66 7 -86 15 -51 21 -66 17 -18 -6 23 -10 62 -19 92 -19
44 0 58 -5 90 -32 21 -18 30 -23 20 -11 -12 14 -16 29 -12 42 9 28 56 72 107
98 24 12 36 22 28 23 -8 0 -33 -10 -55 -23z"/>
<path d="M2290 1136 c-15 -41 -13 -66 8 -66 14 0 15 2 2 10 -12 8 -13 14 -3
41 7 18 11 35 8 37 -2 3 -9 -7 -15 -22z"/>
<path d="M875 1060 c-3 -6 -17 -7 -30 -4 -25 6 -32 -1 -45 -46 -5 -18 -5 -30
1 -30 5 0 9 7 9 15 0 19 11 19 36 0 17 -13 17 -14 1 -9 -10 4 -23 0 -30 -8 -7
-9 -36 -24 -64 -34 -29 -10 -53 -21 -53 -25 0 -4 23 2 51 12 38 15 58 17 82
10 30 -9 30 -9 6 -10 -42 -2 -89 -22 -89 -38 0 -12 7 -14 28 -8 80 20 96 18
142 -19 24 -19 46 -33 49 -30 2 2 -2 10 -11 17 -25 20 -39 88 -27 130 8 31 7
41 -8 62 -19 26 -38 32 -48 15z m22 -7 c-4 -3 -10 -3 -14 0 -3 4 0 7 7 7 7 0
10 -3 7 -7z m-37 -19 c0 -2 -9 -4 -21 -4 -11 0 -18 4 -14 10 5 8 35 3 35 -6z
m70 -14 c0 -5 -4 -10 -9 -10 -5 0 -11 -10 -15 -22 -4 -18 -8 -20 -18 -10 -6 6
-13 20 -14 29 -2 16 -1 16 12 -1 14 -19 14 -19 14 2 0 13 6 22 15 22 8 0 15
-4 15 -10z m-17 -108 l19 -33 -35 17 c-25 12 -33 21 -30 35 4 14 0 19 -16 19
-13 0 -21 6 -21 16 0 25 60 -14 83 -54z m-112 -7 c-18 -8 -36 -15 -40 -15 -13
1 45 29 59 29 8 0 0 -6 -19 -14z"/>
<path d="M1332 1050 c-7 -11 -8 -20 -3 -20 5 0 12 7 15 15 4 11 17 15 40 13
20 -1 38 1 42 5 4 4 -13 7 -37 7 -33 0 -47 -5 -57 -20z"/>
<path d="M2302 1034 c-6 -11 -18 -15 -34 -12 -13 2 -30 -1 -36 -9 -10 -10 -7
-14 15 -18 16 -3 43 -11 62 -16 42 -14 62 3 51 41 -5 14 -8 18 -9 9 -2 -25
-29 -45 -43 -31 -9 9 -7 12 10 12 15 0 22 6 22 20 0 24 -25 26 -38 4z m28 -4
c0 -5 -5 -10 -11 -10 -5 0 -7 5 -4 10 3 6 8 10 11 10 2 0 4 -4 4 -10z m-73
-27 c-4 -3 -10 -3 -14 0 -3 4 0 7 7 7 7 0 10 -3 7 -7z"/>
<path d="M2153 1018 c-15 -20 -23 -48 -14 -48 5 0 11 9 14 20 3 11 16 24 29
29 22 9 22 10 2 10 -12 1 -26 -5 -31 -11z"/>
<path d="M1018 980 c-32 -17 -58 -40 -45 -40 2 0 28 13 58 30 59 32 47 41 -13
10z"/>
<path d="M2175 971 c-6 -5 -19 -11 -30 -14 -11 -2 4 -4 34 -3 35 1 55 5 57 14
1 7 0 8 -3 2 -6 -13 -40 -13 -45 0 -2 7 -7 7 -13 1z"/>
<path d="M1555 947 c9 -21 83 -57 132 -62 l38 -5 -38 10 c-44 11 -95 36 -120
58 -16 15 -17 14 -12 -1z"/>
<path d="M2300 930 l-55 -7 55 -1 c30 -1 62 3 70 8 17 11 21 11 -70 0z"/>
<path d="M1130 887 c0 -17 51 -59 66 -53 22 9 12 30 -17 34 -13 2 -30 9 -36
14 -7 6 -13 8 -13 5z m60 -37 c0 -5 -2 -10 -4 -10 -3 0 -8 5 -11 10 -3 6 -1
10 4 10 6 0 11 -4 11 -10z"/>
<path d="M1220 849 c0 -5 9 -9 20 -9 11 0 20 2 20 4 0 2 -9 6 -20 9 -11 3 -20
1 -20 -4z"/>
<path d="M1106 818 c-19 -37 -20 -46 -4 -30 8 8 17 8 31 1 14 -8 22 -7 31 2 8
9 7 11 -6 6 -21 -7 -40 15 -32 37 11 28 -4 17 -20 -16z"/>
<path d="M1202 800 c5 -17 58 -27 58 -12 0 6 -8 9 -17 7 -10 -1 -24 3 -32 9
-11 9 -13 8 -9 -4z"/>
<path d="M1280 791 c0 -21 31 -24 48 -5 16 17 16 17 0 5 -15 -11 -21 -11 -33
-1 -11 9 -15 9 -15 1z"/>
<path d="M900 783 c-53 -20 -82 -34 -78 -38 3 -3 22 2 44 11 21 9 59 20 84 24
l45 8 -40 0 c-22 0 -47 -2 -55 -5z"/>
<path d="M1411 766 c2 -2 24 -6 48 -9 29 -4 40 -2 30 4 -13 8 -88 14 -78 5z"/>
<path d="M1271 669 c0 -15 8 -37 20 -50 l21 -24 -15 26 c-8 14 -17 36 -20 50
-4 24 -4 24 -6 -2z"/>
<path d="M1139 520 c13 -11 31 -20 40 -20 9 0 3 8 -17 20 -41 25 -54 25 -23 0z"/>
<path d="M1066 518 c4 -7 16 -19 27 -27 10 -7 27 -27 38 -45 14 -22 19 -26 19
-13 0 10 -18 36 -40 58 -39 39 -58 50 -44 27z"/>
<path d="M1360 484 c-19 -9 -55 -19 -80 -24 l-45 -8 38 -1 c21 0 59 8 85 18
26 11 54 22 62 24 10 4 9 6 -5 6 -11 0 -36 -7 -55 -15z"/>
<path d="M1190 432 c0 -13 43 -26 62 -19 7 3 2 6 -12 6 -15 1 -31 6 -38 13 -9
9 -12 9 -12 0z"/>
<path d="M2240 2045 c0 -8 2 -15 4 -15 2 0 6 7 10 15 3 8 1 15 -4 15 -6 0 -10
-7 -10 -15z"/>
<path d="M2070 2020 c0 -5 4 -10 9 -10 6 0 13 5 16 10 3 6 -1 10 -9 10 -9 0
-16 -4 -16 -10z"/>
<path d="M1104 3656 c-4 -11 -14 -16 -25 -13 -20 5 -26 -8 -9 -18 6 -4 8 -16
4 -27 -5 -18 -3 -20 15 -15 11 3 24 1 27 -4 9 -15 24 -10 24 9 0 10 4 22 8 28
5 5 -2 20 -15 33 -20 21 -23 22 -29 7z"/>
<path d="M1871 3643 c-21 -20 -22 -23 -7 -29 9 -3 16 -15 16 -26 0 -17 3 -18
15 -8 8 7 22 9 31 6 13 -5 15 -2 11 14 -3 11 -1 23 4 26 15 9 10 24 -9 24 -10
0 -22 4 -27 8 -6 5 -21 -2 -34 -15z"/>
<path d="M2186 3525 c7 -18 -51 -94 -79 -104 -17 -7 -14 -12 31 -44 63 -47
100 -49 136 -6 41 48 31 84 -38 138 -42 34 -58 39 -50 16z m74 -80 c0 -22 -52
-85 -69 -85 -4 0 -15 6 -25 13 -16 12 -15 17 24 66 34 43 44 50 56 40 8 -6 14
-22 14 -34z"/>
<path d="M742 3483 c-49 -36 -68 -61 -38 -50 17 7 86 -78 86 -106 0 -16 8 -12
50 23 58 48 68 75 46 119 -32 62 -72 65 -144 14z m93 -24 c28 -35 31 -82 5
-87 -22 -4 -92 92 -77 107 19 19 44 12 72 -20z"/>
<path d="M2446 3296 c6 -17 -86 -98 -103 -91 -7 2 -13 2 -13 -1 0 -8 84 -113
91 -113 4 -1 17 8 30 20 l24 20 -28 -4 c-17 -3 -36 2 -50 13 -21 18 -22 18 -3
39 26 28 39 26 34 -4 -6 -31 -1 -31 37 0 l30 25 -28 0 c-31 0 -33 16 -5 34 28
17 51 -11 43 -53 -7 -36 -7 -36 14 -17 12 11 21 23 21 28 0 5 -19 33 -42 63
-42 52 -63 69 -52 41z"/>
<path d="M510 3255 c0 -3 16 -37 35 -75 19 -38 35 -77 35 -87 1 -15 4 -14 20
6 23 27 26 43 6 35 -23 -9 -29 16 -10 37 21 23 41 25 46 3 2 -12 10 -8 32 15
26 27 27 31 10 31 -10 0 -48 9 -82 20 -64 20 -92 25 -92 15z m75 -55 c11 -17
-5 -32 -21 -19 -8 6 -14 15 -14 20 0 12 27 11 35 -1z"/>
<path d="M348 3003 c-8 -10 -28 -40 -44 -67 -25 -44 -26 -49 -9 -42 24 9 123
-41 128 -64 5 -21 57 84 57 115 0 58 -96 100 -132 58z m71 -38 c16 -8 31 -22
35 -31 7 -19 -2 -57 -12 -52 -49 23 -112 60 -112 66 0 14 24 32 42 32 11 0 32
-7 47 -15z"/>
<path d="M2705 2901 c7 -12 -104 -63 -123 -56 -17 6 -9 -20 24 -87 23 -45 25
-47 49 -36 14 6 25 15 25 20 0 5 -5 6 -10 3 -14 -9 -60 22 -60 39 0 22 109 69
126 55 8 -6 14 -9 14 -6 0 15 -35 77 -42 77 -5 0 -7 -4 -3 -9z"/>
<path d="M206 2716 c-3 -13 -9 -32 -12 -43 -5 -14 -4 -15 5 -7 17 16 122 -26
131 -52 5 -13 10 -8 23 24 20 50 21 60 6 45 -14 -14 -129 25 -129 44 0 22 -18
14 -24 -11z"/>
<path d="M2655 2636 c17 -55 15 -53 26 -34 12 22 35 13 43 -15 6 -25 -10 -48
-30 -40 -11 4 -12 -1 -2 -28 6 -19 12 -35 13 -36 0 -1 32 27 70 62 38 35 67
66 65 69 -3 2 -39 8 -80 14 -41 5 -83 12 -93 17 -13 5 -16 3 -12 -9z m115 -41
c-7 -8 -16 -15 -20 -15 -4 0 -10 7 -14 15 -4 11 2 15 21 15 21 0 24 -2 13 -15z"/>
<path d="M132 2478 c-15 -100 -15 -97 12 -108 36 -13 54 -4 77 41 21 41 30 47
47 27 15 -20 -4 -57 -33 -64 -31 -8 -32 -20 -2 -28 33 -9 40 -7 34 7 -3 7 1
21 9 32 20 26 17 59 -5 79 -30 27 -63 17 -86 -26 -21 -40 -55 -52 -55 -20 0
21 29 52 48 52 7 0 12 5 12 10 0 15 -56 12 -58 -2z"/>
<path d="M2908 2229 c-9 -22 -127 -37 -139 -17 -6 8 -9 -3 -9 -29 0 -24 5 -43
10 -43 6 0 10 5 10 10 0 6 14 10 31 10 27 0 30 -3 27 -27 -2 -22 -9 -29 -30
-31 -16 -2 -28 1 -28 7 0 6 -3 11 -8 11 -4 0 -6 -18 -4 -40 2 -22 8 -40 13
-40 5 0 9 4 9 9 0 4 28 12 61 15 47 6 64 4 70 -6 5 -8 9 6 9 37 -1 44 -2 48
-14 33 -18 -24 -53 -23 -61 2 -3 11 -3 24 0 30 9 14 52 12 58 -2 8 -25 12 -2
7 42 -3 28 -7 39 -12 29z"/>
<path d="M210 2191 c18 -12 13 -17 -27 -24 -22 -4 -33 -2 -37 8 -6 18 -52 20
-62 4 -10 -17 -21 -139 -13 -139 4 0 10 3 12 8 3 4 32 5 66 4 44 -3 61 -8 61
-18 0 -8 5 -14 10 -14 6 0 10 21 9 48 0 26 -3 41 -6 35 -2 -7 -18 -13 -35 -13
-44 0 -34 33 12 40 31 4 35 8 35 35 0 22 -5 31 -20 33 -16 2 -17 1 -5 -7z
m-86 -47 c9 -3 16 -16 16 -29 0 -18 -4 -21 -25 -17 -24 4 -34 30 -18 45 8 8 8
8 27 1z"/>
<path d="M2770 1870 c0 -30 14 -41 23 -17 8 21 29 -8 25 -34 -2 -18 -9 -24
-25 -23 -20 0 -23 -4 -23 -40 0 -23 4 -36 8 -29 4 6 39 23 77 38 39 14 74 30
79 35 5 5 -22 24 -62 44 -39 20 -73 40 -77 46 -12 20 -25 10 -25 -20z m100
-50 c0 -4 -7 -10 -15 -14 -10 -4 -15 1 -15 14 0 13 5 18 15 14 8 -4 15 -10 15
-14z"/>
<path d="M76 1863 c-16 -4 -18 -11 -12 -50 3 -25 6 -60 6 -77 0 -22 3 -27 9
-17 13 21 130 28 142 10 5 -9 9 15 9 64 l0 77 -37 0 -38 -1 26 -14 c24 -13 44
-57 31 -70 -3 -3 -18 -5 -34 -5 -30 0 -38 17 -13 26 25 10 17 24 -13 24 -38 0
-46 -9 -25 -32 15 -17 14 -18 -15 -18 -27 0 -32 4 -32 25 0 14 9 30 20 37 36
23 24 33 -24 21z"/>
<path d="M2741 1548 c-17 -79 -12 -112 17 -116 13 -2 29 1 36 7 10 8 17 7 26
-4 34 -41 69 -2 84 93 6 39 5 41 -12 31 -26 -16 -129 6 -135 29 -2 9 -9 -9
-16 -40z m67 -34 c2 -1 1 -12 -3 -24 -10 -32 -49 -23 -53 13 -3 26 -1 27 25
21 15 -4 30 -8 31 -10z m69 -20 c3 -8 0 -21 -6 -27 -14 -14 -44 2 -49 27 -5
22 46 22 55 0z"/>
<path d="M90 1547 c0 -7 3 -22 6 -35 6 -19 8 -20 18 -7 9 12 21 13 56 7 l45
-8 -42 -28 c-23 -15 -47 -25 -52 -21 -6 3 -11 -2 -10 -12 1 -23 17 -72 18 -57
1 6 33 32 71 58 39 25 70 50 70 55 0 8 -83 31 -113 31 -7 0 -24 7 -39 14 -20
11 -28 12 -28 3z"/>
<path d="M2671 1270 c-10 -29 -9 -30 14 -24 26 6 32 -6 19 -40 -7 -19 -44 -22
-45 -3 -1 15 -28 -42 -29 -61 0 -9 5 -10 19 -2 11 5 51 10 90 10 89 0 91 11
16 76 -30 26 -55 54 -55 61 0 24 -18 13 -29 -17z m79 -65 c10 -13 9 -15 -9
-15 -12 0 -21 6 -21 15 0 8 4 15 9 15 5 0 14 -7 21 -15z"/>
<path d="M308 1275 c-7 -28 -116 -64 -129 -43 -6 10 -9 8 -8 -7 0 -26 27 -86
28 -63 1 22 121 64 133 45 13 -20 9 24 -6 58 -11 26 -13 28 -18 10z"/>
<path d="M340 1021 c-40 -21 -60 -26 -72 -20 -21 11 -22 8 -6 -26 12 -27 28
-34 28 -12 0 13 48 42 56 34 2 -2 -6 -27 -17 -56 -19 -45 -20 -55 -9 -79 10
-20 14 -23 17 -11 6 24 99 72 124 64 20 -7 20 -6 3 26 -16 32 -17 33 -25 12
-8 -21 -66 -59 -76 -50 -2 3 7 32 21 66 40 93 39 94 -44 52z"/>
<path d="M2561 992 c-15 -28 -15 -50 0 -35 9 9 22 7 53 -9 36 -19 39 -22 21
-29 -11 -4 -46 -13 -77 -19 -32 -6 -58 -15 -58 -19 0 -4 27 -22 60 -41 33 -19
60 -41 60 -49 1 -12 6 -9 22 9 l20 25 -28 3 c-15 2 -36 10 -46 17 -22 15 -14
20 54 30 36 5 48 13 63 37 17 30 17 30 -4 23 -23 -7 -105 36 -120 63 -7 13
-10 12 -20 -6z"/>
<path d="M497 725 c-30 -23 -51 -33 -63 -28 -16 6 -16 4 2 -20 22 -31 34 -34
34 -9 0 19 69 72 94 72 8 0 21 -10 27 -22 11 -20 8 -26 -32 -61 -27 -24 -50
-37 -61 -34 -25 7 -22 -3 13 -43 17 -19 29 -28 26 -19 -3 10 12 31 44 58 27
23 49 51 49 61 0 25 -48 80 -69 80 -10 0 -39 -16 -64 -35z"/>
<path d="M2397 727 c-21 -32 -21 -38 -3 -31 23 9 29 -16 10 -37 -21 -23 -44
-25 -44 -2 0 13 -6 11 -30 -12 -16 -15 -27 -32 -24 -37 3 -4 9 -6 14 -3 5 3
43 -5 84 -17 42 -12 78 -19 81 -16 4 3 -8 35 -26 69 -17 35 -35 75 -38 88 l-7
24 -17 -26z m50 -103 c-12 -12 -37 5 -30 21 5 15 7 15 21 1 9 -9 13 -18 9 -22z"/>
<path d="M817 403 c3 -7 0 -20 -7 -28 -10 -12 -9 -16 6 -22 11 -4 24 -14 30
-22 10 -13 12 -12 18 7 4 12 14 22 22 22 8 0 14 5 14 10 0 6 -4 10 -10 10 -5
0 -10 8 -10 18 0 14 -8 18 -34 18 -24 0 -32 -4 -29 -13z"/>
<path d="M2120 401 c0 -11 -4 -23 -10 -26 -14 -8 -13 -25 1 -25 7 0 18 -8 25
-17 12 -17 13 -17 19 0 4 9 17 17 28 17 16 0 18 3 9 12 -7 7 -12 20 -12 31 0
12 -6 17 -17 15 -10 -1 -24 1 -30 5 -9 6 -13 2 -13 -12z"/>
<path d="M1730 260 c-23 -23 -19 -56 8 -76 11 -8 12 -13 4 -18 -19 -11 -14
-44 8 -56 59 -31 134 54 82 92 -11 8 -18 25 -18 43 1 27 -3 30 -31 33 -22 2
-38 -3 -53 -18z m58 -18 c3 -16 -2 -22 -17 -22 -26 0 -36 17 -20 36 16 19 33
13 37 -14z m30 -94 c-3 -26 -36 -37 -49 -16 -17 25 -9 38 22 38 26 0 30 -3 27
-22z"/>
<path d="M1193 256 c15 -12 16 -19 5 -66 -8 -37 -18 -54 -32 -60 -18 -6 -15
-9 19 -19 55 -15 74 -15 52 2 -15 11 -15 17 2 85 l19 72 -41 0 c-37 -1 -40 -2
-24 -14z"/>
<path d="M1355 220 c-7 -34 1 -53 11 -26 7 17 49 22 59 6 3 -5 -5 -25 -18 -42
-30 -42 -37 -61 -27 -78 12 -19 40 -4 40 22 0 13 11 47 25 77 14 30 24 55 23
56 -2 1 -26 5 -55 9 -51 6 -51 6 -58 -24z"/>
<path d="M1552 234 c-25 -18 -29 -52 -6 -61 22 -8 42 13 26 29 -17 17 -15 28
7 28 41 0 31 -43 -31 -132 -18 -25 -5 -31 51 -23 51 7 51 7 50 43 0 21 -3 30
-6 22 -8 -20 -23 -30 -47 -30 -15 0 -12 7 18 40 20 22 36 47 36 54 0 17 -38
46 -60 46 -9 0 -26 -7 -38 -16z"/>
</g>
</svg>
